<svg width="474" height="505" viewBox="0 0 474 505" fill="none" xmlns="http://www.w3.org/2000/svg">
<circle cx="237" cy="230" r="223.625" fill="white" stroke="black" stroke-width="0.75"/>
<path d="M137.271 350V346.5C147.071 346.5 154.421 345.45 154.421 336.7V118.3C154.421 109.55 147.071 108.5 137.271 108.5V105H244.721C276.921 105 318.921 122.15 318.921 166.25C318.921 204.75 295.121 218.75 274.821 218.75V219.8C304.221 219.8 338.171 243.25 338.171 281.4C338.171 340.9 293.021 350 268.871 350H137.271ZM205.171 217H240.171C265.021 217 273.421 200.55 273.421 166.6C273.421 113.75 248.571 109.55 233.521 109.55H205.171V217ZM205.171 221.55V345.1H249.621C267.471 345.1 289.871 333.55 289.871 283.85C289.871 227.5 266.771 221.55 239.821 221.55H205.171Z" fill="black"/>
<line x1="89" y1="104.5" x2="385" y2="104.5" stroke="black"/>
<line x1="89" y1="81.5" x2="385" y2="81.5" stroke="black"/>
<line x1="171" y1="420.5" x2="303" y2="420.5" stroke="black"/>
<line x1="89" y1="349.5" x2="385" y2="349.5" stroke="black"/>
<path d="M90.3208 132C91.1408 130.62 97.3008 120.96 97.8408 120.04H93.9408C90.6608 120.04 90.5408 120.08 89.3808 122.66H89.2408L89.6408 118H98.1408V119.96C97.5008 121.36 94.0008 130.64 93.4208 132H90.3208ZM104.525 132.2C108.005 132.2 109.845 129.12 109.845 124.92C109.845 120.66 108.005 117.82 104.525 117.82C101.045 117.82 99.2055 120.66 99.2055 124.92C99.2055 129.38 101.045 132.2 104.525 132.2ZM104.525 131.98C102.805 131.98 102.305 128.88 102.305 125.02C102.305 121.14 102.805 118.02 104.525 118.02C106.245 118.02 106.745 121.14 106.745 125.02C106.745 128.88 106.245 131.98 104.525 131.98ZM116.322 132.2C119.802 132.2 121.642 129.12 121.642 124.92C121.642 120.66 119.802 117.82 116.322 117.82C112.842 117.82 111.002 120.66 111.002 124.92C111.002 129.38 112.842 132.2 116.322 132.2ZM116.322 131.98C114.602 131.98 114.102 128.88 114.102 125.02C114.102 121.14 114.602 118.02 116.322 118.02C118.042 118.02 118.542 121.14 118.542 125.02C118.542 128.88 118.042 131.98 116.322 131.98Z" fill="black"/>
<path d="M105.522 370.2C109.002 370.2 110.842 367.12 110.842 362.92C110.842 358.66 109.002 355.82 105.522 355.82C102.042 355.82 100.202 358.66 100.202 362.92C100.202 367.38 102.042 370.2 105.522 370.2ZM105.522 369.98C103.802 369.98 103.302 366.88 103.302 363.02C103.302 359.14 103.802 356.02 105.522 356.02C107.242 356.02 107.742 359.14 107.742 363.02C107.742 366.88 107.242 369.98 105.522 369.98Z" fill="black"/>
<path d="M215.698 434.54V436.26H223.038V434.54H215.698ZM229.163 426.78C232.243 426.78 234.123 428.36 234.123 430.76C234.123 435.4 226.363 438.62 225.423 438.76H229.643C232.923 438.76 233.043 438.72 234.203 436.14H234.343L233.923 441H224.783V438.84C225.863 438.42 231.363 434.68 231.363 430.22C231.363 428.78 230.823 427.02 228.763 427.02C227.783 427.02 226.383 427.58 226.043 428.64C226.283 428.54 226.503 428.54 226.583 428.54C227.243 428.54 227.903 429.1 227.903 429.88C227.903 430.78 227.183 431.34 226.423 431.34C225.663 431.34 225.003 430.76 225.003 429.86C225.003 428.52 226.443 426.78 229.163 426.78ZM240.828 441.2C244.308 441.2 246.148 438.12 246.148 433.92C246.148 429.66 244.308 426.82 240.828 426.82C237.348 426.82 235.508 429.66 235.508 433.92C235.508 438.38 237.348 441.2 240.828 441.2ZM240.828 440.98C239.108 440.98 238.608 437.88 238.608 434.02C238.608 430.14 239.108 427.02 240.828 427.02C242.548 427.02 243.048 430.14 243.048 434.02C243.048 437.88 242.548 440.98 240.828 440.98ZM252.625 441.2C256.105 441.2 257.945 438.12 257.945 433.92C257.945 429.66 256.105 426.82 252.625 426.82C249.145 426.82 247.305 429.66 247.305 433.92C247.305 438.38 249.145 441.2 252.625 441.2ZM252.625 440.98C250.905 440.98 250.405 437.88 250.405 434.02C250.405 430.14 250.905 427.02 252.625 427.02C254.345 427.02 254.845 430.14 254.845 434.02C254.845 437.88 254.345 440.98 252.625 440.98Z" fill="black"/>
<path d="M91.6196 99C92.4396 97.62 98.5996 87.96 99.1396 87.04H95.2396C91.9596 87.04 91.8396 87.08 90.6796 89.66H90.5396L90.9396 85H99.4396V86.96C98.7996 88.36 95.2996 97.64 94.7196 99H91.6196ZM104.764 84.78C107.844 84.78 109.724 86.36 109.724 88.76C109.724 93.4 101.964 96.62 101.024 96.76H105.244C108.524 96.76 108.644 96.72 109.804 94.14H109.944L109.524 99H100.384V96.84C101.464 96.42 106.964 92.68 106.964 88.22C106.964 86.78 106.424 85.02 104.364 85.02C103.384 85.02 101.984 85.58 101.644 86.64C101.884 86.54 102.104 86.54 102.184 86.54C102.844 86.54 103.504 87.1 103.504 87.88C103.504 88.78 102.784 89.34 102.024 89.34C101.264 89.34 100.604 88.76 100.604 87.86C100.604 86.52 102.044 84.78 104.764 84.78ZM115.45 84.82C113.51 84.82 110.95 86.16 110.95 89.06C110.95 92.46 113.39 93.44 115.29 93.44C116.45 93.44 117.09 92.86 117.45 92.14C117.49 95.3 117.79 98.96 114.83 98.96C113.49 98.96 112.77 98.54 112.31 97.74C112.55 97.92 112.81 97.92 112.91 97.92C113.71 97.92 114.33 97.32 114.33 96.5C114.33 95.72 113.71 95.06 112.91 95.06C112.09 95.06 111.47 95.72 111.47 96.5C111.47 98.06 112.83 99.16 114.83 99.16C119.37 99.16 120.49 95.34 120.49 91.72C120.49 87.58 118.91 84.82 115.45 84.82ZM115.29 93.24C113.91 93.24 113.53 91.72 113.53 89.02C113.53 86.8 113.91 85.02 115.45 85.02C117.27 85.02 117.45 86.98 117.45 91.46C117.11 92.38 116.49 93.24 115.29 93.24Z" fill="black"/>
</svg>
