<?xml version="1.0" encoding="utf-8"?>
<!-- Generator: Adobe Illustrator 22.1.0, SVG Export Plug-In . SVG Version: 6.00 Build 0)  -->
<svg version="1.1" xmlns="http://www.w3.org/2000/svg" xmlns:xlink="http://www.w3.org/1999/xlink" x="0px" y="0px"
	 viewBox="0 0 500 500" style="enable-background:new 0 0 500 500;" xml:space="preserve">
<style type="text/css">
	.st0{display:none;}
	.st1{fill:#202020;}
</style>
<g id="Layer_1" class="st0">
	
		<image style="display:inline;overflow:visible;" width="558" height="640" xlink:href="3A0444EBDE9EFED1.png"  transform="matrix(0.7491 0 0 0.7491 41 10.2867)">
	</image>
</g>
<g id="Layer_2">
	<g>
		<g>
			<g>
				<g>
					<g>
						<path class="st1" d="M229.7,419.3c-1.3-0.1-0.6,0.2,2.9,0.6l2.5,0L229.7,419.3z"/>
						<path class="st1" d="M253.1,422.1c4.1,0,8.9-0.5,6.2-0.7c-2,0.2-3.3,0.2-4.6,0.3c-1.3,0-2.6,0.1-4.8,0.1
							c-3.5-0.1-6.1-0.5-5.5-0.6c-1.2,0-5.4-0.6-7.3-0.6c4.5,0.8,10.3,1.3,16.3,1.3C254.7,422,253.4,422.1,253.1,422.1z"/>
						<path class="st1" d="M186.1,264.7c-0.8-0.1-1.5-0.2-2.2-0.3C184.4,264.5,185.2,264.6,186.1,264.7z"/>
						<path class="st1" d="M352.8,286.9c-0.7,1.5-0.9,2.1-0.9,2.2C352.4,287.7,353,286.6,352.8,286.9z"/>
						<path class="st1" d="M371.7,256.2c-0.5,0.6-0.8,1.2-1.2,1.7C371,257.3,371.4,256.6,371.7,256.2z"/>
						<path class="st1" d="M186.1,264.7c1.9,0.1,3.9-0.1,5.8-0.5C192.2,264,189,264.9,186.1,264.7z"/>
						<path class="st1" d="M297.1,409.3c-0.9,0.7-1.6,1.4-2.3,2c0.8-0.6,1.4-1.2,2.2-1.8C297,409.4,297,409.4,297.1,409.3z"/>
						<path class="st1" d="M267.4,279l1.5,1.2c0.4,0.3,0.8,0.6,1.2,0.8L267.4,279z"/>
						<path class="st1" d="M327.3,318.5c-1.5-0.5-2.1-0.5-2.7-0.6c0.9,0.3,2,0.7,3.3,1C327.9,318.8,327.7,318.7,327.3,318.5z"/>
						<path class="st1" d="M308.2,397.9l-1.1,1.7C307.4,399.1,307.9,398.4,308.2,397.9z"/>
						<path class="st1" d="M218,275.4c-0.1-0.1-0.3-0.2-0.6-0.3C217.4,275.2,217.6,275.3,218,275.4z"/>
						<path class="st1" d="M167.8,389C167.7,389,167.8,389.1,167.8,389C168.1,389.3,168.2,389.4,167.8,389z"/>
						<path class="st1" d="M240.7,422l-1.1,0.2c-0.1,0.1-0.2,0.1-0.2,0.2L240.7,422z"/>
						<path class="st1" d="M387.2,229.5c-0.2,0-0.3,0.1-0.5-0.1c-0.5-0.5-0.8-0.8-0.9-0.9c-0.1-0.1-0.1-0.1,0,0
							c0.1,0.1,0.2,0.2,0.4,0.4c0.1,0.1,0.3,0.3,0.5,0.4c0.1,0.1,0.2,0.2,0.3,0.2C386.9,229.6,387,229.5,387.2,229.5z"/>
						<path class="st1" d="M281,174.9c-1.1,6.8,1.1-11.2-0.5-0.9C280.7,173.1,279.7,183.5,281,174.9z"/>
						<path class="st1" d="M298.5,408.2c0.7-0.7,1.4-1.3,2-2.1C299.6,407.1,299,407.7,298.5,408.2z"/>
						<path class="st1" d="M280.5,174L280.5,174l-0.2,1.1C280.4,174.6,280.5,174.4,280.5,174z"/>
						<path class="st1" d="M389.7,178.3c0.3-0.2,0.7-0.6,1.2-1.1C390.8,177.3,390.6,177.5,389.7,178.3z"/>
						<path class="st1" d="M385.5,197.6c0.2,0.1,0.5,0.1,0.7,0.2c0.1,0.1,0.6,0.2,1,0.4c-0.2-0.1-0.5-0.2-0.7-0.3
							c-0.1,0-0.3-0.1-0.4-0.1C386,197.7,385.7,197.7,385.5,197.6z"/>
						<path class="st1" d="M351.6,223.6c-1,1.2-1.3,1.6-2.5,3.3c0.1-0.1,0.3-0.3,0.4-0.5C349.9,225.8,350.5,225,351.6,223.6z"/>
						<path class="st1" d="M328.6,212.3c-0.1,0.3-0.3,0.7-0.5,1c-0.2,0.6-0.5,1.2-0.7,1.8L328.6,212.3z"/>
						<path class="st1" d="M69.3,232.2c0.5,1.2,0.8,2,1,2.7C70.1,234,74.1,242.1,69.3,232.2z"/>
						<path class="st1" d="M297.2,409.4c0.2-0.3,0.6-0.6,1.3-1.3c-0.5,0.5-1,0.9-1.5,1.3C296.9,409.6,296.9,409.7,297.2,409.4z"/>
						<path class="st1" d="M351.8,227c-2,2.6-3.9,5.2-6,7.8C347.6,232.6,349.7,229.7,351.8,227z"/>
						<path class="st1" d="M205.2,123.4l-0.2-2.2C205.1,122,205.2,122.8,205.2,123.4z"/>
						<path class="st1" d="M322,231.7c-0.3-1.9-0.2-3.9,0.1-5.9c0-0.4,0.1-0.9,0.1-1.2C321.8,226.9,321.6,229.3,322,231.7z"/>
						<path class="st1" d="M70.3,234.9C70.3,234.9,70.3,234.9,70.3,234.9C70.3,234.9,70.3,234.9,70.3,234.9z"/>
						<path class="st1" d="M99,292.6c-4.1-8.4-2.2-3.8-3.3-5.5c-4.9-10-2-4.8-3.5-8.2c-3.1-6.2-5.7-10.9-8-15.5
							c-0.1-0.4-0.5-1.3,0.1-0.3c-3.5-6.5-9.5-19.6-13.6-27.2c-0.2-0.6-0.4-0.9-0.4-1c0.4,1.3,0.4,1.6,0.1,1.4
							c-0.9-1.9-1.8-3.6-2.5-5c-0.7-1.4-1.3-2.6-1.4-3.4c0.4,1.2,0.8,1.8,1,2.2c0.3,0.5,0.4,0.8,0.7,1.3c-0.7-1.3-1.4-2.6-1.8-3.9
							c-0.2-0.9-0.1-1,0-0.7c0.1,0.3,0.3,1.1,0.7,2c0.8,1.7,1.9,4,2,3.9c-0.9-1.9-2.1-3.9-2.6-5.8c-0.3-1-0.3-2,0-2.9
							c0.3-0.9,0.9-1.8,1.6-2.5c1.5-1.4,3.5-2.2,5.3-2.6c1.9-0.4,3.7-0.4,5.3-0.1c0.3,0.1-0.4,0-1.6,0c-1.2,0-2.8,0.1-4.1,0.5
							c-1.3,0.3-2.4,0.8-2.6,1c-0.2,0.2,0.2-0.1,2.2-0.7c-1.5,0.4-3,1.1-4.1,2c-1.2,1-2,2.3-2,3.7c0.1-0.8,0.4-1.3,0.5-1.5
							c0.2-0.3,0.2-0.3,0.2-0.3c0,0.1-0.3,0.7-0.4,1.3c-0.1,0.6,0,1.3,0,1.5c0,0.1,0,0,0.1-0.3c0-0.3,0-0.7,0.2-1.3
							c0.3-1.2,1.1-2.2,2-2.9c0.9-0.7,1.9-1.2,2.8-1.5c1.9-0.7,3.6-0.9,5.3-0.8c1.7,0.1,3.4,0.4,5.4,1c2,0.7,4.2,1.8,6.7,3.8
							c2.3,1.7-0.6-0.9,1.8,0.9c1.8,1.5,3.1,2.9,4.2,4.2c1.1,1.3,2,2.4,2.8,3.4c1.5,2,2.4,3.4,3.3,4.7c1.8,2.6,3.1,4.6,7.8,9.8
							c1.2,1.3,2.2,2.1,3.6,3.6c1.4,1.5,3.3,3.6,6.6,7.3l-2.6-2.2c4.3,4.8,5.7,6,7.1,7.4c1.4,1.3,2.8,2.7,7.6,7.6
							c-1.8-1.6-7.2-7.1-5.9-5.7c3,3.3,4.1,4.3,5.1,5.2c1,0.9,1.8,1.5,4.2,3.8l0.8,1.2c2.5,2.4,5.1,4.7,7.8,7.1
							c2.7,2.4,5.7,4.7,9.2,6.4c1.7,0.8,3.6,1.5,5.6,1.8c2,0.3,4.1,0.2,6-0.5c2-0.7,3.6-1.9,5-3.3c1.4-1.4,2.6-2.9,3.8-4.4
							c-0.5,0.7-2,2.8,0.3,0.1c1.6-1.9,3-3.9,4.4-5.9c1.4-2.1,2.8-4.1,4.1-6.3c1.4-2.1,2.5-4.4,3.8-6.7c1.1-2.3,2.3-4.6,3.3-7
							c2.1-4.7,3.8-9.5,5.2-14.3c0.2-0.6,0.4-1.2,0.5-1.8c0.2-0.6,0.3-1.2,0.5-1.8c0.3-1.2,0.6-2.4,0.9-3.6c0.5-2.4,1-4.7,1.3-7
							c0.3-2.4,0.4-4.8,0.5-7.1c0.1-1.7,0.3-3.1,0.3-1.3c0.5-7.3-0.2-0.4-0.1-3.9c0-4.1,0.2-5.5,0.3-2.8c-0.1-6.4-0.9-15.6-2.7-24.6
							c-1.7-9-3.9-18-5.4-24.6l0.7,2.5c-2.4-10.2-3.5-11.3-5.5-20.7l0.5,1.8c-2.6-11-4.7-22.7-5.4-33.9c-0.7-11.2-0.2-21.7,1.1-30.2
							c0-0.8,0.2-2.6,0.5-4.9c0.2-1.1,0.3-2.3,0.7-3.5c0.4-1.2,0.8-2.4,1.4-3.6c0.6-1.1,1.3-2.2,2-3.1c0.8-0.9,1.6-1.6,2.3-2
							c1.5-0.8,2.7-0.5,3.1-0.6c0.6,0.2,1.2,0.5,1.7,0.9c0.4,0.4,0.8,0.8,1.1,1.3c0.6,0.9,0.9,1.8,1.2,2.6c0.3,0.8,0.5,1.5,0.7,2.2
							c0.2,0.7,0.4,1.4,0.6,2.1c0.4,1.4,0.8,3,1.5,5.3c0.3,1.2,0.6,2.5,1,4.1c0.4,1.6,0.9,3.5,1.2,5.7c0.5,2.4,0.9,4.1,1.4,6
							c0.4,1.9,0.8,4,1.3,6.9l-0.3,0.2c0.5,2.7,0.9,5.4,1.4,8c0.1,1.4,0.1,2.9,0.1,4.3l0.6,5.6c-0.2-2.2-0.3-4.8-0.2-4.4
							c0.5,4.4,0.9,9.7,1.2,14c0.1,2.1,0.2,4,0.3,5.4c0,1.4,0.1,2.2,0,2.2c0.6,6.9,1.2,13.9,2,20.8c-0.2-0.4-0.6-3.9-0.9-6.7
							c0.6,5.5,0.6,6.1,0.6,6.5c0,0.4-0.1,0.7,0.6,5.8c-0.1-1.4,0.3,0.7,0.4,0.9c0.2,2.5,0.6,6.7,1.4,11.3c0.3,2.3,0.7,4.7,1.2,7
							c0.5,2.3,0.9,4.6,1.4,6.7c-0.2-0.5-0.4-1-0.6-1.6c0.4,1.9,0.9,3.8,1.4,5.8c0.2,1,0.5,1.9,0.7,2.9c0.3,1,0.6,1.9,0.9,2.9
							c0.6,2,1.2,3.9,1.9,5.9c0.7,2,1.6,4,2.8,5.9c0.6,0.9,1.2,1.9,2,2.7c0.8,0.9,1.6,1.7,2.7,2.3c2,1.4,4.7,1.9,7.1,1.4
							c2.5-0.5,4.5-2.1,6.1-3.9c1.5-1.8,2.6-3.8,3.6-5.9c-1.4,2.9-2.3,3.9-2.3,3.6c0-0.3,0.9-1.7,1.9-4.1c0.4-0.6,0.7-1.2,1.1-1.8
							c0.5-1.6,0-0.3-0.4,0.5c-0.2,0.4-0.3,0.7-0.3,0.5c0.1-0.2,0.3-0.9,0.8-2.5c1.1-3.1,1.4-4.1,1.5-3.9c0,0.2-0.3,1.7-0.8,3.5
							c0.4-1.3,0.8-2.6,1.2-3.8c0.3-1.3,0.7-2.6,1-3.9c0.2-0.4-0.2,1.4-0.2,1.9c0.4-1.6,1.2-4.9,2-8.5c0.7-3.6,1.3-7.3,1.4-9.7
							l0.1-0.4c1-8.7,1.3-15,1.8-20.9c0.4-5.9,0.9-11.3,1.6-18.4c-0.2-0.3,0.4-5.8,0.8-10c1.5-10.3,3.7-21.6,6.4-33.8
							c1.8-8.6,0.3-2.6,1.1-6.4c0.3-0.6,3.4-12.7,2-6.4c1.8-7.3,3.1-11.9,4.6-16.9c0.7-2.5,1.5-5.2,2.5-8.3c0.5-1.6,1-3.2,1.9-4.9
							c0.8-1.6,2-3.4,3.8-4.4c-1.7,0.7-3,2.6-2.3,1.6c0.5-0.6,1.1-1.2,1.8-1.6c0.7-0.4,1.4-0.7,2.1-0.8c1.3-0.2,2.1,0.1,1.9,0.1
							c-0.3,0-0.5,0-0.8,0c2.3,0,4.7,1.4,6.2,3.6c1.5,2.1,2.1,4.9,2.3,7.8c0.2,2.9,0,5.9,0,8.8c0,3-0.1,5.9-0.2,8.9
							c-0.3,11.7-0.9,22.9-1.1,31.4l0-1c-0.2,5.9-0.5,11.7-0.8,17.6c-0.6,8.1,0.2-4.9-0.4,1.1c-0.5,9.5-1.2,16.9-2,24
							c-0.8,7-1.5,13.6-2.4,21.4c-0.6,3-1.2,7.1-2,11.9c-0.4,2.4-0.8,5-1.2,7.6c-0.4,2.7-0.9,5.4-1.2,8.3c-0.2,2.9-0.2,6.1,1.1,9
							c1.3,2.9,3.8,5.2,7,6c1.6,0.4,3.3,0.3,4.7-0.4c1.4-0.6,2.5-1.7,3.4-2.6c0.9-1,1.6-2,2.2-2.9c0.7-0.9,1.3-1.8,1.9-2.7l-0.7,0.7
							c1.1-1.8,1.9-2.9,2.5-3.8c0.6-1,1.2-1.8,2-3.1c-0.3,0.3-2.5,3.9-1.2,1.6c1.1-2,2.3-3.9,3.4-5.9c1-2,2.1-4.1,3.1-6.1
							c0.9-2.1,1.9-4.2,2.8-6.3c0.9-2.1,1.8-4.2,2.6-6.4c3.4-8.6,6.4-17.4,9.3-26.2c2.9-8.8,5.7-17.7,8.8-26.4
							c3.1-8.7,6.6-17.2,10.7-25.4c0.7-1.5,1.3-2.7,1.8-3.7c0.5-1,1-1.8,1.3-2.4c0.8-1.3,1.3-2.2,1.9-3.1c0.7-0.9,1.4-1.9,2.9-3.2
							c0.8-0.6,1.7-1.3,2.9-1.9c1.2-0.5,2.8-1,4.6-0.7c-1.4-0.1-2.8,0.3-4,0.9c1.4-0.6,2.8-0.8,4.2-0.6c0.3,0.1,0.7,0.1,1.1,0.2
							l1,0.4l0.9,0.5c0.3,0.2,0.6,0.5,0.8,0.7c2.1,2,3.1,5.2,3.3,8.5c0.2,3.3-0.2,6.6-0.9,9.9c-0.8,3.3-1.7,6.7-2.6,10
							c-3.5,13.3-7.3,26.4-11.1,39.1c0.4-1.5,0.3-1.6,1.1-4.1c-0.9,2.6-2.5,7.6-3.8,11.9c-0.7,2.1-1.3,4.1-1.7,5.6
							c-0.4,1.5-0.7,2.4-0.7,2.4c-1.3,3.9-0.5,0.9-1.4,3.2c-1.9,5.3-4.3,13.4-5.5,16.1c-0.2,0.5,0.5-1.5,0.8-2.5
							c-1.1,3.5-5.9,16-4.4,12.8c-1.8,4.6-3.5,9.1-5.1,13.3c-1.6,4.2-3.3,8.2-3.9,12.4c-0.1,1.4-0.2,3.2,0,5.2c0.1,1,0.4,2,0.7,3
							c0.4,1,0.8,2,1.3,2.8c0.5,0.9,1.2,1.7,1.8,2.4c0.7,0.7,1.4,1.2,2.1,1.6c1.4,0.8,2.6,1,3.1,1c-0.2,0,0.9,0.5,2.8,0.4
							c1.9-0.1,4.6-1,6.8-2.7c2.2-1.7,4.2-3.9,5.8-6c1.6-2.1,2.9-4,3.8-5.2c-1.2,1.8,3.4-4.3,2.1-2.2c4.4-5.7,8.4-10.9,7.4-10
							c8.7-10,16.7-20.7,22.2-25.7c3.5-4,7-7.9,10.5-11.6c1.8-1.9,3.5-3.7,5.2-5.6c0.9-0.9,1.7-1.8,2.6-2.7c0.8-0.9,1.8-1.7,2.7-2.4
							c1.9-1.5,4-2.7,6.2-3.5c1.1-0.4,2.2-0.7,3.3-0.7c0.6-0.1,1.1,0,1.6,0.1c0.5,0.2,1,0.2,1.5,0.5c0.5,0.2,0.9,0.6,1.3,0.9
							c0.3,0.4,0.7,0.8,1,1.2c0.6,0.9,0.8,2,0.9,3.1c0.1,2.2-0.4,4.5-1.1,6.8c-0.1-0.2,0.4-1.5,0.7-3.4c0.3-1.9,0.5-4.4-0.6-6.2
							c-1.1-2-3.2-2.8-4.8-2.7c-0.4,0-0.8,0-1.1,0.1c-0.3,0.1-0.6,0.1-0.8,0.2c-0.4,0.1-0.6,0.2-0.5,0.2c2-0.5,3.9-0.4,5.3,0.5
							c0.7,0.5,1.3,1.1,1.7,1.8c0.4,0.7,0.7,1.5,0.8,2.3c0.3,1.6,0,3.4-0.4,5.1c-0.4,1.7-1,3.4-1.5,5.1c-2.2,6.8-4.8,13.4-8.9,21.4
							c-2.2,4.1,1-2.4,1.6-3.9c-1.4,3.1-2.9,6.1-4.5,9.1c-0.8,1.5-1.6,2.9-2.4,4.3l-0.6,1.1l-0.2,0.4l-0.1,0.2c0,0.1-0.1,0.2-0.1,0
							c0-0.2-0.1-0.4-0.1-0.7l-0.1-0.3l-0.2-0.6c-0.4-1.3-1.1-2.6-1.7-3.8c-1.4-2.4-3.2-4.5-5.3-6.3c-2.1-1.8-4.4-3.1-7.1-4
							c-1-0.4-2-0.5-2.9-0.8l-0.7-0.2l-0.4-0.1l-0.1,0c0,0,0,0,0,0l0,0l0,0.2l0.2,1.5c0.1,0.5,0.2,1,0.3,1.4
							c0.1,0.2,0.1,0.5,0.2,0.7c0.1,0.2,0.2,0.5,0.2,0.7c0.2,0.6,0.5,1.2,0.8,1.8c0,0-0.2-0.4-0.5-1.1c-0.1-0.2-0.1-0.3-0.2-0.5
							c-0.1-0.2-0.2-0.4-0.2-0.7c-0.2-0.6-0.3-1.3-0.5-1.9c0.1,0.6,0.2,1.3,0.4,1.9l0.3,0.7c0.1,0.2,0.2,0.4,0.2,0.6
							c0.3,0.8,0.7,1.6,1.1,2.2c0.7,1.3,1.3,2.1,1.3,1.9c-0.6-0.9-1.2-1.8-1.6-2.8c-0.9-2.5,0.4,0.6,2.7,3.7
							c1.2,1.6,2.5,3.2,3.4,4.6c1,1.3,1.6,2.4,1.7,2.5c-0.8-1.1-0.7-0.8-0.2,0.2c0.2,0.5,0.5,1.1,0.8,1.9c0.2,0.8,0.4,1.6,0.5,2.5
							c0.2,1.7,0,3.4-0.2,4c-0.1,0.3-0.2,0.4-0.2,0.2c0-0.2,0-0.8,0-1.8c0,1-0.2,2.1-0.4,2.8c-0.2,0.8-0.3,1.2-0.2,1.1
							c-0.6,1.3-1.2,2-1.4,2.1c-0.2,0.1,0.2-0.2,0.8-1.5c-1.2,2.3-2.7,2.9-3.8,3c-0.4,0-0.3,0-0.5,0c-0.1,0-0.1-0.1-0.1-0.1
							c-0.1,0,0,0-0.2-0.1c-0.4-0.3-0.7-0.6-1-0.9c-1.3-1.1-2.5-2.2-6.8-5.3c0.1-0.1,1.8,1.1,2.8,1.7c-2.2-1.6-4.4-3-7.2-4.5
							c-0.7-0.4-1.4-0.7-2.1-1.1c-0.2-0.1-0.5-0.2-0.7-0.3c-0.3-0.1-0.6-0.3-0.8-0.4c-0.3-0.1-0.5-0.2-0.8-0.3l-0.4-0.2l-0.1,0
							c0,0,0,0.1,0,0.1l-0.1,0.2c-0.2,0.6-0.4,1.2-0.6,1.8c0,0.3-0.1,0.7-0.1,1c0,0.3,0,0.6,0,0.8c0.1,1.1,0.5,2.2,1.1,3.2
							c-0.2-0.2-0.1-0.1-0.2-0.2c0-0.1-0.1-0.2-0.3-0.5c-0.1-0.3-0.3-0.7-0.5-1.4c0.6,2.1,1.8,3.6,2.9,5c1.2,1.4,2.4,2.6,3.5,3.8
							c1.1,1.2,2.2,2.4,3.1,3.7c0.9,1.3,1.5,2.7,1.6,4.2c0.1,1.5-0.4,3-1.1,4.5c-0.8,1.4-1.8,2.8-2.8,4.3c-2,2.9-4.2,6-6.6,9.3
							c2.4-4.2-3.3,4.5-4.1,5c-1.6,2.5-3.2,5-4.8,7.5c0.7-1,1.4-1.9,2.1-2.9c-4.3,6.5-7.6,12.6-10.6,18.6c0.8-1.8,1.6-3.5,2.5-5.2
							c-2.3,4.3-4.3,8.8-6,13.3l1.6-3.8c0.6-1.3,1.2-2.5,1.8-3.7c-1.5,3.6-1.4,3.5-1.3,3.6c0,0.1,0,0.2-0.3,0.9
							c-0.1,0.4-0.3,0.9-0.6,1.6c-0.3,0.7-0.7,1.6-1.1,2.9c0.3-1-0.3,0.8-1.2,3.4c-0.4,1.3-0.8,2.8-1.2,4.2
							c-0.3,1.4-0.6,2.8-0.9,3.8l0,0c-0.2,0.9-0.2,1.9-0.3,2.9c0,0.4-0.1,0.8-0.1,1.2l0,0.3l0,0.2l-0.1-0.1
							c-0.2-0.1-0.4-0.2-0.6-0.3c-0.9-0.4-1.9-0.9-3-1.3c-1.1-0.5-2.3-1.1-3.6-1.7c-1.3-0.8,1.3,0.1,0.4-0.3
							c-1.8-0.7-5.9-2.6-10-4.7c-4.2-2.1-8.4-4.3-10.6-5.4c1.4,0.7,1.6,0.6,1.2,0.3l-2.9-1.3c-3.1-1.8-3.5-2.1-2.9-2
							c-4.7-2.7-4-2.2-3.5-1.8c0.2,0.2,0.4,0.4-0.1,0.1c-0.6-0.3-1.9-1.1-4.6-2.8c0.9,0.5,0.5,0.2,2.3,1.3
							c-11-6.7-21.2-13.1-30.6-20.2c-1.3-1.2,0.8,0.3,2.8,1.8c2.1,1.4,4.1,2.9,2.5,1.6c-7-4.9-14.1-10.1-20.9-15.6
							c-1.7-1.4-3.4-2.8-5.1-4.1c-0.8-0.7-1.7-1.4-2.5-2.1l-1.2-1l-0.7-0.6c-0.3-0.2-0.5-0.4-0.8-0.6c-0.6,0.2-1.2,0.6-1.6,1.1
							c-0.5,0.6-0.6,1.1-0.8,1.7c-0.3,1.1-0.3,2.2-0.4,3.2c-0.1,0.5-0.1,1-0.3,1.5c-0.1,0.2-0.1,0.5-0.2,0.7l-0.3,0.7
							c-0.5,0.8-1.1,1.6-1.9,2.2c0.8-0.6,1.4-1.3,1.9-2.1c-0.1,0.3-0.3,0.6-0.5,1c-0.2,0.2-0.3,0.4-0.5,0.6
							c-0.2,0.2-0.4,0.4-0.7,0.6c-1,0.8-2.6,1.5-4.5,1.9c-1.8,0.3-3.9,0.3-6-0.1c-2-0.5-4-1.3-6-2c1.9,0.8,2.6,0.7,2,0.6
							c-2.6-1-5.1-2.3-8-3.4c-1.4-0.5-2.9-1-4.5-1.2c-0.4,0-0.8-0.1-1.2-0.1c-0.4,0-0.8,0-1.2,0c-0.4,0-0.8,0-1.2,0
							c-0.4,0-0.8,0.1-1.2,0.1c-3.4,0.4-6.7,1.6-10.1,3.1c-3.4,1.5-6.9,3.3-11,4.5l2-0.8c-0.8,0.2-1.7,0.6-2.7,0.8
							c-0.5,0.1-1,0.3-1.5,0.3c-0.5,0.1-1,0.1-1.6,0.2c-2.1,0.2-4.5,0-6.6-0.7l-0.5,1.2c3.8,1.6,7.7,3.2,10.8,4.4
							c2.1,0.6,5.9,2.1,3.6,1c10.3,4.2,20.5,7.3,30.5,9.8c5,1.3,9.9,2.4,14.8,3.4c4.9,1,9.9,1.9,14.9,1.5c-2.4,0.3-5.7,0.2-3.8,0.3
							c2.9,0,5.8-0.3,8.5-1.2c1.4-0.5,2.7-1.1,3.9-2c0.7-0.5,1-0.7,1.4-1.1c0,0,0.1-0.1,0.1-0.1l0.1,0.1l0.3,0.2l0.7,0.5
							c-0.2-0.2-0.4-0.4-0.6-0.6c-0.1-0.1-0.2-0.2-0.3-0.3c0,0-0.1-0.1-0.2-0.1c0,0-0.1-0.1-0.1,0l-0.1,0.1c-0.3,0.2-0.5,0.4-1,0.7
							c-0.5,0.3-1.1,0.8-2,1.1c0.5-0.3,1-0.7,1.7-1.2c0.3-0.2,0.6-0.5,0.9-0.8l0.2-0.2l0.1-0.1c0,0,0.1,0,0.1,0.1
							c0.2,0.1,0.3,0.3,0.5,0.4c1.5,1.2,3.3,2.6,4.9,3.8c-6-4.6-0.2,0.4,2.3,2.4c-0.4-0.4,0.5,0.2,0.4,0c3.4,2.8,3.7,3,4.4,3.3
							c0.7,0.3,1.7,1,6.5,4.6l-0.6-0.3c3.7,2.6,7.2,4.8,11.2,7.5c1.5,1.3-4-2.6-4.4-2.6c5.6,3.8,11.4,7,16.5,10.5
							c-2.5-1.5-6-3.7-8.5-5.2c5.5,3.9,6.2,4.2,10.4,6.9l-0.4-0.3c3.3,2,6.5,4,9.9,6l-2.5-1.5c3.6,1.7,7.2,3.8,11.5,4.8
							c2.2,0.5,4.6,0.6,6.9-0.1c1.2-0.3,2.3-0.9,3.4-1.6c0.5-0.4,1-0.8,1.5-1.2c0.5-0.4,0.8-0.9,1.1-1.4c0.1-0.3,0.3-0.5,0.4-0.8
							c0.1-0.3,0.3-0.6,0.4-1c-0.3,0.8-0.6,1.5-0.8,1.8c-0.9,1.5-1.9,2.1-2.1,2.4c-0.3,0.3-0.1,0.1,0.3-0.1c0.2-0.1,0.4-0.3,0.6-0.5
							c0.2-0.2,0.5-0.4,0.6-0.5c0.3-0.3,0.4-0.4,0.4-0.2c0.1-0.1,0.2-0.2,0.3-0.3c0.2-0.4,0.5-0.7,0.6-1.1c0-0.1,0.1-0.2,0.1-0.4
							l0-0.2c0,0,0,0,0,0l0,0.1l0,0.1c0,0.3,0,0.5,0.1,0.7c0,0.4,0,0.5,0,0.4c0,0.1,0,0.2,0.1,0.2c0.1,0.2,0.1,0.5,0.1,0.8l0,0.4
							c0,0.1,0,0.1,0,0.3l0,0.4c0,1.1,0,2.3-0.1,3.5c-0.1,2.4-0.5,5.1-1.1,8.6c-0.1,0.3-1.5,5.5-1.4,4.3c-0.5,1.7-0.7,2.4-0.8,2.6
							c0,0.2,0.1-0.2,0.3-0.8c0.4-1.1,1.1-3,1-2.7c-2.6,10.5-10.3,23.1-17.3,37c-3.2,5.9-5.1,9.4-6.9,12.8c-1.9,3.4-3.7,6.7-6.9,12
							c-1.2,1.7-0.8,1-0.1-0.2c0.7-1.2,1.6-2.9,1.6-2.9c-3.7,5.7-6.4,10-10.7,14.7c0.8-1-0.1-0.1-1.6,1.2c-3.9,3.3-2.2,2.7-8,6.1
							c1-0.6,2.1-1.7,4-3.1c-4.7,3.6-10.1,6.3-16.1,8c-0.8,0.1,0.1-0.1,1.4-0.6c1.3-0.5,3.1-1.1,4.1-1.6c-3.2,1.2-7.5,2.6-11.4,3.2
							c-3.8,0.7-7.2,1.1-8.2,1.3l2.2-0.1l2.2-0.2c-2.5,0.3-1.3-0.1,0.5-0.3c1.5-0.2,2.7-0.5,3.8-0.7c1.1-0.2,2-0.3,2.7-0.5
							c1.4-0.3,2.2-0.4,2.3-0.4c-1.4,0.4-2.8,0.8-4.3,1.1c2.3-0.1,6.7-1.2,11.3-3.2c4.6-2,9.3-5,12.6-8.1c-0.9,0.9-1.7,1.8-2.6,2.7
							c1.2-1,2.3-2.1,3.4-3.1c1.1-1.1,2.1-2.2,3.1-3.4c0.7-0.7,1.3-1.3,1.4-1.2c0.1,0-0.3,0.7-1.8,2.4c2.2-2.3,3-3.5,3.8-4.6
							c0.8-1.1,1.5-2,3.1-4.3c0.4-0.5,0.2-0.2-0.1,0.2c1.1-1.8,2.2-3.6,3.3-5.4c-0.6,1.1,0.8-0.7-1.3,2.5
							c6.2-9.5,9.1-15.8,11.5-19.3l-0.4,0.8c1.9-3.4,2.9-5.2,3.3-6.2c0.5-0.9,0.5-1,0.4-1c-0.1,0-0.5,0.5,2.1-4.7l4.4-6.6l0.4-1.5
							c0.8-1.4,2.2-4.3,2.1-3.7c2.5-5.5-0.6,0.9,0.8-2.4c1.8-3.4,4-8.4,5.5-12.7c1.5-4.4,2.3-8.2,2.7-9c0.3-2.8-1.7,7.3-0.2-0.9
							c0.2-0.5,0.4-1.2,0.5-2c0.1-0.9,0.3-1.9,0.3-3.1c0.1-2.3,0-5.1-0.4-8.3c-0.1-0.5-0.2-1-0.3-1.6l-0.1-0.4l0-0.2
							c0,0,0-0.1,0-0.1l0,0.1c-0.1,0.3-0.1,0.5-0.1,0.8c0.1-1.7,0.5,0.4,0.8,1c0.2,1.7,0.4,2.8,0.1-0.2c-0.1-0.3-0.3-0.7-0.5-1.2
							c-0.1-0.1-0.1-0.2-0.2-0.3c0-0.1-0.1-0.3-0.1-0.1c0,0.2-0.1,0.5-0.2,0.8c-0.1,0.5-0.5,1.1-1.1,1.7c-3,5.5-9.6,5.5-13.7,4.2
							c-0.1,0.1-0.9-0.1-2.2-0.6c-1.3-0.5-3-1.3-5-2.4c-3.9-2.2-8.8-5.1-13.1-7.7c0.3,0.1-3.7-2.4-8.7-5.7
							c-5-3.3-10.9-7.5-14.6-10.3l0.3,0.1c-1.7-0.7-9.4-6.5-14.9-10.9c0.4,0,1.4,0.7,4.4,3c-1.7-1.4-3.5-2.7-5.2-4.1
							c-0.3-0.2-0.6-0.4-1.1-0.8c-0.3-0.2-0.5-0.4-0.8-0.6c-0.1-0.1-0.3-0.2-0.5-0.3c-0.1,0.1-0.3,0.2-0.4,0.4
							c-0.3,0.3-0.6,0.5-1,0.8c-0.3,0.3-0.6,0.4-0.9,0.7c-0.3,0.2-0.7,0.5-1.1,0.7c-0.4,0.2-0.8,0.5-1.3,0.6
							c0.5-0.3,0.9-0.6,1.3-0.9c-3.7,2-8.1,2.5-12.8,2.2c-4.7-0.3-9.6-1.5-15.1-2.8c-0.7,0.1,8.6,2.8-3.1,0.2
							c-0.4-0.2-0.8-0.6,2.3,0.1c-1-0.2-3.6-0.7-5.6-1.3c1.6,0.3,3.1,0.6,4.7,0.9c-5-1.3-2.7-0.5-6.6-1.5c0.1-0.2-2.9-0.9-2.3-0.9
							c1,0.3,3.4,1,5,1.3c-4.5-1.2-9.9-2.8-11.6-3.5c0.4,0.2-0.1,0.3-3.3-0.7c-8.4-2.6-2.8-1.1-7.6-2.8c-2.1-0.5-7.3-2.5-7.5-2.3
							c-2.4-0.9-2.8-1.2-3.7-1.6c-2.7-0.9-9.8-3.7-13.5-5.2l-0.5,1.2c2.4,0.7,3.6,0.8,1.7,0.2l-1.2-0.3c0.2,0.1,0.5,0.1,0.7,0.2
							c0,0,0,0,0,0l0,0c1.8,0.5,3.8,0.5,5.7,0.4c0.9-0.2,1.9-0.2,2.8-0.5l1.4-0.4l1.4-0.5c3.7-1.2,7.2-2.9,10.7-4.3
							c1.8-0.7,3.6-1.3,5.4-1.8c1.9-0.4,3.7-0.7,5.6-0.6c3.8,0,7.3,1.6,10.6,3l-0.1,0.1c2,0.9,4.2,1.8,6.5,2.5
							c2.3,0.7,4.8,0.9,7.2,0.5c2.3-0.4,4.5-1.3,6.1-2.7c1.6-1.5,2.2-3.5,2.3-5.1c0.1-1.3,0.3-2.9,0.7-3.8c0.4-0.9,0.8-0.9,0.6-0.7
							c0.2-0.2,0.4-0.4,0.6-0.5c0.1-0.1,0.2,0.1,0.3,0.1c0.1,0.1,0.2,0.2,0.3,0.2c0.5,0.4,0.9,0.8,1.4,1.1c0.9,0.8,1.7,1.4,2.6,2.1
							c1.7,1.4,3.8,3.1,7.5,6.3c-5.4-4.1,1.7,1.6-5.5-4.3c1.7,1.4,3,2.6,4.2,3.6c1.2,1,2.3,1.9,3.4,2.7c2.2,1.8,4.5,3.5,8.3,6.2
							c-2.7-1.7,5.1,4.2,8.6,6.5c-1.6-1.2-3.3-2.4-4.9-3.7c3.8,2.7,7.2,5.1,10.6,7.5l-2.1-1c7.3,5.3,14.3,9.5,20.9,13.2
							c6.6,3.7,12.8,7.1,18.7,10.5c4.3,2-8.6-4.7-4.7-3c7.3,4,14.8,8.2,17.2,9.3c1.3,0.6,2.4,1.2,3.4,1.6c1,0.5,1.9,0.8,2.7,1.2
							c0.6,0.3,1.3,0.6,1.8,0.8c0.3,0.1,0.6,0.2,0.8,0.4l0.4,0.2c0.1,0.1,0.1-0.1,0.1-0.1l0-0.2c0.1-1.1,0.2-2.2,0.3-3.3
							c0.1-0.7,0.1-1.3,0.2-2.1c0.1-0.7,0.2-1.5,0.4-2.3c0.2-0.9,0.3-1.8,0.6-2.9c0.3-1.1,0.6-2.3,1-3.7c-0.3,0.7-0.5,1.4-0.5,0.8
							c0-0.3,0.1-0.9,0.4-1.9c0.2-0.5,0.3-1.2,0.6-1.9c0.1-0.4,0.2-0.8,0.4-1.3c0.2-0.4,0.3-0.9,0.5-1.4c0.4-1,0.7-1.8,1.1-2.6
							c0.3-0.8,0.7-1.4,1-2c0.6-1.1,1-1.9,1.2-2.2c0.5-0.7,0.2,0.1-0.8,2.5c-0.8,1.8-1.2,2.7-1.2,2.6c-0.5,1.2-1,2.7-1.3,3.4
							c-0.2,0.8-0.2,0.8,0.4-0.7l0.3-1c0.8-1.9,2.3-5.4,3.7-8c1.4-2.7,2.5-4.5,1.9-3.3c2.9-5.5,1.1-2.4-1.1,1.6
							c2.5-4.6,4.6-8.2,6.9-11.7c2.2-3.5,4.6-7,7.7-11.5c-1,1.4-2.1,2.6-1.1,1.2c9.3-13.1,3.9-5.9,10-14.9c0.9-1.3,1.2-1.9,1.4-2.1
							c0.2-0.2,0.1-0.1,0.2-0.1c0,0,0.2-0.1,0.5-1c0.2-0.4,0.4-1,0.5-1.9c0.1-0.9,0.2-2.1-0.3-3.6c-0.5-1.8-1.1-2.6-1.2-3
							c-0.2-0.4-0.1-0.3,0.2,0.1c0.5,0.7,1.6,2.6,1.7,4.2c-0.2-1.4-0.7-2.7-1.4-3.9c-0.6-1.1-1.4-2.1-2.1-3.1
							c-1.5-1.8-3.1-3.4-4.3-4.9c-1.3-1.5-2.3-3-2.8-4.4c-0.1-0.3-0.2-0.7-0.2-1c0-0.2-0.1-0.3,0-0.5c0-0.2,0-0.3,0-0.3
							c0-0.1,0.1-0.2,0.1-0.3c0,0,0,0.1,0,0.2c0,0,0,0.1,0,0.1l0,0.2c0,0.6,0.2,1.3,0.5,2c-0.3-0.6-0.4-1.2-0.5-1.7l0-0.4
							c0-0.1,0,0,0-0.1c0,0,0-0.1,0-0.1c0-0.1,0.1-0.1,0.2,0l0.3,0.1l0.8,0.4l-0.6-0.4c-0.2-0.1-0.5-0.3-0.4-0.3
							c-0.1-0.1-0.2-0.2-0.3-0.3c0.3,0.1,0.5,0.3,0.8,0.4c0.6,0.3,1.1,0.6,1.5,0.9c0.9,0.5,1.4,0.8,1.3,0.9c1.4,0.7,0.9,0.3,0.8,0.1
							c-0.1-0.2,0.1-0.3,2.7,1.4c1.6,1.2,4.1,3,6.2,4.9c0.5,0.5,1,0.9,1.4,1.4c0.2,0.2,0.3,0.3,0.5,0.5l0.2,0.2c0.1,0.1,0.2,0,0.3,0
							c0.4,0,0.8,0,1.1,0c0.6-0.1,1.1-0.2,1.5-0.3c0.4-0.1,0.7-0.3,0.9-0.3c-0.4,0.2-0.8,0.4-1.2,0.5c-0.4,0.1-0.8,0.2-1.1,0.2
							c-0.4,0-0.8,0-1.2,0c-0.4,0.1-0.6-0.3-0.9-0.5c-0.2-0.2-0.3-0.3-0.5-0.5c-0.1-0.1-0.2-0.2-0.3-0.3c-0.2-0.2-0.4-0.3-0.5-0.4
							c-0.5-0.4-0.3-0.2-0.2,0c0.2,0.2,0.4,0.5,0.1,0.3c-0.3-0.2-1.1-1-3.2-2.7c0.8,0.6,1.7,1.4,2.6,2.2c0.5,0.4,1,0.9,1.4,1.4
							c0.2,0.2,0.4,0.4,0.6,0.6l0.2,0.2c0.1,0.1,0.1,0.1,0.2,0.1l0.5,0c0.3,0,0.6,0,0.9,0c0.2,0,0.5,0,0.7-0.1c0.3,0,0.2,0-0.2,0.1
							c-0.2,0.1-0.4,0.1-0.6,0.1c-0.3,0-0.7,0-1.1,0c0.3,0,0.7,0,1,0c0.2,0,0.4,0,0.7,0c0.4-0.1,0.9-0.2,1.2-0.3
							c0.4-0.2,0.7-0.3,1.1-0.5c0.3-0.2,0.6-0.4,0.9-0.6c0.3-0.2,0.5-0.4,0.7-0.6c0.2-0.2,0.4-0.4,0.6-0.6c0.3-0.4,0.5-0.7,0.8-1.1
							c0.7-1.3,1-2.1,1.1-2.9c0.2-0.8,0.3-1.6,0.4-3.1c0-0.4,0-0.8,0-1.2c0-0.5-0.1-1-0.1-1.5c-0.2-1.1-0.4-2.5-1.2-4.1
							c0.4,0.8,0.2-0.1-0.3-1.2c-0.6-1.1-1.5-2.6-2.1-3.5c1.5,2.2,1.7,2.8,1.3,2.3c-0.4-0.5-1.5-2-3-3.9c-2.3-3.4-3.4-5.2-4.1-6.7
							c-0.2-0.4-0.3-0.7-0.5-1.1l-0.1-0.3l-0.1-0.3c-0.1-0.2-0.1-0.4-0.2-0.6l0-0.2c0,0-0.1-0.2,0-0.1c0.1,0,0.2,0.1,0.4,0.1
							l-0.3-0.1c0,0-0.1-0.1-0.1,0l0,0.2c0,0.2,0,0.4,0.1,0.6c0,0.2,0.1,0.4,0.2,0.6c0.1,0.3,0.2,0.7,0.4,1.1
							c-0.1-0.2-0.2-0.4-0.3-0.6c-0.1-0.2-0.2-0.4-0.3-0.7c-0.1-0.2-0.1-0.5-0.2-0.7c0-0.1-0.1-0.3-0.1-0.4l0-0.2l0-0.1l0.1,0
							c0.3,0.1,0.6,0.1,1,0.2c0.2,0.1,0.3,0.1,0.5,0.2l0.3,0.1c0.1,0,0.3,0.1,0.4,0.1c1.1,0.4,2.3,1,3.5,1.7
							c0.2,0.2-0.9-0.5-1.9-0.9c-1-0.5-1.8-0.8-0.9-0.4c0.7,0.2,1.4,0.6,2.1,0.9c0.7,0.4,1.4,0.8,2,1.3c1.3,1,2.6,2.2,3.7,3.6
							c1.1,1.4,2.1,3,2.9,4.7c0.2,0.4,0.4,0.9,0.5,1.3l0.2,0.7c0.1,0.2,0.2,0.7,0.3,1c0.2,0.8,0.3,1.7,0.5,2.5
							c0.1,0.8,0.3,1.6,0.4,2.4l0.1-0.1c0,0,0.1,0,0.1-0.1l0.2-0.4c0.2-0.3,0.3-0.5,0.5-0.8c1.6-2.5,1.7-2.6,1.8-2.6
							c0,0,0.1,0.1,0.3-0.2c0.1-0.1,0.3-0.4,0.5-0.8c0.1-0.2,0.3-0.5,0.6-1c2.4-4.4,3.7-6.8,5-9.2c1.3-2.5,2.6-5,4.6-9.8
							c-0.7,1.3-1.1,2.1-1,1.7c0.1-0.4,0.8-2,2.1-5.4c-2.1,5.3-4.5,10.6-7.1,15.7c1.6-3.3,3.1-6.7,4.5-10.1
							c-2.1,4.8-4.6,10-6.1,12.7c2.3-4.7,2.1-4.2,0.8-2.1c3.6-6.1,6-12.7,9.2-20.3l0.5,0.4c1.2-2.9,2.1-5.6,3-8.4
							c0.4-1.4,0.8-2.9,0.9-4.4c0.1-1.5,0.1-3.2-0.5-4.8c-0.3-0.8-0.7-1.6-1.3-2.2c-0.3-0.3-0.5-0.7-0.9-1c-0.4-0.3-0.7-0.6-1.1-0.8
							c-1.6-1-3.5-1.2-5.3-1c-1.8,0.2-3.5,0.8-5.2,1.6c-1.7,0.8-3.4,1.9-5,3.1c1.4-1.1,2.9-2,4.5-2.8c-0.9,0.6-3.1,1.9-5.3,3.8
							c-1.1,0.9-2.2,2.1-3.2,3.1c-1,1.1-2.1,2.1-2.9,3.1c0.2-0.5-2.1,1.8-3.7,3.3c0.3-0.1-8,8.6-8.7,9.9l-5,5.1
							c-4.3,4.8-6.6,7.7-8.8,10.6c-2.2,2.9-4.4,5.7-8.3,10.5c2.2-3-1.5,1.2,3.7-5.3c-1.3,1.6-2.6,3.1-3.5,4.3
							c-0.9,1.1-1.5,1.9-1.5,2c-1.6,1.8-6.9,9.2-9.4,12.1c-1,1.4-1.2,2-4,5.7c-0.3,0.4-0.1-0.1-0.1-0.1c0,0-0.2,0.4-0.6,0.9
							c-0.4,0.5-0.8,1.1-1.3,1.6c-0.8,1-1.3,1.6,0.1,0.2c-1.1,1.1-2.4,2.3-3.8,3.4c-1.5,1-3.2,2-5.1,2.3c-1.9,0.3-4,0-5.7-1.1
							c-1.7-1.1-3.1-2.8-4-4.7c-1.9-3.8-1.4-8.3-0.4-11.9c1-3.7,2.5-6.9,3.6-9.5c3.2-8.5,6.9-18.7,9.7-26.5
							c-0.1,0.5,0.1,0.1-0.5,1.5c2-5.3,2.4-7,2.9-8.9c0.5-1.9,1.1-3.9,3.2-10c2.4-6.1-2,6.5-0.6,2.7c1.2-1.5,4.8-14.8,7.7-23l-0.6,2
							c2.2-6.3,4.4-15.6,7.4-26c0,0-0.1,0.5,0.1,0.1c0.8-3.6,2.1-8.8,3.5-14.4c0.7-2.8,1.5-5.7,1.8-8.6c0.4-2.9,0.4-5.8,0-8.4
							c0.2,0.8,0.3,1.5,0.3,2.1c0.1,0.6,0.1,1,0.1,1.3c0,0.5,0.1,0.4,0.2-0.6c-0.1-2.4-0.3-2-0.4-2.3c-0.1-0.1-0.2-0.4-0.3-1.2
							c-0.2-0.8-0.4-2.2-1.5-4.3c-0.2-0.4-0.4-0.7-0.6-1.2c-0.2-0.4-0.6-0.8-0.9-1.3c-0.4-0.4-0.8-0.8-1.2-1.2
							c-0.5-0.3-1-0.7-1.5-0.9c-2-1.1-4.2-1.1-4.6-1.2c3.2-0.2,6.4,1.2,8.3,3.8c-0.4-0.5-0.7-1.1-1.3-1.5c-0.3-0.2-0.5-0.5-0.8-0.7
							c-0.3-0.2-0.6-0.4-0.9-0.6c-0.3-0.2-0.7-0.3-1-0.5c-0.4-0.1-0.7-0.3-1.1-0.4c-0.4-0.1-0.8-0.2-1.1-0.2
							c-0.4-0.1-0.8-0.1-1.2-0.1c-1.6,0-3.1,0.4-4.5,1c-1.3,0.6-2.5,1.4-3.4,2.2l0.4-0.5c-1.4,1.1-2.5,2.2-3.4,3.2
							c-0.9,1-1.6,2-2.2,2.9c-1.2,1.8-2,3.4-2.7,5.1c-0.8,1.6-1.5,3.2-2.5,5.3c-0.9,2.1-2,4.6-3.5,7.9c0.2-0.5,0.5-0.9,0.7-1.3
							c-1.4,3.7-2,5.3-2.7,6.8c-0.7,1.5-1.3,3-2.5,6.8l-1.2,2.1c-0.8,2.5-2.2,6.8-3.7,11.7c-1.5,4.9-3.1,10.2-4.5,14.7
							c1.3-5.1,4.5-15.6,6.5-22.1c-1.7,4.9-5.4,16.8-6.1,19.4c0.6-2,1.3-4.5,2-6.5c-1.7,6.1-4,14.2-7.3,23.9c0-0.5-0.6,0.8-1.5,3.2
							c-0.5,1.2-1,2.6-1.6,4.2c-0.6,1.6-1.3,3.4-2,5.2c-0.8,1.8-1.5,3.7-2.3,5.5c-0.8,1.8-1.7,3.6-2.5,5.3c-1.6,3.3-3.2,6.1-4.2,7.7
							c-1.1,2-2.2,3.9-3.4,5.9c-1.2,1.9-2.5,3.8-3.7,5.7c-1.2,1.9-2.6,3.8-4.2,4.9c-0.8,0.5-1.8,0.8-2.8,0.7c-1,0-2-0.4-2.8-0.9
							c-1.8-1-3.2-2.8-3.9-4.9c-0.7-2.1-0.7-4.4-0.5-6.8c0.2-2.4,0.7-4.9,1.1-7.4c0.4-2.5,0.8-5.1,1.2-7.7c-1.7,7.4,0.9-6.2,0.1-4.9
							c0.6-4.9,0.9-6.8,1-7.2c0.8-4.9,1.5-9.9,2.2-14.9c0.6-3.5-0.4,4.7-0.2,4.3c1.3-10.8,0.8-4.5,1.7-11.6
							c-0.4,1.4,0.1-3.8,0.7-9.9c-0.4,2.9-0.7,5.8-1.1,8.6c0.6-7.6,1-10.8,1.4-14.1c0.4-3.3,0.8-6.6,1.2-14.2l-0.2,4.8
							c0.2-3.9,0.7-11.1,1-18.4c0.2-3.6,0.3-7.2,0.3-10.4c0-3.2,0-5.9,0-7.9c0.1-1.4,0.3-3.2,0.3,0.2c0.1-4.7,0.2-9.6,0.2-14.7
							c0-2.5,0-5,0-7.6c0-2.5,0-5-0.2-7.6c-0.2-2.5-0.7-5.1-1.9-7.4c-1.2-2.3-3.1-4.2-5.5-5.1c-1.2-0.5-2.4-0.7-3.7-0.6
							c-1.2,0.1-2.4,0.5-3.4,1.1c-2,1.2-3.2,3.1-4.2,4.7c0.2-0.5,0.4-0.9,0.6-1.4c-2,3.2-2.3,5.9-3.8,10c0-0.2,0.3-1.4-0.2,0.2
							c-0.5,1.8-2.5,9-3.8,13.4l0.9-3.9c-2.6,8.8-4.2,15.6-5.6,22.1c-1.4,6.5-2.5,12.7-3.8,20.3c-0.2-0.1-1,3.4-1.8,7.9
							c-0.4,2.2-0.8,4.7-1.2,7c-0.3,2.3-0.7,4.6-0.9,6.3l0-0.3c-1.4,10.6-2,19.6-2.5,28.5c-0.6,8.8-1,17.4-2.7,27.1
							c-0.7,3-1.6,6.9-3.1,11.4c-0.3,1.1-0.8,2.3-1.2,3.4c-0.4,1.2-0.9,2.3-1.4,3.5c-1.1,2.3-2.6,4.5-4.6,6c-1,0.7-2.1,1.3-3.3,1.4
							c-1.2,0.2-2.4,0-3.6-0.5c-2.3-1-4.1-3.2-5.4-5.5c-1.3-2.4-2.3-4.9-3-7.5c-0.4-1.3-0.8-2.5-1.1-3.8c-0.2-0.6-0.4-1.2-0.5-1.8
							c-0.2-0.6-0.3-1.2-0.4-1.8c0.6,2.9-0.4-0.4-1.3-3.7c-0.6-2.2-1.2-5.3-1.7-7.8c-0.3-1.2-0.5-2.3-0.6-3c-0.1-0.7-0.1-1.1,0-0.9
							c0.1,0.5,0.2,1.1,0.3,1.6c-0.1-1.7-0.5-4.9-1.1-8.6c-0.3-1.8-0.5-3.8-0.7-5.8c-0.2-2-0.5-3.9-0.7-5.8l-0.6-1.2
							c-0.6-9.6-1.5-22.3-2.5-33.8c-1-11.6-2.3-22-2.9-27.3c-0.2-1.2-0.4-2.4-0.6-3.6c-0.3-1.3-0.5-2.5-0.8-3.8
							c-0.3-1.3-0.5-2.6-0.8-3.8c-0.3-1.2-0.6-2.4-0.9-3.6l0.3,0.2c-0.8-3.2-1.4-6-2.2-8.5c-0.4-1.3-0.8-2.5-1.1-3.8
							c-0.4-1.2-0.7-2.5-1.3-3.8c-0.6-1.3-1.4-2.7-2.8-3.7c-0.3-0.3-0.7-0.5-1.1-0.7c-0.4-0.2-0.8-0.4-1.2-0.5
							c-0.5-0.1-0.9-0.2-1.4-0.2l-0.7,0c-0.2,0-0.5,0.1-0.7,0.1c-1.9,0.4-3.5,1.7-4.7,3.1c-1.2,1.5-2.2,3.2-3,5.1
							c0.4-1.1,0.8-2.2,1.4-3.2c-1.3,2.1-1.9,4-2.3,5.6c-0.2,0.8-0.3,1.6-0.4,2.4c-0.1,0.7-0.1,1.4-0.2,2.1
							c-0.2,2.8-0.3,5.5-0.7,9.6c-0.2,0.8-0.4,1.6-0.6,2.5c-1.1,15.8-0.3,32,3.2,47.3c-0.1-0.2-0.3-0.7-0.8-3.2
							c0.7,3.7,2.1,10.7,3.5,16.5c1.4,5.7,2.7,10.2,2.6,8.8c-0.2,0.1,0.8,4.1,2.1,9c1.3,4.9,2.8,10.9,3.7,15l-0.5-1.2
							c0.9,3.5,1.3,5.3,1.8,7.4c0.4,2.2,0.9,4.7,1.5,9.6c0.1,1.2,0.1,1.7,0,1.5c-0.1-0.2-0.1-1-0.3-2.6c0.2,2,0.3,3.3,0.4,4.4
							c0.1,1.1,0.2,1.9,0.3,2.8c0.1,1.7,0.4,3.7,0.2,8.5l-0.2-3.6c0,2,0,3.5,0,4.6c0,1.1-0.1,2-0.1,2.7c0,0.7,0,1.3,0,2
							c0,0.7-0.1,1.5-0.1,2.6c-0.1,1.3-0.2,2.9-0.5,4.5c-0.1,0.8-0.3,1.7-0.4,2.6c-0.1,0.9-0.3,1.7-0.5,2.5
							c-0.2,0.8-0.3,1.6-0.5,2.3c-0.2,0.7-0.4,1.4-0.5,2c-0.3,1.2-0.6,2-0.7,2.3c-0.1,1.1-1.1,5.4-2.7,9.9c-0.3,0.6,0.2-1.1,0.4-1.9
							c-2.3,6.4-4.3,11-6.2,15c-2,4-3.9,7.5-6.6,11.3c-0.2,0.1-0.6,0.6-1,1.2c3.1-4.4,5.4-8.7,7-11.6c1.5-3,2.4-4.8,2.2-4.4
							c-0.2-0.1-4.1,7.6-1.4,1.3c-0.4,0.8-0.7,1.6-1.2,2.6c-0.5,0.9-0.9,1.8-1.4,2.8c-0.3,0.5-0.5,1-0.8,1.5c-0.3,0.5-0.6,1-0.9,1.5
							c-0.6,1-1.2,2.1-1.8,3.1c-2.5,4.2-5.6,8.3-8.3,11.5c-0.3,0.3-0.6,0.6-0.8,0.8l0.5-0.7c-1.3,1.5-2.4,2.7-3.6,3.6
							c-2,1.4-3.6,1.9-5.9,1.9c-0.1,0-0.3,0-0.7-0.1c-0.3,0-0.7-0.1-1.2-0.2c-0.9-0.2-2.2-0.5-3.4-1c-2.6-1-5.3-2.8-6.9-4.1
							c0.1,0.5-4.2-3.1-0.3,0.4c-0.5-0.5,0.6,0.5,3,2.1c0.6,0.3,1.2,0.7,1.6,0.9c-0.1,0-0.2-0.1-0.3-0.1c1.2,0.7,2.7,1.4,4.3,1.9
							c1.6,0.5,3.5,0.8,5.5,0.5c-3.1,0.6-6.8-0.2-10.7-2.8c-2-1-4-2.3-5.1-3.2c-4.3-4.1-12.4-12.2-13.3-13.6
							c-4.8-4.6-10.2-10.2-15.1-15.5c-4.9-5.3-9.2-10.3-12-13.4c-2.4-2.9-2.6-3.5-3.4-4.6c1.4,1.7,3,3.7,3.8,4.6
							c-1.2-1.4-2.7-3.3-4.2-5.2c-1.5-1.9-3.2-4-4.8-5.9c-1.6-1.9-3.2-3.5-4.5-4.7c-1.3-1.2-2.4-1.9-2.8-2.1c-1.9-1.5-2.7-1.9-2.8-2
							c-0.1-0.1,0.4,0.1,0.8,0.4c0.4,0.2,0.7,0.4,0.2,0.1c-0.5-0.3-1.8-1.3-5-2.4c0.6,0.2,1.2,0.4,1.7,0.6c-3-1.4-6.2-2.1-9.4-2
							c-3.1,0.2-6.2,1.2-8.5,3.3c-1.1,1.1-2,2.5-2.3,4.1c-0.2,1.6,0.2,3.1,0.7,4.4c0.6,1.3,1.2,2.5,1.8,3.7c0.6,1.2,1.2,2.4,1.8,3.6
							c4.9,9.6,9.9,19.6,15.8,32.6c-0.8-1.8-1.2-2.7-1.4-3.1c7,14.7,14.2,29.9,21.9,44.7c3.9,7.4,8,14.7,12.3,21.8
							c4.3,7.1,8.9,13.9,13.6,20.4c1.4,1.8,2.4,3.3,3.4,4.4c0.9,1.1,1.7,2,2.3,2.8c1.3,1.6,2.5,2.8,4.4,4.9l1.1,1.7
							c2.2,2.3,4.4,4.6,6.6,6.9c4.7,4.8,8.8,9.1,13.3,13.5c4.5,4.4,9.6,8.9,16.5,14l-1.6-1.5c1.2,0.9,2.8,2.2,4.5,3.4
							c1.7,1.2,3.5,2.6,5.1,3.7c3.3,2.3,5.9,3.9,5.4,3.7c0.6,0.3,1.8,0.9,3.8,2.2l0.1,0.2c4.4,2.5,9,4.6,13.8,6.4
							c2.8,1,4,1.5,4.6,1.7c0.6,0.2,0.5,0.3,0.6,0.4c0.1,0.1,0.3,0.2,1.6,0.7c0.6,0.2,1.5,0.4,2.8,0.7c1.3,0.3,2.9,0.6,5.1,0.9
							c3.2,0.3,7.8,0.4,11.3-0.1c0.9-0.1,1.6-0.3,2.3-0.4c0.7-0.1,1.2-0.3,1.7-0.4c0.9-0.2,1.1-0.3,0.5-0.2
							c-1.3,0.2-2.9,0.5-4.3,0.6c-1.4,0.1-2.4,0.1-2.5,0l2.9-0.3l2.9-0.5c0.5-0.3,1.8-0.8,1.2-0.9c-0.3,0-1,0-2.6,0.1
							c-0.4,0-0.8,0.1-1.3,0.1c-0.5,0.1-1,0-1.6,0.1c-0.6,0-1.3,0.1-2,0.1c-0.7,0-1.5,0-2.4,0c-3.2,0.1-6.5-0.2-9.7-0.7l-3-0.9
							c1.3,0.3,2.7,0.6,4,0.9l2,0.3c0.7,0.1,1.3,0.2,2,0.2c-1.2-0.1-2.2-0.4-3.1-0.5c-0.5-0.1-0.9-0.1-1.4-0.2
							c-0.4-0.1-0.9-0.2-1.3-0.3c-0.9-0.2-1.7-0.3-2.5-0.5c-0.8-0.2-1.6-0.4-2.4-0.6c-0.4-0.2-0.9-0.4-1.5-0.6
							c-0.6-0.3-1.4-0.6-2.3-0.9c-1.5-0.4-3-1-4.5-1.6c-1.5-0.6-3-1.2-4.5-1.8c-0.5-0.4,0.5,0.1,0.9,0.2c0.4,0.1,0.2,0-2.6-1.6
							c-2-0.9-1.1-0.4-0.5,0.1c0.3,0.2,0.5,0.4,0.2,0.3c-0.3-0.1-1.1-0.4-2.7-1.3c-2-1.2-2.7-1.8-3.4-2.3c-0.8-0.5-1.7-1-4-2.5
							c-0.6-0.5,0.4,0.1,2.3,1.2c-4.3-2.5-10.7-7.4-12.9-8.8c-1-0.8-2.2-1.8-3.6-3c-1.4-1.1-2.9-2.3-4.2-3.5
							c-2.7-2.2-4.7-4.2-4.4-4.2c-1.3-0.9-6.7-5.6-9.9-8.7c3.2,2.7,0.1-0.2-3.4-3.8c-3.5-3.6-7.3-7.9-6.4-7.3
							c-2.2-2.1-5.9-6.2-9.8-11c-3.9-4.8-7.9-10.1-11.1-14.6c0.4,0.5,1.1,1.4,1.7,2.2c-1.7-2.5-2.8-4.2-3.7-5.6
							c-0.9-1.4-1.7-2.7-2.7-4.3c-0.4-0.2-1.9-2.3-3.6-4.9c-1.7-2.6-3.6-5.7-5-7.9c-3.4-6.7,2.7,3.7,1.8,1.5c0,0.2-1.7-2.5-3.3-5.1
							c-1.5-2.6-2.9-4.9-2.4-3.8c-2.5-5.2-2.2-4.4-3.3-7.2c-0.9-0.7-2.5-4.7-4.9-8.8c-3.5-7.6-0.6-2.1-4.7-10.3
							C95.3,285.4,99,292.6,99,292.6z M173.2,282.5L173.2,282.5c-1.2,1.5-2.2,2.7-2.9,3.5C170.9,285.3,171.7,284.3,173.2,282.5z
							 M183.5,267.3c-0.5,1-1.2,2-1.9,3.2c-0.3,0.6-0.7,1.2-1.1,1.8c-0.4,0.6-0.8,1.2-1.2,1.8c-0.4,0.5-0.1-0.2,0.9-1.7
							C179.8,273.3,182.1,269.7,183.5,267.3z M155.7,287.8c1.3,0.5,2.1,0.7,2.7,0.8c0.6,0.1,0.9,0.2,1.1,0.2
							c-1.2-0.1-2.7-0.4-4.6-1.2c-0.1,0-0.2-0.1-0.3-0.1C154.9,287.6,155.2,287.6,155.7,287.8z"/>
						<path class="st1" d="M151.1,285.8c-0.4-0.2-0.5-0.3-1-0.6c0.5,0.3,0.9,0.7,1.4,1c0.3,0.1,0.6,0.3,0.9,0.4
							C152,286.4,151.5,286.1,151.1,285.8z"/>
						<path class="st1" d="M183.5,264.2l0.4,0.1c-0.3-0.1-0.6-0.2-0.8-0.3C183.3,264.2,183.3,264.2,183.5,264.2z"/>
						<polygon class="st1" points="202.8,103.2 202.9,103.2 202.6,101.6 						"/>
						<path class="st1" d="M274.4,286.2c0.1,0.1,0.4,0.4,1,0.9C275.4,287.1,275,286.7,274.4,286.2z"/>
						<path class="st1" d="M310.3,311c1.7,1.1,3.5,2.2,5.2,3.2C313.3,312.8,311.6,311.8,310.3,311z"/>
						<path class="st1" d="M341.3,317.1c0.2-0.3,0.2-0.4,0.2-0.4c0,0,0,0,0,0L341.3,317.1z"/>
						<path class="st1" d="M383.1,197.3c-0.1-0.7-0.2-1.4-0.4-2.1c0-0.1,0-0.2,0-0.2c0,0,0.1,0,0.2,0c0.1,0,0.3,0.1,0.4,0.1
							c0.2,0,0.4,0.1,0.6,0.1c0.4,0.1,0.6,0.1,0.8,0.2c0.3,0.1,0.2,0-0.1,0c-0.3-0.1-0.9-0.2-1.6-0.4l-0.1,0c0,0-0.1,0-0.1,0
							c0,0.1,0,0.2,0.1,0.3c0,0.2,0.1,0.4,0.1,0.6C383,196.4,383,196.8,383.1,197.3z"/>
						<path class="st1" d="M346.1,304.7c0.1-0.8,0.3-1.7,0.4-2.5c0.1-0.8,0.3-1.7,0.5-2.5c-0.1,0.3-0.2,0.7-0.3,1
							c-0.1,0.3-0.1,0.6-0.2,0.9c-0.1,0.6-0.2,1.1-0.3,1.6C346.1,304.1,346,304.6,346.1,304.7z"/>
						<path class="st1" d="M352.5,226.1C352.5,226.1,352.5,226.1,352.5,226.1c-0.2,0.3-0.4,0.5-0.7,0.8L352.5,226.1z"/>
						<path class="st1" d="M349.2,292.6c-0.5,1.3-0.9,2.6-1.3,3.7c-0.3,1.2-0.6,2.3-0.9,3.4c0.3-1.1,0.7-2.3,1-3.6
							C348.5,294.9,348.9,293.7,349.2,292.6z"/>
						<path class="st1" d="M270.4,420.5l-1.6,0.2c0,0-0.1,0-0.2,0.1L270.4,420.5z"/>
						<path class="st1" d="M268.6,420.7l-1.8,0.2C267.7,420.9,268.4,420.8,268.6,420.7z"/>
						<path class="st1" d="M263.1,421.3c1.2-0.1,2.5-0.2,3.7-0.3C265.6,421.1,264,421.2,263.1,421.3z"/>
						<path class="st1" d="M306.5,398.7l0.2-0.5C306.5,398.4,306.5,398.6,306.5,398.7z"/>
						<path class="st1" d="M313.6,387.3c-1.7,2.7-4.3,6.8-6.8,10.5l-0.2,0.4C307.7,396.4,312.2,390,313.6,387.3z"/>
						<path class="st1" d="M340.6,338c-1.3,3.6-2.8,7-4.4,10.4c0.9-1.7,2.1-4.1,0,0.6c1.6-3.2,2.2-4.7,2.5-5.3
							c0.2-0.6,0.1-0.3-0.1,0c-0.2,0.3-0.3,0.6-0.1-0.1C338.6,343.1,339.3,341.5,340.6,338z"/>
						<path class="st1" d="M337.4,318.3c1.3-0.7,1.8-1.2,2-1.3c0.2-0.2,0-0.1-0.2,0.1c-0.5,0.4-1.8,1-1.6,0.9
							c-1.6,0.9-2.7,1.1-2.8,1.1c-0.1,0,0.1,0,0.6-0.1C335.7,318.9,336.4,318.7,337.4,318.3z"/>
						<path class="st1" d="M251.3,250.3c-0.1,0-0.3,0-0.3,0c0.7,0.6,1.1,0.9,1.2,1c0.2,0.1,0.1,0-0.1-0.1c-0.2-0.2-0.4-0.4-0.6-0.6
							C251.3,250.4,251.3,250.4,251.3,250.3C251.3,250.3,251.3,250.3,251.3,250.3z"/>
						<polygon class="st1" points="290.5,278.5 286.8,275.8 284.9,274.7 						"/>
						<path class="st1" d="M313.9,294.9l-1.8-1c2.3,1.3,4.6,2.5,6.9,3.7L313.9,294.9z"/>
						<path class="st1" d="M325.1,222.5c-0.2,0.4-0.4,0.8-0.6,1.3c-0.3,1.5-0.3,2.4-0.2,2.4C324.4,226.1,324.5,225,325.1,222.5z"/>
						<path class="st1" d="M331.9,108.5c-0.5,0.9-1.2,2.5-2,4.3c-0.7,1.8-1.5,3.7-2,5.3c0.7-1.9,1.6-3.8,2.2-5.5
							C330.9,110.9,331.5,109.5,331.9,108.5z"/>
						<polygon class="st1" points="209.8,151.4 210.2,155 209.6,148.1 						"/>
					</g>
				</g>
			</g>
		</g>
	</g>
	<g>
		<g>
			<g>
				<g>
					<g>
						<path class="st1" d="M128.1,267.1c0.1-0.1,0.1-0.3,0-0.2l-0.1,0.3L128.1,267.1z"/>
						<path class="st1" d="M127.7,266.4c-0.1,0.1-0.3,0.4-0.3,0.7c0.2-0.3,0.2-0.2,0.3-0.5c0.1,0,0.1,0.1,0.1,0.3
							c0.1-0.1,0.1,0.1,0.2-0.1c0-0.3-0.2-0.3-0.4-0.1C127.6,266.5,127.7,266.4,127.7,266.4z"/>
						<path class="st1" d="M119.5,266.5L119.5,266.5C119.5,266.5,119.5,266.5,119.5,266.5z"/>
						<path class="st1" d="M115,269.2C115,269.2,115,269.1,115,269.2C114.9,269.2,114.9,269.2,115,269.2z"/>
						<path class="st1" d="M114.1,269.6C114.1,269.6,114.1,269.6,114.1,269.6C114.1,269.6,114.1,269.6,114.1,269.6z"/>
						<path class="st1" d="M119.5,266.5l-0.2,0C119.3,266.5,119.4,266.5,119.5,266.5z"/>
						<path class="st1" d="M126.5,266.9C126.5,266.9,126.5,266.9,126.5,266.9C126.5,266.9,126.5,266.9,126.5,266.9L126.5,266.9z"/>
						<path class="st1" d="M121.6,265.5L121.6,265.5c0,0,0-0.1,0-0.1L121.6,265.5z"/>
						<path class="st1" d="M123.4,265.2c0,0,0,0.3,0,0.4c0-0.1,0-0.2,0.1-0.2C123.5,265.4,123.4,265.3,123.4,265.2z"/>
						<path class="st1" d="M126.2,265.8L126.2,265.8C126.3,265.7,126.3,265.7,126.2,265.8z"/>
						<path class="st1" d="M120.4,265.8C120.3,265.8,120.3,265.7,120.4,265.8C120.3,265.8,120.3,265.8,120.4,265.8z"/>
						<path class="st1" d="M118.8,260.4C118.8,260.4,118.8,260.4,118.8,260.4C118.8,260.4,118.8,260.4,118.8,260.4z"/>
						<polygon class="st1" points="121.1,259.6 121.1,259.6 121.2,259.7 						"/>
						<path class="st1" d="M112.7,270.7L112.7,270.7C112.7,270.7,112.7,270.7,112.7,270.7z"/>
						<path class="st1" d="M106.5,279.4c-0.2,0.3-0.3,0.2-0.6,0.6C106.1,279.9,106.4,279.6,106.5,279.4z"/>
						<path class="st1" d="M126.4,266.9C126.4,266.9,126.4,266.9,126.4,266.9C126.4,266.9,126.4,266.9,126.4,266.9z"/>
						<path class="st1" d="M106,280L106,280L106,280C106,280,106,280,106,280z"/>
						<path class="st1" d="M110.8,274c0,0,0.1,0,0.1,0C110.9,274,110.9,274,110.8,274z"/>
						<path class="st1" d="M112.6,271.8L112.6,271.8C112.6,271.9,112.6,271.9,112.6,271.8z"/>
						<path class="st1" d="M110.4,275.4C110.4,275.4,110.3,275.4,110.4,275.4C110.4,275.5,110.4,275.5,110.4,275.4
							C110.4,275.4,110.4,275.4,110.4,275.4z"/>
						<path class="st1" d="M109.7,276.6C109.7,276.6,109.7,276.7,109.7,276.6L109.7,276.6L109.7,276.6z"/>
						<path class="st1" d="M116.2,263.9c0.1,0,0.2,0.1,0.2,0.1C116.2,263.9,116.3,263.7,116.2,263.9z"/>
						<path class="st1" d="M126.5,266.8c0,0.1,0,0.1-0.1,0.1l0,0C126.5,266.8,126.5,266.8,126.5,266.8z"/>
						<path class="st1" d="M112.3,276.6l-0.2,0.2C112.2,276.7,112.2,276.7,112.3,276.6z"/>
						<path class="st1" d="M108.6,271L108.6,271C108.6,271,108.6,271,108.6,271z"/>
						<path class="st1" d="M111.8,277.4c-0.1,0-0.2,0-0.2,0c0,0,0,0,0,0.1L111.8,277.4z"/>
						<path class="st1" d="M116.4,264L116.4,264L116.4,264z"/>
						<path class="st1" d="M116.9,262.4c-0.1,0.2,0.2,0.3,0.3,0.5c-0.1,0.3-0.3-0.1-0.5-0.1c0,0.2,0.1,0.5,0.1,0.6
							c-0.1,0-0.1,0-0.1-0.1c0.1,0.3-0.3,0.4-0.2,0.8c0,0-0.1,0-0.1,0c0.2,0.1,0.3,0.2,0.4,0.3c-0.1,0.1,0.1,0.3-0.2,0.2
							c0,0,0-0.1-0.1-0.2l0,0.1c-0.3-0.2,0-0.2-0.2-0.4c0,0.2,0,0.6-0.2,0.6c-0.3-0.2,0.2-0.3-0.2-0.4l0.3-0.1
							c-0.5-0.2,0.1-0.1-0.4-0.3c-0.3,0.2-0.1,0.4-0.4,0.5c0.1,0.2,0.2,0.2,0.3,0.4c-0.1,0.6-0.9-0.3-0.8,0.2
							c0.1,0.2,0.4,0.5,0.1,0.5l-0.2-0.3c-0.2,0.2,0.3,0.5-0.1,0.6c-0.1-0.1,0.1-0.3,0-0.3c-0.4-0.1,0.1,0.3-0.1,0.4l-0.3-0.2
							c-0.2,0.3-0.3,0.7-0.5,1c-0.1-0.1-0.1-0.2-0.2-0.2c-0.2,0.4-0.7,0.6-1.2,0.8l0.1,0.3c0,0-0.1,0-0.2-0.1
							c-0.2,0,0.1,0.1,0.1,0.3c-0.1,0.1-0.2,0-0.2-0.1c0,0.4-0.3,1-0.7,0.9l0-0.1c-0.3,0.1,0.2,0.6-0.2,0.6l0-0.1
							c-0.5,0.3-0.8,0.8-1.4,0.8c0.2,0.4-0.5,0.2-0.2,0.7c-0.4,0-0.4-0.2-0.9,0c-0.1,0.1,0.1,0.4,0,0.5l-0.2-0.2l0.1,0.4l-0.3-0.2
							l-0.1,0.2c0.1,0,0.2,0,0.2,0.1c-0.1,0.2-0.5,0.2-0.7,0.1l-0.2,0.6c-0.1-0.1,0-0.2,0-0.3c0,0.4-0.3-0.2-0.2,0.2
							c0.1,0,0.1,0.1,0.2,0.2c-0.2,0-0.4,0.2-0.5,0.4l-0.1-0.2c-0.3,0.3-0.5,0.7-0.8,1c0.2-0.1,0.4,0.2,0.4,0.3l-0.3-0.2
							c0.1,0.2,0.2,0,0.3,0.3c-0.1,0.1-0.4-0.1-0.4-0.3l0,0.2c-0.1,0-0.1-0.1-0.2-0.2c0.1,0.2-0.5,0.1-0.3,0.4l-0.1,0
							c-0.3,0.4-0.3,0.6-0.5,1c0.2,0.1,0.1,0.2,0.3,0.5c-0.2,0.2-0.6,0.4-0.7,0.7c0,0.3,0.2,0.2,0.3,0.3c-0.2-0.1-0.3,0.2-0.5,0
							c-0.1,0.4-0.1,0.5-0.1,1.1c0.1,0,0.2-0.1,0.3,0c0,0.1-0.2,0.2-0.3,0.1l0,0c0.2,0.6-1,1.1-0.5,1.8l0,0c0.1,0.3,0.2,0.5,0.3,0.7
							c0,0.3-0.2-0.1-0.3,0.1c0.2,0.3,0.3,0.6,0.3,0.9c0,0.3,0.1,0.6,0.2,0.7c-0.2,0.5,0,0.9,0.2,1.2c0.2,0.3,0.4,0.6,0.5,1.2
							l0.1-0.3c0.2-0.1,0,0.3,0.1,0.5c0.1-0.2,0-0.3,0.1-0.4l0.1,0.1c0.6-0.5,1.1-0.8,1.7-1.1c0.6-0.2,1.2-0.7,1.9-1.2
							c0.3-0.2,0.1-0.4,0-0.6c-0.1-0.2-0.2-0.3,0.1-0.3l0.2,0.3c0.2-0.8,0.9-1.1,1-1.9c0,0.1,0.1,0.1,0.1,0.2c0.3,0,0.3-0.4,0.1-0.5
							c0.1-0.1,0.2,0.1,0.3,0.1c0.2,0-0.1-0.5,0.2-0.4c0,0,0,0.1,0,0.1c0-0.1,0.3-0.3,0-0.4c0.2-0.1,0.2-0.5,0.4-0.5
							c-0.2-0.3,0.3-0.3,0-0.5c0.4,0.3,0.5-0.2,0.4-0.4c0.1,0.1,0.2,0,0.3,0.1c0.1-0.2,0.1-0.3-0.1-0.4c0.6,0,0-0.8,0.6-0.6
							c0.1-0.6,0.2-1,0.3-1.5c0.4,0.3-0.2,0.5,0.2,0.7c0.1-0.5-0.1-0.9,0.2-1.2c0.1-0.1,0.1,0.2,0.2,0.2c0.1-0.5,0.5-0.7,0.5-1.1
							c0,0,0,0.1,0.1,0.1c0-0.1,0.2-0.1,0-0.2l0,0.1c-0.3-0.1-0.3-0.6-0.5-0.7c0.4,0.4,0.3-0.2,0.8,0.4c0-0.1,0-0.2-0.2-0.2
							c0.1,0,0.2,0,0.2,0.1c0.1-0.3-0.2-0.3,0-0.5c0.1,0.1,0.1,0.1,0.2,0.2c-0.1-0.2-0.2-0.4,0-0.5c0,0,0.1,0.1,0.1,0.1
							c0.2-0.3,0-0.8,0.4-0.9c0.2,0.4,0.2,0,0.5,0.2l0.1-0.2l-0.2-0.1c0.1-0.1,0-0.4,0.2-0.5l0,0.2c0.1-0.1,0.1-0.2,0.2-0.3l-0.2,0
							c0-0.3-0.3-0.3-0.1-0.4c0,0.1,0.1-0.1,0.4,0l0,0c0-0.1,0-0.3,0.1-0.3c0.1,0.1,0.3,0.3,0.3,0.4c-0.1-0.3,0.3-0.3,0.1-0.7
							c0,0.1,0.1,0.2,0.2,0.3l-0.1-0.2c0.1,0,0.1,0,0.2,0.2c0.2-0.1-0.4-0.3,0-0.3c0,0,0,0.1,0,0.1c0.3-0.1,0.4-0.5,0.7-0.5
							c0.3,0.3-0.1,0.2,0.1,0.4c0.3-0.3,0.4-0.8,0.8-0.9l-0.1,0c-0.2-0.5,0.4,0.1,0.4-0.2c0,0.1,0.1,0.3,0.1,0.2
							c0.3,0,0.4-0.3,0.7-0.7l0,0.1c0.2,0,0.4-0.1,0.6-0.1c0-0.1,0.1-0.2,0-0.3c0.7,0.6,0.8-0.7,1.4-0.2c-0.1,0-0.1,0.1-0.1,0.1
							l0.3-0.2c-0.1-0.2-0.1-0.1-0.2-0.3c0-0.1,0.1-0.3,0.2-0.3c-0.1,0.2,0.1,0.4,0.2,0.5c0-0.1,0-0.1,0-0.2
							c0.3,0.4-0.1-0.5,0.3-0.2l0,0.1c0.1-0.1,0.2-0.2,0.3-0.2c0.1,0.3-0.1,0.1-0.1,0.4c0.2,0,0.2-0.5,0.4-0.3
							c-0.1,0.1-0.2,0.1-0.2,0.2c0.2,0.3,0.2,0.2,0.3,0.2l0,0c0.1,0,0.2,0.1,0.3,0.1l-0.1-0.1c0.1-0.7,0.4-0.2,0.6-0.6
							c-0.2,0.5,0,0.3,0,0.6c0.1,0.1,0.2,0.2,0.2,0.3c0.1-0.2,0.2,0.2,0.4-0.2c0,0.1,0.1,0,0.1,0.3c0.2-0.1,0-0.2,0-0.3
							c0.3-0.3,0.6,0.4,0.9,0c0.3-0.2,0.4-0.5,0.7-0.6c0.1,0.2-0.1,0.3-0.1,0.3c0.1,0.2,0.3,0.1,0.4,0.1c0,0.1,0,0.2,0,0.3
							c0.1,0,0.1-0.3,0.3-0.2c0,0.1-0.1,0.3-0.2,0.4c0.1-0.1,0.3-0.2,0.5-0.3c0,0.2-0.1,0.2-0.2,0.3c0.2,0,0.4-0.1,0.5-0.3l-0.1-0.1
							c0.1,0,0,0.2-0.1,0.3c-0.2,0.2-0.2-0.1-0.2-0.2l0.1,0c0-0.6-0.4,0-0.6-0.1l0.2-0.4c-0.1,0.1-0.2,0.2-0.3,0.3
							c0-0.1,0-0.3,0.1-0.4c-0.1-0.2-0.2,0.1-0.3-0.1c0,0,0-0.1,0-0.1l-0.2,0.1c0-0.1,0-0.3,0.1-0.2c-0.3-0.3-0.5,0.3-0.6-0.1l0,0
							c-0.4,0.1-0.1,0.3-0.4,0.6l-0.2-0.8l0,0.3c0,0-0.1,0-0.1-0.2c-0.2,0.2,0,0.1-0.1,0.3c-0.2-0.3-0.5,0.1-0.6-0.4
							c-0.1,0.2,0.2,0.2,0,0.3c-0.1-0.5-0.2,0.1-0.4-0.1c0-0.3,0.2-0.1,0-0.4c-0.1,0.5-0.3-0.1-0.5,0c0,0.4-0.3,0.2-0.5,0.3
							c0-0.1-0.5-0.1-0.7-0.2l0-0.1c0,0.4-0.2,0.4-0.4,0.5c0-0.2,0-0.3,0-0.4l-0.2,0c0,0.1-0.1,0.2-0.1,0.3l0-0.3
							c-0.2,0.1-0.4,0.4-0.7,0.3c0.1,0.2,0.4,0.6,0.2,0.9c0-0.1-0.1-0.4-0.1-0.4c0,0-0.1,0.1-0.1,0.1l0-0.3c-0.2-0.1,0,0.2-0.1,0.2
							c-0.1-0.2-0.1-0.1-0.1-0.3c0,0,0.1,0.1,0.1,0c-0.1,0-0.3-0.1-0.4-0.2c0,0.1,0.1,0.3,0,0.3c-0.2,0.1-0.1-0.2-0.3-0.3
							c0,0.1-0.2,0.1-0.1,0.3c-0.1,0-0.1-0.1-0.2-0.2c-0.1,0.2-0.5,0.2-0.3,0.5l0,0l0,0l0,0l0,0c-0.2,0.4-0.8,0.1-1,0.4l0-0.1
							c-0.1,0.2-0.4,0.3-0.4,0.5c-0.1,0-0.2-0.1-0.3-0.2c-0.1,0.2-0.1,0.3-0.4,0.2c0.1-0.2-0.1-0.1,0.1-0.2c-0.2,0-0.4-0.1-0.4,0.3
							c-0.1-0.3-0.3-0.2-0.4,0l0.2,0.1c-0.1,0.1-0.2,0.1-0.3,0.2l-0.1-0.3c-0.6-0.1-0.3,1-0.9,0.7c0.1,0.3,0.3,0,0.4,0.3
							c-0.2,0.1-0.7-0.1-0.7-0.1c-0.3,0.1,0.1,0.5-0.2,0.7c0.1,0.1,0.4,0.3,0.3,0.5c-0.2,0.1-0.5-0.2-0.5-0.3c0,0,0.1,0,0.1,0
							c0-0.1,0.1-0.2-0.1-0.2l0.1,0.1c-0.2,0-0.4,0.2-0.4,0c0,0.2,0.1,0.2,0.2,0.1c-0.3,0.1-0.3,0.3-0.6,0.4c0.1,0,0.2,0.1,0.2,0.1
							c-0.4,0.2,0,0.3-0.1,0.5c-0.2,0-0.3-0.3-0.4,0c-0.2,0.1-0.3-0.2-0.3-0.3c0,0.3-0.4,0.3-0.5,0.4l0-0.2c0,0.1-0.1,0.1-0.1,0.2
							l0.2,0.1c-0.1,0-0.1,0.1-0.2,0c0.1,0.2,0.3,0.2,0.4,0.4c-0.2,0-0.1,0.3-0.4,0.2c0.3-0.2-0.3-0.2-0.2-0.4c0,0.1,0,0.1-0.1,0.2
							c0,0,0,0,0-0.1c-0.4,0.1,0.2,0.3,0,0.6c-0.1-0.1-0.3-0.1-0.3-0.1c0.1-0.1,0.3,0.1,0.3,0.3c-0.2,0.1,0,0.2-0.1,0.3l0.1-0.1
							c0.1,0.1,0,0.2,0,0.4c-0.1-0.1,0-0.2-0.1-0.2c0.2,0.3-0.5,0.1-0.4,0.4c-0.2,0-0.3-0.2-0.4-0.1c0.1,0.3-0.3,0.1-0.3,0.4
							c0.2,0.1,0.2,0,0.3,0.3l0.1-0.4l0.1,0.4c0.1-0.1,0-0.3,0.1-0.3c0.1,0.2,0.1,0.2,0.3,0.2c-0.4,0,0,0.4-0.3,0.4l-0.5-0.3
							c-0.4,0.1,0,0.6-0.3,0.9l0.2-0.1c0.2,0.2-0.1,0.2-0.1,0.4c-0.2-0.1-0.3-0.1-0.4-0.1c0.1,0.1-0.2,0.2,0.2,0.5l-0.3,0
							c-0.3,0.2,0.3,0.6,0.1,0.8c-0.1-0.2-0.3-0.1-0.4-0.4c-0.1,0.1-0.1,0.1,0,0.2c-0.1,0,0.1,0.4-0.1,0.4c0.1,0.1,0.2,0.2,0.2,0.3
							c0,0-0.1-0.1-0.1-0.1c0.1,0.1,0,0.2,0.3,0.2c-0.7-0.1-0.4,0.7-1,0.7c-0.1,0.2-0.1,0.5-0.2,0.6c0,0-0.1-0.1,0-0.1
							c-0.3,0.1,0.4,0.5,0,0.6c-0.4-0.1-0.1-0.2-0.2-0.2c-0.6-0.3-0.1,0.3-0.6,0.3l0-0.1c-0.3,0,0,0.4-0.2,0.6c0,0,0,0-0.1-0.1
							c0.2,0.3,0.1,0.7,0,0.9c-0.1-0.2,0-0.2-0.3-0.3c0,0.1,0.3,0.2,0.3,0.5c-0.2,0-0.3,0-0.6-0.2l0.1-0.2c-0.3-0.2-0.2,0.2-0.3,0.2
							l-0.1-0.1c-0.1,0.1,0,0.3,0,0.4c0,0.1,0.1,0.2,0,0.3l0.1,0.1c0.1,0.5-0.2-0.1-0.2,0.3c-0.1-0.1-0.1-0.3-0.2-0.4
							c0,0.1-0.1,0.6-0.2,0.8c0.1-0.5,0.1-0.7,0.1-1c0,0-0.1,0.1-0.1,0.4c0-0.1,0-0.2,0.1-0.2c0,0.4-0.1,0.8-0.3,0.9
							c0.1-0.6,0-0.6-0.1-0.6c-0.1,0-0.2,0.1,0-0.4l0,0c0,0.1-0.1,0.1-0.1,0.2c0,0,0,0,0,0c0,0,0-0.1,0-0.2c0-0.2,0.1-0.3,0-0.4
							c-0.5,0.8,0,0-0.6,0.6c-0.1,0-0.1-0.1,0-0.1c0.1-0.2,0.2-0.4,0.3-0.5c0.2-0.2,0.1-0.1,0.3-0.2c0-0.1,0.2-0.2,0.4-0.3
							c-0.2,0.1-0.3,0.2-0.2,0.1c-0.1,0.1-0.2,0.1-0.3,0.2c-0.2,0,0-0.1,0.1-0.1c0.1-0.1,0.3-0.1,0.1-0.1c0.1,0,0.1,0,0.2,0
							c-0.1,0-0.1,0-0.1,0c0,0-0.1-0.1-0.1-0.1c-0.1-0.1-0.1-0.1-0.2-0.2c0.1,0,0.2,0,0.3,0c0.1-0.3-0.4-0.9,0-1.2l0.1,0.1
							c0-0.1-0.2-0.2-0.1-0.2c0.1,0,0.1,0.1,0.2,0c0-0.1-0.2-0.3-0.1-0.3l0.1,0.1c0.3-0.3-0.2-0.7-0.1-1c0.4,0.2,0.7,0,0.8-0.1
							l0.1,0c0.3-0.3,0.1-0.8,0.2-1.3c0.5,0.1,0.7-0.6,1.2-0.7c-0.1,0-0.2-0.2-0.2-0.3c0.1,0,0-0.4,0.3-0.1l0,0
							c0.3,0.2,0.4,0,0.5-0.1l-0.4-0.4c0.8,0.2,0.7-1,1.3-0.7c0-0.2,0.1-0.3,0.1-0.4l0.2,0.2c0.3-0.1,0.4-0.2,0.7-0.5l0.1,0.2
							c0.2-0.1-0.3-0.8-0.2-0.9l0.3,0.3c0.3-0.2,0.8-0.2,0.9-0.7c0,0.1,0.1,0.2,0.1,0.2c0.1-0.1,0.7-0.2,0.3-0.6
							c0.3,0.3,0.3-0.2,0.4-0.5l0.2,0.2c-0.1-0.4-0.2-0.5-0.1-0.7c0.1,0,0.2,0.1,0.1,0.1c0.2,0-0.1-0.3,0.2-0.3l0.1,0.2
							c0.2-0.1,0.1-0.2,0-0.4c0-0.2,0.3-0.2,0.5,0c-0.1-0.1-0.1-0.4,0-0.4c0.1,0.1,0.1,0.1,0.1,0.2c0.4-0.1,0.1-0.6,0.5-0.5
							c0.1,0.1,0.1,0.1,0.1,0.1c-0.2,0.2-0.4,0.3-0.4,0.3c0.2,0.2,0.4,0.1,0.5,0.4c0-0.3-0.1-0.8,0.1-0.8c0,0,0,0,0.1,0l0,0
							c0.1,0,0.1-0.1,0.1-0.1c0.1,0,0.1,0,0.2-0.1c0.2,0.1,0.3-0.1,0.3-0.2c-0.2-0.2-0.1-0.3-0.3-0.3c0,0,0,0,0,0.1c0,0,0,0,0,0.1
							l0,0c0,0.1-0.1,0.1-0.2,0.2c0-0.2-0.1-0.3,0.1-0.3c-0.1-0.2-0.2-0.3-0.2-0.4c0.4,0.2,0.7,0.1,0.9,0.3c0.1-0.3,0.5-0.6,0.2-1.1
							c0-0.1,0.2,0,0.3,0.1c0,0.1,0,0.1,0,0.2c0-0.2,0.3-0.4,0.1-0.7c0.3-0.1,0.2,0.3,0.3,0l0.1,0.1c0.9-0.1,0-1.4,1-1.4
							c-0.1,0-0.1,0-0.2,0c0.8-0.4,0.8-1.4,1.7-1.7c0.2-0.1,0-0.3,0-0.5l0.3,0.1l-0.1-0.4c0-0.4,0.9,0,0.8-0.6l-0.2-0.1
							c0.1-0.1,0.2-0.5,0.4-0.3c0,0-0.1-0.2,0-0.1l0.1,0.1l0-0.5c0.3-0.2,0.5,0.4,0.8,0.1c0-0.2-0.1-0.6-0.3-0.6c0,0-0.2,0.1-0.3,0
							l0-0.2c-0.4-0.3-0.7-0.6-1.2-0.5l0.1,0.4l-0.2-0.1l0.1-0.2c-0.2,0-0.1,0.1-0.1,0.3c-0.1-0.1-0.2-0.1-0.3-0.1l0.2,0.4
							c-0.2-0.1-0.2-0.3-0.4-0.2c0.1,0.2,0.4,0.2,0.4,0.4c-0.2,0-0.4-0.2-0.3,0.1c-0.1-0.1-0.2-0.1-0.2-0.2c0,0.2-0.1,0.3,0,0.5
							c-0.3-0.1-0.2,0.4-0.5,0.1c0.1,0.1,0.2,0.4,0.1,0.5c-0.3-0.5-0.3,0.3-0.7-0.1c0.3,0.4-0.1,0.5-0.1,0.9c0,0-0.1-0.1,0-0.1
							c-0.1,0.1-0.3,0-0.4,0c0.3,0.3,0.2,0.5,0.3,0.7c-0.4-0.1-0.3-0.4-0.6-0.6c0.3,0.2,0.1,0.4,0.3,0.6c-0.3,0-0.2,0-0.5-0.1
							c0.4,0.3,0,0.1,0.1,0.4c-0.3,0-0.4-0.3-0.4,0C116.9,262.7,116.9,262.4,116.9,262.4z M114,266.7L114,266.7
							C114.1,266.7,114.1,266.7,114,266.7C114.1,266.7,114.1,266.7,114,266.7z M113.7,267c0,0,0.1-0.1,0.1-0.1
							c0.1,0.1,0.1,0.1,0.1,0.2C113.9,267,113.8,267.1,113.7,267z M115.8,267.8c0,0.1-0.1,0.1-0.1,0
							C115.7,267.8,115.7,267.7,115.8,267.8l-0.1-0.1C115.7,267.7,115.7,267.7,115.8,267.8z"/>
						<path class="st1" d="M115.6,267.4C115.6,267.4,115.6,267.4,115.6,267.4C115.6,267.4,115.5,267.4,115.6,267.4L115.6,267.4
							L115.6,267.4z"/>
						<path class="st1" d="M119.6,266.5L119.6,266.5C119.6,266.5,119.6,266.5,119.6,266.5C119.6,266.5,119.6,266.5,119.6,266.5z"/>
						<polygon class="st1" points="108.9,270.6 108.9,270.7 108.9,270.6 						"/>
						<path class="st1" d="M122.1,266.7C122.1,266.8,122.1,266.8,122.1,266.7C122.2,266.8,122.1,266.8,122.1,266.7z"/>
						<path class="st1" d="M123.1,266.6l0.2,0.1C123.2,266.7,123.2,266.7,123.1,266.6z"/>
						<path class="st1" d="M123.9,266.7c0-0.1,0-0.1,0-0.1l0,0L123.9,266.7z"/>
						<path class="st1" d="M114.2,272.9C114.2,272.9,114.2,272.9,114.2,272.9C114.2,273,114.2,272.9,114.2,272.9z"/>
						<path class="st1" d="M116,269.7c0,0.1,0,0.1,0,0.2C116.1,269.8,116.1,269.8,116,269.7z"/>
						<polygon class="st1" points="112.3,276.6 112.3,276.6 112.3,276.6 						"/>
						<path class="st1" d="M115.9,270c0.1,0,0.1,0,0.1-0.1C116,269.9,115.9,269.9,115.9,270z"/>
						<path class="st1" d="M127.1,267.1L127.1,267.1C127.1,267.1,127.2,267.1,127.1,267.1L127.1,267.1z"/>
						<path class="st1" d="M127.2,267.1L127.2,267.1C127.2,267,127.2,267,127.2,267.1z"/>
						<path class="st1" d="M127.3,267L127.3,267C127.2,267,127.3,267.1,127.3,267z"/>
						<path class="st1" d="M126.2,266.8L126.2,266.8C126.1,266.9,126.1,266.8,126.2,266.8z"/>
						<path class="st1" d="M125.9,266.8c0.1,0,0.2,0.2,0.3,0.2l0-0.1C126.1,267,125.9,266.6,125.9,266.8z"/>
						<path class="st1" d="M124.6,265.5l0.3,0.1c0-0.1-0.1-0.3,0-0.3C124.5,264.9,125,265.5,124.6,265.5z"/>
						<path class="st1" d="M123.7,265.3c0.1-0.1,0-0.2,0-0.2C123.6,265.2,123.6,265.3,123.7,265.3z"/>
						<path class="st1" d="M117.7,267.2l-0.1-0.2C117.5,267,117.6,267,117.7,267.2z"/>
						<polygon class="st1" points="117.4,268.9 117.6,269 117.5,268.7 						"/>
						<polygon class="st1" points="115.8,267.8 115.8,267.8 115.7,268 						"/>
						<path class="st1" d="M109.6,276.3l0.3,0.1C109.9,276.3,109.6,276.1,109.6,276.3z"/>
						<path class="st1" d="M107.4,279.7c-0.1-0.1-0.2-0.2-0.1,0C107.3,279.7,107.4,279.8,107.4,279.7z"/>
						<polygon class="st1" points="109.7,273.3 109.7,273.4 109.8,273.2 						"/>
					</g>
				</g>
			</g>
		</g>
	</g>
	<g>
		<g>
			<g>
				<g>
					<g>
						<path class="st1" d="M164.1,290.8c-0.2,0-0.2,0.2,0.3,0.3l0.4-0.2L164.1,290.8z"/>
						<path class="st1" d="M167.2,292.3c0.6-0.1,1.3-0.2,1-0.6c-0.6,0.2-0.7,0.1-1.4,0.3c-0.5,0-0.8-0.3-0.7-0.4
							c-0.2,0-0.7-0.3-1.1-0.2c0.6,0.4,1.4,0.7,2.3,0.6C167.4,292.2,167.2,292.2,167.2,292.3z"/>
						<path class="st1" d="M216.3,291.5l-0.3-0.2C216.1,291.4,216.2,291.5,216.3,291.5z"/>
						<path class="st1" d="M240.6,310.6c-0.2-0.2-0.3-0.2-0.3-0.2C240.4,310.6,240.6,310.7,240.6,310.6z"/>
						<path class="st1" d="M243.7,314.9c-0.1-0.1-0.1-0.2-0.2-0.3C243.5,314.7,243.6,314.8,243.7,314.9z"/>
						<path class="st1" d="M216.3,291.5l0.7,0.5C217.1,291.9,216.6,291.7,216.3,291.5z"/>
						<path class="st1" d="M174,291.8c-0.2,0-0.3,0.1-0.4,0.1C173.7,291.9,173.9,291.9,174,291.8C174,291.8,174,291.8,174,291.8z"/>
						<path class="st1" d="M203.2,288.3l-0.2,0c-0.1,0-0.1,0.1-0.2,0.1L203.2,288.3z"/>
						<path class="st1" d="M193,289.5c0.2,0,0.3-0.3,0.3-0.5c-0.1,0.1-0.3,0.2-0.5,0.3C192.8,289.4,192.9,289.4,193,289.5z"/>
						<path class="st1" d="M176.5,292.7l-0.3,0.1C176.3,292.8,176.4,292.7,176.5,292.7z"/>
						<path class="st1" d="M210.5,289.6c0,0,0,0.1,0.1,0.1C210.6,289.7,210.5,289.7,210.5,289.6z"/>
						<path class="st1" d="M178.6,289.1C178.6,289.1,178.6,289.1,178.6,289.1C178.5,289.1,178.5,289.1,178.6,289.1z"/>
						<path class="st1" d="M166.6,287.9l0.2,0c0-0.1,0-0.1,0-0.2L166.6,287.9z"/>
						<path class="st1" d="M247.9,323.2C247.9,323.2,247.9,323.2,247.9,323.2C247.7,323,247.8,323.1,247.9,323.2z"/>
						<path class="st1" d="M223.6,409.9c0.2-1,0.2-0.5,0.3-0.2c0.1,0.4,0.1,0.5,0.4-0.8c-0.1,0.2-0.2-0.1-0.3-0.2
							C223.9,408.7,223.8,408.7,223.6,409.9z"/>
						<path class="st1" d="M174.3,291.8l0.4,0C174.5,291.8,174.4,291.8,174.3,291.8z"/>
						<path class="st1" d="M224.3,408.9L224.3,408.9l0.1-0.3C224.3,408.8,224.3,408.8,224.3,408.9z"/>
						<path class="st1" d="M246,344.3c0.1,0,0.1-0.1,0.2-0.2C246.1,344.1,246.1,344.2,246,344.3z"/>
						<path class="st1" d="M249.5,328.4c0,0.1,0,0.3,0,0.4C249.5,328.7,249.5,328.6,249.5,328.4z"/>
						<path class="st1" d="M243.3,352.5c-0.1,0.2-0.2,0.3-0.3,0.6c0,0,0,0,0.1-0.1C243.1,352.9,243.1,352.7,243.3,352.5z"/>
						<path class="st1" d="M239.7,360.8c0,0,0.1-0.1,0.1-0.1c0-0.1,0.1-0.2,0.1-0.3L239.7,360.8z"/>
						<path class="st1" d="M202.6,300.3c-0.1-0.2-0.1-0.3-0.2-0.5C202.4,300.1,201.4,299.3,202.6,300.3z"/>
						<path class="st1" d="M174.1,292c0-0.1,0.1-0.1,0.3-0.1c-0.1,0-0.2,0-0.3,0C174,291.9,174,291.9,174.1,292z"/>
						<path class="st1" d="M245.2,353.7l-0.6,1.3C244.8,354.7,245,354.2,245.2,353.7z"/>
						<path class="st1" d="M235.2,354.6l-0.1-0.3C235.1,354.4,235.1,354.5,235.2,354.6z"/>
						<path class="st1" d="M242.9,359c-0.2,0.2-0.4,0.4-0.5,0.7c0,0.1,0,0.1,0,0.2L242.9,359z"/>
						<path class="st1" d="M202.5,299.8L202.5,299.8L202.5,299.8z"/>
						<path class="st1" d="M194.5,295.1c1.2,0.7,0.7,0,1.1,0c1.4,0.8,0.5,0.6,0.9,1.1c0.9,0.4,1.7,0.6,2.3,1c0,0.1,0.1,0.2-0.1,0.1
							c0.5,0.2,1.2,0.7,1.8,1.1c0.6,0.5,1.3,1,1.9,1.2c0,0.1,0.1,0.1,0.1,0.2c0-0.3,0.1-0.4,0.2-0.5c0.5,0.4,1,0.6,1,0.9
							c-0.3-0.2-0.4-0.2-0.5-0.2l0.6,0.3c0.2,0.6-0.7-0.5-0.9-0.3c1,0.7,2.3,1.5,2.9,2.2c-0.1,0.4-1.7-1.4-1-0.3
							c-0.3-0.4-0.7-0.7-1-1.1c0.5,1.1-0.7-0.6-0.2,0.5c1.4,1.3,1.7,1.3,3,2.7c0.4,0.2,0.1-0.3,0.5-0.1c2.2,1.7,0.9,2.1,2.6,3.3
							c0.5,0.2,1,0.1,1.8,1.3l-0.6-0.1c1.2,1.4,1.1,0.5,2.2,2.1c-0.3-0.2-1-1.1-0.9-0.8c0.6,1.2,0.7,0.6,1.4,1.3l-0.1,0.4
							c1.3,1.5,2.8,3.1,4.1,4.9c-0.2,0-0.5-0.3-0.2,0.2c1.7,2.2,3.3,5,4.5,7.4l0.8,0.7c0.1,0.2,0.1,0.4-0.1,0.3c0.4,1,0.2,0,0.5,0.3
							c0.3,0.5,0.3,0.8,0,0.5c1.1,1.5,3.1,4.3,3.7,6.2l-0.3-0.3c0.6,1.4,1.3,1.3,1.7,2.6l-0.2-0.2c1.4,3,3.1,6.3,3.6,8.8
							c0.6,0.3,1,3.1,1.6,3.1c0.3,1.9,0.1,1.4,0.7,4c0.2,0.7,0.7,0.9,1,1.7l-0.3,0.1c0.2,0.3,0.4,0.7,0.6,1.1l-0.2,0.7l0.3,0.8
							c-0.1-0.3,0-0.7,0.1-0.7c0.5,1.2,0.5,3.1,0.4,3.1c0.3,1,0.6,1.9,0.8,2.9c-0.1,0-0.3-0.5-0.4-0.9c0.6,1.5-0.3,0.3,0.3,1.7
							c0-0.2,0.2,0.1,0.3,0.1c-0.1,0.8,0.2,2.4,0.4,3.6l-0.2-0.2c0.1,1.1,0.3,2.3,0.3,3.5c0.1,1.2,0.2,2.4,0.2,3.7
							c0.1-0.9,0.5-0.7,0.5,0l-0.3,0.3c0.2,0.5,0.1-0.8,0.4,0.2c0,0.9-0.4,0.6-0.5,0.1l0.1,1.1c-0.1,0.1-0.1-0.2-0.3-0.3
							c0.2,0.5-0.4,1.9-0.1,2.6l-0.1,0.1c-0.2,2.5-0.2,3.6-0.4,5.6c0.3,0.1,0.1,0.9,0.2,1.5c-0.2,0.7-0.4,1.5-0.6,2.3
							c-0.2,0.8-0.5,1.6-0.7,2.5c-0.2,1.3,0.1,0.4,0.1,1c-0.3,0-0.7,1.8-0.7,0.8c-0.3,1-0.5,1.7-0.7,2.4c-0.2,0.7-0.5,1.5-0.9,2.8
							c0.2-0.2,0.4-0.5,0.4-0.3c-0.1,0.5-0.5,1-0.6,0.9l0-0.1c-0.2,0.7-0.6,1.5-0.9,2.3c-0.4,0.7-0.9,1.5-1.4,2.2
							c-1,1.4-1.9,2.7-2.4,3.9l0.1-0.1l-0.6,1.1l-0.1,0.3c-0.1,0.1-0.1,0.2-0.1,0.2l-0.1,0.3c-0.2,0.2-0.1,0.1-0.1-0.1
							c0-0.1,0-0.3-0.1-0.2c-0.1,0.3-0.2,0.6-0.4,0.8c-0.1,0.2-0.2,0.3-0.3,0.4l-0.1,0.1l-0.1,0.1l0,0c0,0,0,0,0,0
							c0-0.1,0-0.2-0.1-0.3c0.2-0.6,0.4-0.8,0.4-0.9c0-0.1,0-0.1,0-0.2c0-0.1,0,0,0.1-0.5c0.2-1.6,0.4-3.3,0.9-4.4l-0.2,0.1
							c0-0.6,0.3-0.7,0.4-1.1c-0.1,0-0.3,0.6-0.3,0.2c0.9-5.1,3-10.3,5.1-15.2c0.8-1.8-0.5-1.4,0.8-3.5l0.1,0.8
							c1.1-3.8,3.1-7.5,4.4-11.2c0,0.2,0.1,0.3-0.1,0.6c0.6-0.7,1.2-2.8,1.1-2.9c0.3-0.5,0.2-0.1,0.5-0.4c0.5-0.7,0.6-2,1-2.3
							c0.1-0.1,0,0.2-0.1,0.4c0.1-0.5,1-2.3,0.6-1.9c0.7-1.3,1-2.6,1.6-3.6c0-0.8,1.1-2.3,0.8-2.6c0.4,0.3,1.4-2.2,1.5-3.2
							c0,0.3,0.4-0.7,0.5-0.3c0.4-1,0.7-1.9,0.4-1.8c1.2-1.6,1-3.8,2.1-4.6c0.8-3.1,1.7-5.9,2.3-8.7c0.4,0.2-0.8,3.1-0.4,3.1
							c0.6-2.7,0.7-4.3,1.3-6.9c0.2-0.7,0.1,0.4,0.2,0.7c0.3-2.7,0.7-5.4,0.1-7.8c0,0,0.1,0.3,0.2,0.5c-0.1-0.5-0.1-1.1-0.3-1.1
							l0.1,0.5c-0.1,0.4-0.3-0.1-0.5-0.6c-0.2-0.6-0.5-1.2-0.6-1.2c0.4,0.3,0.3-0.3,0.2-0.8c-0.1-0.5-0.2-1,0.4-0.5
							c-0.1-0.3-0.3-0.7-0.4-0.6c-0.1-0.5-0.1-0.6,0.2-0.2c-0.3-0.8-0.5-1.1-0.6-1.3c-0.2-0.2-0.3-0.4-0.6-1.2
							c0.1,0,0.2,0.2,0.4,0.4c-0.4-0.7-1-1.3-1.5-2.5c0.1,0,0.1-0.1,0.3,0.2c-1.1-2-2.3-3.1-3.7-5.2c0.8,0.3-0.4-0.7-0.2-1.1
							c-0.3-0.3-0.6-0.7-0.9-1l0.2,0.5c-0.7-0.9-1.6-1.5-2.2-2.3l0.7,0.5c-0.5-0.5-1-1-1.5-1.5c0.3,0.3,0.5,0.7,0.7,1
							c-0.9-0.7-0.2,0.4-1.2-0.8c0.2,0.2-0.8-0.8-1.1-1.4l0,0c-0.5-0.3-1-0.6-1.5-1.3c-0.1-0.2,0.4-0.2,0.4-0.3
							c-0.6-0.2-2-1.8-2.8-2c0.2,0.1,0.4,0,0.3-0.1l-0.5-0.1c-0.3-0.4-0.4-0.5-0.2-0.6c-1.2-1.1,0.1,0.7-1.2-0.7
							c0.1,0.1,0.1,0,0.4,0.2c-1.4-1.3-2.9-2.3-4.2-3.5c-0.2-0.6,1.2,0.9,1,0.3c-2-1.6-4.4-2.9-6.3-4.4l0.3,0.3
							c-0.6,0.2-1.3-1.3-2.5-1.7c0.3,0.1,0.5,0,0.4,0c-1.4-1-3-1.7-5.3-2.8l0.3,0c-0.4-0.3-1-0.6-1.6-0.9c-0.6-0.3-1.2-0.6-1.7-0.8
							c-0.3,0-0.9-0.2-0.6,0.1c-1.4-1-3-1.4-4.5-1.6c-1.5-0.3-3-0.4-4.4-0.8c0.4,0,0.9,0,0.6-0.1c-0.8,0-1.7-0.1-2.5,0
							c0.2,0.2,0.3,0.1,0.8,0.3c-0.3,0.1-1,0.2-1.6,0.2c1.1-0.1,0-0.4-0.5-0.5c0.1,0.1-0.1,0.1,0,0.2c-1.3-0.4-0.2,0.4-2,0.3
							l0.1-0.1c-0.7,0.1-1.3,0.3-2,0.4c-0.3-0.2,0.7-0.2,0.7-0.4c-1,0.1-1.9,0.8-2.8,0.6c0.4-0.2,1-0.2,1.4-0.4
							c-1-0.2-1.1-0.1-1.9,0l0.1,0l-1.7,0.2l0.4,0c-1.1,0.9-2.5,0.6-4,1.5c1.5-0.8,0.2-0.3,0.3-0.6c-0.4,0-1.1,0.1-0.9,0
							c-0.7,0.4-1.3,0.1-2.3,0.8c-0.1-0.1-0.8,0.2-0.7-0.1c-1,0.3,0.3,0.1,0.2,0.2c-1.5,0.7-3.7,0.5-5.8,1.5c-1.9,0.6-2.2,1-4,1.4
							c-0.6-0.1,0.4-0.4,0.4-0.4c-0.5,0-0.9,0-1.4,0.1c-0.4,0-0.8,0.1-1.3,0.2c0.2-0.1,0-0.2-0.3-0.2c-0.7,0.1-0.5,0.4-1.5,0.3
							c0.2-0.1,0.4-0.3,0.7-0.4c-0.9,0.1-1.7,0.3-2.6,0.4c-0.2-0.2,0.6-0.3,0.9-0.4c-0.3,0-0.5,0.1-0.8,0.1c-0.3,0-0.6,0-0.9,0
							c-0.6,0-1.1,0.1-1.2,0.2l0.6,0.1c-0.4,0-0.2-0.2,0.1-0.3c0.9-0.1,1.2,0.2,1.3,0.3l-0.6,0c0.3,0.3,1,0.3,1.7,0.2
							c0.7-0.1,1.5-0.3,2.2-0.3l-0.5,0.5l1.3-0.5c0.3,0.1,0.5,0.3-0.1,0.4c1,0.1,0.8-0.2,1.7-0.1c0.1,0,0.1,0,0,0.1l0.9-0.3
							c-0.2,0.1,0.2,0.3-0.4,0.3c1.7,0,2.6-0.8,3.3-0.6l-0.1,0.1c2.2-0.6,0.2-0.3,1.8-1.1l1.3,0.5l0.1-0.3c0.2,0,0.7-0.1,0.6,0
							c0.8-0.4-0.2-0.1,0.3-0.4c1.2,0,3-0.9,3.4-0.5c0.3-0.3-1.1,0.1,0-0.4c0.5,0.4,1.3-0.4,2.4-0.4c-0.2,0.3-1.2,0.4-0.2,0.4
							c0.5-0.6,2-0.4,2.8-0.6c0-0.4,1.8-0.5,3.3-0.9c-0.1,0.1,2.8-0.2,4.1-0.1l0,0.1c0.1-0.2,0.5-0.3,1-0.4c0.5,0,1.1,0,1.6-0.1
							c0,0.2-0.2,0.3-0.8,0.4l0.9,0c0.2-0.1,0.5-0.2,1.1-0.2l-0.3,0.3c0.6,0.1,1.3,0,2,0c0.7,0.1,1.4,0.1,2.2,0.4
							c0.2-0.2-1.2-1,0.6-0.8c0,0.2,0,0.4-0.4,0.3c0.1,0,0.5,0,0.8,0.1l-0.7,0.1c0.7,0.3,0.4-0.1,1,0.1c-0.1,0.2,0.4,0.2,0.3,0.4
							c-0.2,0-0.5-0.2-0.7-0.2c0.7,0.2,1.4,0.5,1.6,0.7c0-0.1,0.1-0.3,0.6-0.1c1.2,0.4,0.3,0.3,1,0.7c0.3,0,1,0.4,1.2,0.1
							c0.3,0.1,0.4,0.3,0.5,0.4c0.7,0.1,2.8,1.2,2.3,0.6l-0.1-0.1c0,0,0.1,0,0.1,0c0,0,0,0,0,0l0,0c2.1,0.7,3.9,2.3,5.8,3.3
							l-0.1,0.1c1.1,0.6,2.4,1.5,3.3,1.9c0.3,0.2,0.6,0.7,0.4,0.7c0.8,0.5,1,0.5,2,1.5c-0.9-0.5,0.2,0.3-0.9-0.5
							c1,0.9,1.1,1.1,2.3,1.8c-0.5-0.1,0.6,0.9,1.1,1.2l-0.6-0.7c0.6,0.4,1,0.8,1.5,1.2l-0.5,0c1.7,2,4.1,2.6,5.1,4.4
							c0.7,0.3-1-1.1-0.3-0.9c0.9,0.8,1.5,2,1.7,2.3c1.1,1.3,1.5,0.7,2.6,2c-0.1-0.2,0-0.6,1,0.2c0.8,0.9,0.6,1.4,0.1,0.9
							c-0.2-0.2-0.3-0.3-0.2-0.4c-0.3-0.2-0.7-0.6-0.5-0.1l0.2,0c0.3,0.5,1.4,1.7,1,1.6c0.7,0.6,0.4,0.2,0-0.4
							c0.9,1.3,1.6,1.8,2.4,3.1c-0.1-0.2-0.1-0.5,0-0.3c1.3,1.9,0.8,0.7,1.8,1.9c0.3,0.8-0.5,0,0.4,1.2c0.4,0.9-0.2,0.3-0.4,0.1
							c0.5,0.5,0.8,1.1,1,1.7c0.2,0.5,0.4,1,0.5,1.4c-0.1-0.2-0.3-0.4-0.4-0.6c0.2,0.4,0.4,0.7,0.5,1l0-0.5c0.1,0.4,0.3,0.7,0.2,0.8
							c0.3,0.3,0.2-0.5,0.8,0.3c0.1,0.6,0.8,1.6,0.5,1.9c-0.5-1.8-0.2,0.3-0.8-1.1c0.1,0.3,0.3,0.6,0.4,1c0,0.1-0.1,0-0.1-0.1
							c0.1,0.9,0.3,1,0.4,1.2c0.2,0.2,0.4,0.3,0.6,1.2c-0.2-0.2-0.2,0.5-0.2,0.7c-0.1-0.7,0.2-0.4,0.5,0.2c0,1.2,0.3,1.2,0.3,1.8
							l0-0.7c0.2,0.2,0.3,0.8,0.3,1.6c-0.1,0.1-0.1-0.7-0.2-0.4c0.4,0.9-0.3,2-0.2,3.3c-0.2,0.6-0.3,0-0.5,0.5
							c0.1,1.4-0.4,1.5-0.5,2.9c0.3-0.4,0.3-0.5,0.3,0.6c0.1-0.8,0.2-1.6,0.3-2.4c0,0.5,0.1,1.1,0.1,1.6c0.2-0.7,0.1-1.6,0.2-2
							c0.1,0.8,0,0.7,0.3,0.4c-0.5,1-0.1,2-0.7,3.2l-0.6-0.2c-0.7,1.6-0.5,3.1-1.4,5.3l0.3-0.7c0.1,0.4-0.4,1.4-0.6,2.1
							c-0.2-0.1-0.4,0.3-0.6,0.6c0.1,0-0.6,1.6-0.3,1.9l-0.6,0.9c-0.8,1.7-0.2,2.2-1,3.9c0-0.6-0.4,0.1-0.1-1.1
							c-0.2,0.6-0.5,1.1-0.3,1.1c-0.2,0.3-0.4,1.7-0.8,2.1c0,0.3,0.1,0.4-0.1,1.1c-0.1,0.1-0.1,0-0.1,0c0.1,0-0.3,1,0.1,0.6
							c-1.3,1.5-2,4.8-3.2,6.1c-0.5,1.2-1.1,2.7-1.5,3.8c0-0.1-0.1,0,0-0.2c-0.8,1.4,0.1,1.2-0.9,2.8c-0.7,0.8,0.3-1-0.1-0.5
							c-0.7,0-0.8,2.1-1.7,3.1l0.1-0.3c-0.6,0.8-0.7,2.3-1.4,3.7c0,0,0-0.1-0.1,0c-0.1,1.1-0.8,3.1-1.3,4.5
							c-0.1-0.5,0.1-0.7-0.2-0.5c-0.2,0.6,0.5,0,0,1.3c-0.3,0.4-0.8,1.2-1.1,1.3c0.1-0.4,0.3-0.8,0.5-1.2c-0.6,0.5-0.6,1.6-0.9,2.2
							l-0.1-0.1c-0.7,1.9-0.3,2-1.1,4l0.2-0.2c0,1.2-0.5,0.8-0.6,2l-0.5,0.2c-0.2,0.8-0.5,2.7-0.8,4c0-0.8,0.3-2.4,0.5-3.4
							c-0.3,0.7-0.8,2.5-0.7,2.9c0.1-0.3,0.1-0.7,0.2-1c0,1-0.2,2.2-0.6,3.7c-0.3-0.2-0.6,0.7-1,1.8c-0.2,0.6-0.3,1.2-0.5,1.7
							c-0.2,0.5-0.3,1-0.5,1.2c-0.1,1.4-0.5,2.7-0.8,4c-0.1,0.7-0.3,1.4-0.4,2.1l-0.1,0.6c0,0.3-0.1,0.6-0.1,0.9
							c-0.1,0.6-0.1,1.3-0.2,1.9c0.8-2.2-0.1,1.4,0.6,0.4c0,0.9-0.1,1.2-0.1,1.4l-0.3,1.9l-0.2,1l0,0.3l0,0.1c0,0,0,0.1,0,0.1l0,0
							l0.2-0.2c0.2-0.1,0,0.2-0.3,0.6c-0.1,0.1-0.1,0.2-0.2,0.3c0-0.1,0-0.1,0-0.2c0-0.1,0-0.1-0.1,0c0,0.2,0,0.3-0.1,0.5
							c0,0.1,0,0,0.1,0c0,0,0.1-0.1,0.1-0.1c0.1-0.1,0.2-0.2,0.3-0.3c0.1-0.1,0.2-0.1,0.2-0.1c0,0.1,0,0.3,0.6-0.3
							c-0.1-0.2,0.8-1.5,1.9-2.5c-0.5,0.4-0.9,0.8-1.3,1.1c1.3-1.7,1.6-2,2.1-2.4c0.5-0.4,1.1-1,2.2-2.6l-0.6,1.1
							c0.2-0.2,0.3-0.4,0.5-0.7c0.1-0.1,0.2-0.3,0.3-0.4c0.1-0.1,0.1-0.2,0.2-0.3c0.3-0.4,0.5-0.9,0.8-1.3c0.6-0.9,1-1.9,1.1-2.5
							c0.2-0.1,0.5-0.3,0.2,0.2c0.8-1.2,1.3-2.7,1.9-4c0.5-1.4,1-2.7,1.5-3.7l0.1,0.3c0.1-0.5,0.1-1,0.4-1.5c0,0.1,0.1,0.2,0.2,0
							c0.1-0.3,0.2-1.4,0.5-2l0,0.6c0.3-0.6,0.4-1.2,0.6-1.8c0.1-0.5,0.2-1.1,0.3-1.6c0.1-0.5,0.1-1,0.2-1.5c0-0.5,0.1-1,0.2-1.6
							c0.2,0,0.5-0.4,0.7-1.1c0.2-0.6,0.4-1.4,0.5-2l0.1,0c0.3-1.6,0.3-2.9,0.4-4.3c0-1.3,0-2.6-0.1-4.1c0.6-1.8,0.2-6.2,0.2-9.1
							c0,0.5-0.3,0-0.4-0.6c0-0.7-0.5-1.8-0.1-1.8l0,0.2c0.3-0.6,0-2-0.2-3.1l-0.6-0.1c0.3-3-1.9-7.3-1.7-9
							c-0.3-0.6-0.6-1.5-0.9-2.1l0.3,0c-0.5-1.9-0.8-2.8-1.7-5l0.4,0.4c-0.4-1.3-1.4-1.3-1.8-2.4l0.3-0.5c-0.9-2.2-1.5-4.5-2.8-6.4
							c0.1,0,0.2,0,0.4,0.4c-0.5-1-1.6-4-2-3.3c0.3-0.2-1.1-2.2-1.8-3.2l0.3,0c-0.8-0.8-0.9-0.7-1.7-2c-0.1-0.3,0-0.4,0.2,0.1
							c-0.5-1.1-0.7-0.7-1.3-2l0.4,0.4c-0.6-1.1-0.6-0.9-1.1-1.4c-0.5-0.6-1.1-2-1-2.3c-0.2-0.1-0.7-0.5-1.1-1.1
							c0-0.1,0.2,0.1,0.3,0.1c-0.9-1.8-1.9-2.3-2.4-3.6c0.1-0.1,0-0.2,0-0.3c0.9,1.3,1.6,2.4,1.5,2.3c0.2-0.1-0.5-1.3,0.4-0.6
							c-0.7-0.8-2.1-2-2.7-3.1c0-0.1,0-0.1,0-0.2l0.1,0.1c-0.1-0.3-0.3-0.5-0.5-0.6c-0.2-0.4-0.3-0.6-0.6-0.9
							c0.1-0.2-0.8-1.3-1.2-1.8c-0.2,0.2-0.7-0.5-0.4,0.3c0-0.1,0.1,0.1,0.4,0.4c0.1,0.1,0.1,0.2,0.2,0.2c0,0,0,0,0,0
							c0.3,0.3,0.6,0.8,1,1.3c-0.4-0.3-0.8-0.7-1.1-1.4c-0.3-0.2-0.7-0.3-0.9-0.4c-0.2-0.9-1.1-2.4-1.1-2.7c-1.4-1.4-3.1-3.5-4.3-4
							c-0.4-0.4-0.3-0.6-0.4-0.8c0.3,0.2,0.5,0.5,0.7,0.6c-0.9-0.7-2.3-2.4-2.8-2.3c-0.9-1.1,0.8,0.3-0.6-1l0.3,0.1
							c-1.2-1.5-2.5-2.4-3.9-3.3c-1.4-0.8-2.8-1.7-4.3-3.2c0.2,0.2,0.3,0.3,0.3,0.4c-3.8-3.1-8.7-4.8-13.1-6.8
							c-1.3-0.5-1.5-0.3-2.3-0.4l-0.2-0.4l-1.5,0c-2-0.2-3.3-1.5-5.9-1.2l0.3,0.2c-0.5-0.1-1.2-0.1-1.8-0.1c-0.6,0-1,0-1-0.2
							c-0.1,0-0.3,0.2-0.7,0.1l0-0.2c-0.8,0.1-1.5,0.2-2.2,0.3c-1.7,0,0.2-0.7-2.3-0.5c-1,0.2-2.6,0.8-2.2,0.9c0.4,0,1,0,1,0.1
							l-0.8,0.2c-0.1,0.5-0.6,1,1.4,1.1c0.5-0.2,0.9-0.3,1.4-0.4l0.5,0.2l-1.2,0.1c0.7,0.2,1.1-0.1,1.6-0.2c0.1,0.1,0.3,0.2,0.6,0.2
							l1.4-0.5c0.2,0.2-0.6,0.4,0.3,0.5c0.7-0.2-0.6-0.4,0.5-0.5c0.7,0.2,0.5,0.4,1.3,0.2c0.1,0.1-0.1,0.2-0.4,0.2
							c0.7-0.1,1.9,0,2.3-0.2c0.7,0.3,2.4,0.2,2.3,0.6c0.2-0.1,1.3-0.2,1.9,0c-0.6,0.1,0,0.3,0.7,0.4c0.7,0.2,1.5,0.4,1.3,0.6
							c1-0.3,3.1,0.6,4.7,0.9c-0.1,0-0.3,0-0.4,0c0.8,0.3,1,0.6,1.5,0.9c0.2-0.3,1.6,0.1,2.3,0.2c0.8,0.8-0.8,0.1-0.6,0.6
							c0.1-0.3,1.8,0.5,1.6,0.1c0.6,0.6,0.6,0.4,0.8,0.9c0.3-0.4,0.7,0.3,1.5,0.3c0.9,0.8,0,0.6,1.3,1.1c0.2,0.2,0.1,0.2-0.1,0.2
							C194.8,295.2,194.5,295.1,194.5,295.1z M217.5,316.3L217.5,316.3c-0.2-0.2-0.3-0.4-0.4-0.5C217.1,315.8,217.3,316,217.5,316.3
							z M219,318.5c-0.2-0.3-0.4-0.6-0.6-1c0-0.1,0.2-0.1,0.3,0.1C218.5,317.5,218.8,318.1,219,318.5z M217.3,312.7
							c0.3,0.3,0.3,0.5,0.3,0.6c-0.1-0.2-0.3-0.3-0.5-0.6c0,0,0,0-0.1,0C217.1,312.6,217.2,312.6,217.3,312.7z"/>
						<path class="st1" d="M216.5,312.3c0,0-0.1-0.1-0.1-0.1c0,0.1,0.1,0.2,0.1,0.2c0.1,0,0.1,0,0.2,0.1
							C216.6,312.4,216.6,312.3,216.5,312.3z"/>
						<path class="st1" d="M216,291.3L216,291.3C216,291.3,215.9,291.3,216,291.3C216,291.3,215.9,291.3,216,291.3z"/>
						<polygon class="st1" points="234.3,351.8 234.4,351.7 234.3,351.5 						"/>
						<path class="st1" d="M201.8,287c0,0-0.1-0.1-0.2-0.1C201.7,287,201.7,287,201.8,287z"/>
						<path class="st1" d="M195.4,287.6l-0.9,0.1C194.9,287.7,195.2,287.6,195.4,287.6z"/>
						<path class="st1" d="M190.5,288.5c0,0.1-0.1,0.1-0.1,0.1l0,0L190.5,288.5z"/>
						<path class="st1" d="M251.4,327.9c0,0.1,0,0.1,0,0.2C251.5,328.6,251.5,328.3,251.4,327.9z"/>
						<path class="st1" d="M239.4,307.9c0.2,0.1,0.4,0.3,0.6,0.4C239.7,308,239.5,307.8,239.4,307.9z"/>
						<path class="st1" d="M245.2,353.6L245.2,353.6c0,0,0,0.1-0.1,0.1L245.2,353.6z"/>
						<path class="st1" d="M240.8,309.1c-0.3-0.3-0.5-0.6-0.8-0.8C240.2,308.6,240.5,308.9,240.8,309.1z"/>
						<path class="st1" d="M169.8,291.8l-0.2,0c0,0,0,0,0,0L169.8,291.8z"/>
						<path class="st1" d="M169.5,291.8l-0.3,0C169.4,291.8,169.5,291.8,169.5,291.8z"/>
						<path class="st1" d="M168.7,291.9l0.5,0C169.1,291.8,168.9,291.8,168.7,291.9z"/>
						<path class="st1" d="M176.1,291.7l0.1-0.1C176.1,291.6,176.1,291.7,176.1,291.7z"/>
						<path class="st1" d="M178,291.4c-0.5,0-1.2,0-1.8,0.1l0,0.1C176.5,291.4,177.6,291.6,178,291.4z"/>
						<path class="st1" d="M186.4,290.8l-1.6,0.3c0.3,0,0.7,0.1,0,0.3C186.8,291.2,184.2,291.3,186.4,290.8z"/>
						<path class="st1" d="M191.4,289.7c-0.9,0.2,0,0.1,0,0.2C191.9,289.7,192,289.7,191.4,289.7z"/>
						<path class="st1" d="M225.6,297.5l-0.2,0.2C226,298.1,225.5,297.6,225.6,297.5z"/>
						<polygon class="st1" points="232,300.9 231.6,300.4 231.2,300.3 						"/>
						<polygon class="st1" points="234,305 233.7,304.9 234.7,305.6 						"/>
						<path class="st1" d="M240.1,359.2l0.4-0.1C240.6,358.7,240.3,358.5,240.1,359.2z"/>
						<path class="st1" d="M229.9,384.2c-0.2,0.2-0.6,0.9-0.6,1.4C229.5,385.1,229.8,384.5,229.9,384.2z"/>
						<polygon class="st1" points="238.4,358.1 238.6,358.7 238.3,357.7 						"/>
					</g>
				</g>
			</g>
		</g>
	</g>
</g>
</svg>
