<svg id="Layer_1" data-name="Layer 1" xmlns="http://www.w3.org/2000/svg" viewBox="0 0 1073 374"><defs><style>.cls-1{fill:#fff;}</style></defs><title>branch01</title><polygon class="cls-1" points="376.8 273.72 358.58 239.31 295.74 200.8 257.17 178.47 184.25 184.54 58.73 144.05 0.38 154.11 0.38 120.52 64.72 120.52 184.15 161.01 251.01 161.01 429.23 187.34 488.04 152.86 572.97 108.38 629.18 108.38 629.18 113.72 574.78 117.75 531.46 144.57 576.94 156.98 615.51 142.76 659.54 136.77 659.54 140.06 617.3 146.1 578.9 164.29 524.23 152.14 495.77 168.4 452.68 199.18 516.12 225.78 654.01 225.78 694.6 183.16 797.7 112.42 855.3 108.44 854.07 109.68 799.45 119.79 772.46 138.47 807.66 150.9 832.15 146.81 862.33 120.66 863.83 122.16 833.84 150.16 807.71 154.18 767.13 144.03 704.23 190.69 673.29 227.81 698.44 227.81 844.17 177.21 921.08 185.3 999.63 165.16 999.63 168.44 921.02 188.59 844.07 182.52 753.98 221.42 807.64 237.93 864.39 235.91 902.46 225.9 902.46 229.17 863.43 239.44 900.21 261.92 898.73 263.4 862.45 241.22 805.71 243.25 742.9 227.04 696.29 243.25 512.22 245.28 435.33 210.88 302.07 192.42 352.02 225.72 428.94 258.11 458.98 288.16 455.47 291.68 427.32 263.54 367.65 245.02 380.28 268.18 440.92 308.61 440.92 311.8 376.8 273.72"/><path d="M628.8,108.75v4.63l-54,4-.18,0-.16.09L532,143.8l-1.46.91,1.66.45,44.54,12.15.23.06.22-.08,38.39-14.14,43.6-6v2.54l-41.87,6-.11,0-.1,0-38.23,18.11L524.45,151.8l-.28-.06-.25.14-28.34,16.2,0,0,0,0L453,198.48l-1.1.78,1.24.52L515.9,226.1l.14.06H654.17l.22-.23,40.43-42.46,103-70.69,56.5-3.89-.44.44-54.43,10.08-.16,0-.13.09-26.32,18.22-1.2.83,1.38.49,34.41,12.15.18.06.2,0,24.29-4.05.21,0,.16-.14,29.83-25.86,1,1L833.67,149.8l-25.94,4-40.34-10.08-.35-.09-.28.21L704,190.39l-.08.06,0,.07L673.51,227l-1,1.23h26l.12,0,145.59-50.55L921,185.67h.14l.13,0,78-20v2.5L921,188.21l-76.8-6.06H844l-.17.07-89.07,38.46-1.86.81,1.94.6,52.63,16.19.12,0h.13l56.68-2h.08l.08,0,37.52-9.88v2.5l-37.9,10-1.7.45,1.5.92L899.61,262l-.94.93-35.93-22-.19-.11h-.23l-56.57,2L743.1,226.71l-.22-.06-.21.07-46.44,16.16-183.93,2-76.77-34.35-.1,0h-.1L303.75,192.28l-3.25-.45,2.73,1.81L351.81,226l.06,0,.07,0,76.78,32.33,29.73,29.73-3,3-27.81-27.81-.14-.13-.17-.06-58.71-18.21-1.76-.55.88,1.62,12.15,22.27.09.16.15.1,60.4,40.27v2.33l-63.47-37.69L359,239.23l-.09-.18-.18-.11-62.77-38.47L257.46,178.2l-.2-.12-.24,0-72.72,6.06L58.93,143.72l-.17-.05-.18,0-57.83,10V120.9h63.9L184,161.34l.12,0H251L429,187.69l.26,0,.23-.14L488.2,153.2l84.86-44.45H628.8M856.28,108l-58.71,4L694.33,182.9l-40.48,42.51H516.19l-62.75-26.32L496,168.73l28.34-16.2L579,164.68l38.46-18.22,42.51-6.07v-4l-44.54,6.07-38.46,14.17-44.53-12.14,42.51-26.32,54.65-4.05V108H572.87l-85,44.53L429.15,187,251,160.63h-66.8L64.78,120.15H0v34.41l58.7-10.12,125.51,40.48,72.87-6.07,38.47,22.27,62.75,38.46L376.52,274l64.78,38.46V308.4l-60.73-40.48-12.15-22.27,58.71,18.22,28.34,28.34,4-4L429.15,257.8l-76.92-32.39L303.64,193l131.58,18.22,76.93,34.41,184.21-2,46.55-16.2,62.76,16.2,56.68-2,36.44,22.27,2-2-36.44-22.27,38.46-10.12v-4.05l-38.46,10.12-56.68,2-52.63-16.19,89.07-38.46L921.05,189l79-20.24v-4l-79,20.24-76.92-8.09-145.75,50.6H674.09L704.45,191l62.76-46.56,40.48,10.12L834,150.51l30.36-28.34-2-2L832,146.46l-24.29,4-34.41-12.15,26.32-18.21L854.25,110l2-2Z"/></svg>