<svg id="Layer_1" data-name="Layer 1" xmlns="http://www.w3.org/2000/svg" viewBox="0 0 1073 374"><defs><style>.cls-1{fill:#fff;}</style></defs><title>branch02</title><polygon class="cls-1" points="426.38 243.65 426.38 237.39 575.07 244.38 655.05 208.95 389.97 122.59 293.22 172.47 291.45 167.17 380.87 115.94 311.08 88.63 176.38 84.64 176.38 80.38 313.95 80.38 711.98 197.38 895.63 167.44 895.63 209.66 707.03 228.62 675.99 219.61 575.95 254.62 426.38 243.65"/><path d="M313.89,80.75l397.9,117,.16.05.17,0,183.13-29.86v41.44L707.07,228.24l-30.86-9-.23-.07-.23.08-99.85,35L426.75,243.3v-5.51l148.21,7h.18l.16-.07,79-35,1.79-.8-1.86-.6-264-86-.3-.1-.27.14-96.23,49.6-1.52-4.58,88.46-50.7,1.36-.78-1.46-.57-69-27-.12,0H311l-134.27-4V80.75H313.89M314,80H176v5l135,4,69,27-89,51,2,6,97-50,264,86-79,35-149-7v7l150,11,100-35,31,9,189-19V167L712,197,314,80Z"/></svg>