<?xml version="1.0" encoding="utf-8"?>
<!-- Generator: Adobe Illustrator 22.1.0, SVG Export Plug-In . SVG Version: 6.00 Build 0)  -->
<svg version="1.1" id="Layer_1" xmlns="http://www.w3.org/2000/svg" xmlns:xlink="http://www.w3.org/1999/xlink" x="0px" y="0px"
	 viewBox="0 0 222.8 360" style="enable-background:new 0 0 222.8 360;" xml:space="preserve">
<style type="text/css">
	.st0{fill:#FF0053;}
	.st1{fill:#6200EE;}
</style>
<g>
	<polygon class="st0" points="15.9,0.2 126,47 140,112 94,172 133,211 147,276 118,328 15.9,360 223,360 223,0 	"/>
</g>
<path class="st1" d="M104.2,175v-11.4C132.6,151,149,127,149,95.5c0-61.2-44.8-95.2-133.1-95.2H0v36.6h14c65,0,94,20.8,94,58.7
	c0,38.5-29,59.9-94,59.9H0v35.3h21.6c71.3,0,102.8,24,102.8,66.2c0,42.3-32.2,66.2-102.8,66.2H0v36.6h22.8
	c94,0,142.5-35.3,142.5-102.8C165.4,217.2,139.5,186.3,104.2,175z"/>
</svg>
