<?xml version="1.0" encoding="utf-8"?>
<!-- Generator: Adobe Illustrator 22.1.0, SVG Export Plug-In . SVG Version: 6.00 Build 0)  -->
<svg version="1.1" id="Layer_1" xmlns="http://www.w3.org/2000/svg" xmlns:xlink="http://www.w3.org/1999/xlink" x="0px" y="0px"
	 viewBox="0 0 173 360" style="enable-background:new 0 0 173 360;" xml:space="preserve">
<style type="text/css">
	.st0{fill:#FF0053;}
	.st1{fill:#651FFF;}
</style>
<polygon class="st0" points="158.9,11.9 154.8,-0.1 0,-0.1 0,360 151.1,360 69.3,290.9 31.8,206.1 38.9,121.3 55.2,58.4 108.9,19.5 
	"/>
<path class="st1" d="M149.6,320.7C78.7,317.6,41.5,255.6,41.5,180c0-75.2,36.7-136.8,106.7-140.7c2.2-0.1-76.7-0.2,29.1-0.2V-0.1
	c-105.8,0-27.6,0.1-30.1,0.2C60.6,4.5,0,78.9,0,180c0,102.5,62.4,177.7,151.1,180c1.3,0-79.4,0.1,26.2,0.1V321
	C71.6,320.9,151.4,320.8,149.6,320.7z"/>
</svg>
