<?xml version="1.0" encoding="utf-8"?>
<!-- Generator: Adobe Illustrator 22.1.0, SVG Export Plug-In . SVG Version: 6.00 Build 0)  -->
<svg version="1.1" id="Layer_1" xmlns="http://www.w3.org/2000/svg" xmlns:xlink="http://www.w3.org/1999/xlink" x="0px" y="0px"
	 viewBox="0 0 178 360" style="enable-background:new 0 0 178 360;" xml:space="preserve">
<style type="text/css">
	.st0{fill:#651FFF;}
</style>
<g>
	<path class="st0" d="M7.7,39.2c42.8,0,71.1,24.1,96.5,64.5l32-25.9C104.2,26.5,65,0,7.7,0C7.6,0,4.3,0-1.8,0v39.2
		C4.3,39.2,7.6,39.2,7.7,39.2z"/>
	<path class="st0" d="M7.7,321.3c-0.1,0-3.4,0-9.5,0v39.2c6.1,0,9.4,0,9.5,0c57.3,0,96.5-26.5,128.4-78.4l-32-25.3
		C78.9,296.6,50.5,321.3,7.7,321.3z"/>
</g>
</svg>
