<?xml version="1.0" encoding="utf-8"?>
<!-- Generator: Adobe Illustrator 22.1.0, SVG Export Plug-In . SVG Version: 6.00 Build 0)  -->
<svg version="1.1" id="Layer_1" xmlns="http://www.w3.org/2000/svg" xmlns:xlink="http://www.w3.org/1999/xlink" x="0px" y="0px"
	 viewBox="0 0 222.8 360" style="enable-background:new 0 0 222.8 360;" xml:space="preserve">
<style type="text/css">
	.st0{fill:#FF0053;}
	.st1{fill:#6200EE;}
</style>
<rect x="4.1" class="st0" width="218.7" height="360"/>
<path class="st1" d="M-1.2,0.1v39.1c2-0.1,7.9-0.1,10-0.1c0.2,0,0.4,0,0.6,0V0C7.2,0,1,0.1-1.2,0.1z"/>
<path class="st1" d="M9.4,0v39.1c42.3,0.2,70.4,24.2,95.6,64.3l31.9-25.8C105.6,26.4,65.9,0,9.4,0z"/>
<path class="st1" d="M-0.2,172.5V208H99v57.7C74.3,295.7,45.5,321,6.4,321c-1.6,0-3.2,0-4.8-0.1v38.6c32.3-0.2,64.5-14.6,89-40.9
	L99,324v27h38.5V172.5H-0.2z"/>
<path class="st1" d="M-5.9,320.3v39c2.3,0.1,4.6,0.2,6.9,0.2c0.2,0,0.4,0,0.6,0v-38.6C-1,320.8-3.5,320.6-5.9,320.3z"/>
</svg>
