<?xml version="1.0" encoding="utf-8"?>
<!-- Generator: Adobe Illustrator 22.1.0, SVG Export Plug-In . SVG Version: 6.00 Build 0)  -->
<svg version="1.1" id="Layer_1" xmlns="http://www.w3.org/2000/svg" xmlns:xlink="http://www.w3.org/1999/xlink" x="0px" y="0px"
	 viewBox="0 0 222.8 360" style="enable-background:new 0 0 222.8 360;" xml:space="preserve">
<style type="text/css">
	.st0{fill:#FF0053;}
	.st1{fill:#FFFFFF;}
</style>
<rect class="st0" width="222.8" height="360"/>
<path class="st1" d="M155.2,179.9c0,98.9-55.8,176.4-144.4,179.8c-2,0.1-4,0.1-6,0.1c-3,0-5.9-0.1-8.9-0.2v-38
	c2.9,0.2,5.8,0.3,8.9,0.3c2,0,4,0,6-0.2c67.7-3.5,102.9-65.8,102.9-141.8c0-76-35.2-138.4-102.9-141.8c-2-0.1-4-0.2-6-0.2
	c-3,0-6,0.1-8.9,0.4v-38C-1.2,0.1,1.7,0,4.7,0c2,0,4,0,6,0.1C99.3,3.5,155.2,81,155.2,179.9z"/>
</svg>
