<?xml version="1.0" encoding="utf-8"?>
<!-- Generator: Adobe Illustrator 22.1.0, SVG Export Plug-In . SVG Version: 6.00 Build 0)  -->
<svg version="1.1" id="Layer_1" xmlns="http://www.w3.org/2000/svg" xmlns:xlink="http://www.w3.org/1999/xlink" x="0px" y="0px"
	 viewBox="0 0 173 360" style="enable-background:new 0 0 173 360;" xml:space="preserve">
<style type="text/css">
	.st0{fill:#FF0053;}
	.st1{fill:#FFFFFF;}
</style>
<rect class="st0" width="150.7" height="359.6"/>
<path class="st1" d="M43.2,179.9c0,74.9,34.8,136.5,100.1,141.7c2.9,0.2,5.8,0.3,8.9,0.3c2,0,23,0,25-0.2v38c-2,0.1-23,0.1-25,0.1
	c-3,0-5.9-0.1-8.9-0.2C56.3,354.7,1.7,277.7,1.7,179.9C1.7,82.1,56.3,5.2,143.3,0.2c2.9-0.2,5.9-0.2,8.9-0.2c2,0,23,0,25,0.1v37.9
	c-2-0.1-23-0.2-25-0.2c-3,0-6,0.1-8.9,0.4C78,43.4,43.2,105,43.2,179.9z"/>
</svg>
