<?xml version="1.0" encoding="utf-8"?>
<!-- Generator: Adobe Illustrator 22.1.0, SVG Export Plug-In . SVG Version: 6.00 Build 0)  -->
<svg version="1.1" id="Layer_1" xmlns="http://www.w3.org/2000/svg" xmlns:xlink="http://www.w3.org/1999/xlink" x="0px" y="0px"
	 viewBox="0 0 222.8 360" style="enable-background:new 0 0 222.8 360;" xml:space="preserve">
<style type="text/css">
	.st0{fill:#FF0053;}
	.st1{fill:#6200EE;}
</style>
<rect x="7.9" class="st0" width="214.9" height="360"/>
<path class="st1" d="M99.9,287.7l38.4,51l-28,21.4l-37.8-49.9c-19.2,11-41.1,17.5-66.3,17.5c-2.8,0-5.5-0.1-8.2-0.2v-34.6
	c2.7,0.2,5.4,0.3,8.2,0.3c12.6,0,24.1-2.2,34.5-6l3.8-14.8l-32.9-42.2l28.5-21.4L73,251.5h9.9c14.8-23,22.5-53.7,22.5-87.7
	c0-71.2-34-129.3-99.2-129.3c-2.8,0-5.5,0.1-8.2,0.3V0.2C0.7,0.1,3.4,0,6.2,0c83.8,0,137,71.8,137,163.8
	C143.2,213.7,127.8,257.5,99.9,287.7z"/>
</svg>
