<?xml version="1.0" encoding="utf-8"?>
<!-- Generator: Adobe Illustrator 22.1.0, SVG Export Plug-In . SVG Version: 6.00 Build 0)  -->
<svg version="1.1" id="Layer_1" xmlns="http://www.w3.org/2000/svg" xmlns:xlink="http://www.w3.org/1999/xlink" x="0px" y="0px"
	 viewBox="0 0 222.8 360" style="enable-background:new 0 0 222.8 360;" xml:space="preserve">
<style type="text/css">
	.st0{fill:#FF0053;}
	.st1{fill:none;}
	.st2{fill:#6200EE;}
</style>
<rect x="3" class="st0" width="219.8" height="360"/>
<path class="st1" d="M159.5,105.5c0,43-31.6,67-100.4,67H16.4v-134H59C127.9,38.5,159.5,62.5,159.5,105.5z"/>
<path class="st1" d="M22,172.4c68.8,0,100.4-24,100.4-66.9S90.9,38.5,22,38.5h-35.2v133.9H22z"/>
<path class="st2" d="M75.1,219.2v-12.6c59.4-12,90.3-46.1,90.3-101.1C165.4,37.3,116.1,0,23.3,0h-36.5v38.5H22
	c68.8,0,100.4,24,100.4,66.9S90.9,172.4,22,172.4h-35.2v38.5h33.3L125.6,360h49.9L75.1,219.2z"/>
</svg>
