<?xml version="1.0" encoding="utf-8"?>
<!-- Generator: Adobe Illustrator 22.1.0, SVG Export Plug-In . SVG Version: 6.00 Build 0)  -->
<svg version="1.1" id="Layer_1" xmlns="http://www.w3.org/2000/svg" xmlns:xlink="http://www.w3.org/1999/xlink" x="0px" y="0px"
	 viewBox="0 0 172.8 360" style="enable-background:new 0 0 172.8 360;" xml:space="preserve">
<style type="text/css">
	.st0{fill:#FF0053;}
	.st1{fill:#6200EE;}
</style>
<rect class="st0" width="167.1" height="359.6"/>
<path class="st1" d="M142.1,36.7c2.4,0,32.4,0,34.8,0.1V0c-1.6,0-9.5,0-11.1,0c-1.8,0-24.9,0-26.8,0.1v36.7
	C140,36.7,141,36.7,142.1,36.7z"/>
<path class="st1" d="M112.6,165.9c-35.7,0.2-53-31.9-53-72.6c0-34.8,32.9-55.7,79.4-56.5V0.1C69,2,19.3,40,19.3,95.1
	c0,41.7,12.6,75.5,43.3,92.5c20.6,11.4,41.2,16.8,58.7,16.7l21.7-0.1V166L112.6,165.9z"/>
<path class="st1" d="M23.5,271.5L0,306.4c34,30.1,86.6,50.4,143,53.2v-38C97.5,318.5,55.3,300,23.5,271.5z"/>
<path class="st1" d="M156.5,322.1c-4.5,0-9.1-0.2-13.5-0.5v38c4.5,0.2,9,0.4,13.5,0.4c0.7,0,22.6,0,23.3,0v-37.9
	C179.2,322.1,157.2,322.1,156.5,322.1z"/>
<polygon class="st1" points="179.9,166 143,166 143,204.3 179.9,204.2 "/>
</svg>
