<?xml version="1.0" encoding="utf-8"?>
<!-- Generator: Adobe Illustrator 22.1.0, SVG Export Plug-In . SVG Version: 6.00 Build 0)  -->
<svg version="1.1" id="Layer_1" xmlns="http://www.w3.org/2000/svg" xmlns:xlink="http://www.w3.org/1999/xlink" x="0px" y="0px"
	 viewBox="0 0 222.8 360" style="enable-background:new 0 0 222.8 360;" xml:space="preserve">
<style type="text/css">
	.st0{fill:#FF0053;}
	.st1{fill:none;}
	.st2{fill:#6200EE;}
</style>
<rect x="3" class="st0" width="219.8" height="360"/>
<path class="st1" d="M159.5,105.5c0,43-31.6,67-100.4,67H16.4v-134H59C127.9,38.5,159.5,62.5,159.5,105.5z"/>
<path class="st2" d="M141,54.2l-25.9,31.9C81.6,53.7,44.3,38.5,4.2,36.9c-2.4-0.1-4.8-0.2-7.1-0.2c-1,0-2.1,0-3.1,0V0.1
	C-4.2,0-2.3,0-0.5,0c1.6,0,3.2,0,4.7,0.1C57.1,1.2,104.1,21.4,141,54.2z"/>
<path class="st1" d="M13.6,204.2v117.8c-0.7,0-1.4,0-2.1,0c-4.5,0-9.1-0.2-13.5-0.5V204.3L13.6,204.2z"/>
<path class="st1" d="M106.7,258.3c0,41-40.5,63.2-93,63.8V204.2l27.9-0.1c12.5,0,25,2.7,36.1,8.3C94.6,221,106.7,235.1,106.7,258.3z
	"/>
<path class="st2" d="M147,255.8c0,60.9-55,103.4-133.4,104.1c-0.7,0-1.4,0-2.1,0c-4.5,0-9-0.1-13.5-0.3v-38c4.5,0.3,9,0.5,13.5,0.5
	c0.7,0,1.4,0,2.1,0c52.6-0.6,93-22.8,93-63.8c0-23.2-12.1-37.2-29.1-45.8c-11.2-5.7-23.6-8.4-36.1-8.3l-27.9,0.1L-2,204.3V166
	l15.6,0l29.3,0.1c20.4,0,40.6,4.8,58.6,14.5C129.5,195.8,147,219.6,147,255.8z"/>
</svg>
