<?xml version="1.0" encoding="utf-8"?>
<!-- Generator: Adobe Illustrator 22.1.0, SVG Export Plug-In . SVG Version: 6.00 Build 0)  -->
<svg version="1.1" id="Layer_1" xmlns="http://www.w3.org/2000/svg" xmlns:xlink="http://www.w3.org/1999/xlink" x="0px" y="0px"
	 viewBox="0 0 807.1 360" style="enable-background:new 0 0 807.1 360;" xml:space="preserve">
<style type="text/css">
	.st0{fill:#6200EE;}
</style>
<path class="st0" d="M142.1,36.7c2.4,0,662.7,0,665,0.1V0c-1.6,0-661,0-662.6,0C142.6,0-2.2,0-4,0.1v36.7
	C-3,36.7,141,36.7,142.1,36.7z"/>
<path class="st0" d="M817.6,322.1c-4.5,0-820-0.2-824.5-0.5v38c4.5,0.2,819.9,0.4,824.5,0.4c0.7,0,1.4,0,2.1,0v-37.9
	C819,322.1,818.3,322.1,817.6,322.1z"/>
<polygon class="st0" points="819.7,166 -6.9,166 -6.9,204.3 819.7,204.2 "/>
</svg>
