<?xml version="1.0" encoding="utf-8"?>
<!-- Generator: Adobe Illustrator 22.1.0, SVG Export Plug-In . SVG Version: 6.00 Build 0)  -->
<svg version="1.1" id="Layer_1" xmlns="http://www.w3.org/2000/svg" xmlns:xlink="http://www.w3.org/1999/xlink" x="0px" y="0px"
	 viewBox="0 0 716 492" style="enable-background:new 0 0 716 492;" xml:space="preserve">
<style type="text/css">
	.st0{fill:#FFBE29;stroke:#000000;stroke-width:2.1258;}
	.st1{fill:#FFBE29;stroke:#000000;stroke-width:5.5598;}
	.st2{stroke:#000000;stroke-width:5.5598;}
	.st3{fill:#FFBE29;}
</style>
<path id="leaf_7_" class="st0" d="M651.7,412.1c0,0,6.8,13.8,14.3,19.5c11.1,8.4,33.9,7.8,43.6,17.5c11.6,11.5-0.9,26.7-0.8,28
	l0.6,8c0,0-7.8,0.1-11.1,0.6c-5,0.8-6.9,4.8-16.1,4.2c-23.2-1.5-22.3-22.4-23.6-40.2c-1.2-6.8-3.9-15.7-5.4-22.5
	C652,421.3,651.7,412.1,651.7,412.1L651.7,412.1z"/>
<g transform="matrix(-1,0,0,1,1585,0)">
	<path id="leaf_6_" class="st0" d="M938.7,77.5c0,0-11.5-10.2-15-19c-5.1-12.9,1.5-34.8-5.3-46.7c-8-14.2-26-6.2-27.2-6.7l-7.6-2.7
		c0,0-2.2,7.5-3.5,10.5c-2.1,4.6-6.5,5.4-8.3,14.4c-4.7,22.8,15.7,27.5,32.5,33.4c6.2,3,14.1,7.9,20.3,11.2
		C929.9,74.7,938.7,77.5,938.7,77.5L938.7,77.5z"/>
</g>
<g transform="matrix(1,0,0,-1,0,600)">
	<path id="leaf_5_" class="st0" d="M72.7,528c0,0-9.3,12.2-17.8,16.4c-12.5,6.1-34.8,1.1-46.2,8.7c-13.6,9-4.3,26.4-4.7,27.6
		L2,588.4c0,0,7.6,1.6,10.8,2.7c4.7,1.8,5.8,6,15,7.2c23,3,26.2-17.6,31-34.9c2.5-6.4,6.9-14.6,9.7-21C70.7,536.9,72.7,528,72.7,528
		L72.7,528z"/>
</g>
<g transform="matrix(-1,0,0,-1,1585,600)">
	<path id="leaf_4_" class="st0" d="M1508.3,176.5c0,0,13.3-7.8,18.4-15.6c7.5-11.7,5.3-34.4,14.3-44.7c10.6-12.4,26.7-1,28-1.2
		l7.9-1.2c0,0,0.7,7.8,1.4,11c1.2,4.9,5.3,6.5,5.3,15.8c0.1,23.2-20.8,23.8-38.4,26.4c-6.7,1.7-15.4,5-22.1,7
		C1517.5,175.6,1508.3,176.5,1508.3,176.5L1508.3,176.5z"/>
</g>
<g>
	<g id="lion_3_">
		<path class="st1" d="M247.2,425.6l4.4-2.5l1.9,2.5c2.5,3.4,9.4,3.3,13.9-0.1l3.5-2.6l2.9,2.6c3.8,3.4,11,3.4,15.6,0
			c3.2-2.4,3.7-2.4,5.8-0.6c1.3,1.1,5,2.3,8.2,2.7c5.9,0.8,6,0.7,9.4-4.4c2.9-4.3,3.3-6.1,2.6-10.3c-0.5-2.8-0.9-7.3-1.1-9.9
			c-0.3-4.9-0.2-4.9,6.9-7.4c3.9-1.4,8.5-3.2,10.1-4.1c2.8-1.5,10.6-10.7,10.6-12.5c0-0.5-3.1-1.2-6.8-1.6
			c-14.8-1.7-17.3-9.6-7.7-24.4c15.7-24.1,25.2-47.6,25.3-62.6c0-6.7,0.4-8.9,1.3-7.5c3.5,5.9-2.8,30.9-12.3,48.8l-3.8,7.2l3.7-0.8
			c2-0.5,13.9-5.5,26.3-11.1c34.1-15.5,45.8-18.5,67.9-17.5c18.5,0.8,26.4,4.4,39.4,18.1c6.9,7.3,13.6,12.4,25.8,20.1
			c26,16.3,27.1,17.7,28.3,36.8c1.3,19.4,0.6,20.4-14,23.7c-12.5,2.8-20.4,8.6-22.5,16.7c-1.1,4.3,1.2,4.5,7.6,0.4l4.6-3l2.1,3
			c2.7,3.9,8.5,3.9,13.2,0l3.6-2.9l3.7,2.9c5.7,4.6,13.3,3.5,15.5-2.3c0.4-1.1,1.5-0.7,3.8,1.2c4.2,3.6,14.9,5.2,16.1,2.3
			c0.4-1.1-0.4-3.8-1.9-6c-6.2-9.4-8.2-13.8-8.3-18.9c-0.1-7.1,2-10.5,10.1-16.3c9.8-7,12.8-16,5.4-16c-4.6,0-9.2-4.1-12.2-10.7
			c-6-13.5-4.8-28.6,4.2-53.7c9.2-25.5,10.2-30.2,10.2-47.3c0-13.8-0.3-16.2-3.5-23.7c-1.9-4.6-5.8-11.5-8.6-15.3l-5.2-6.9l6.6-5.5
			c20.2-16.8,16.1-44.2-8.3-54.8c-7.5-3.2-9.3-3.5-22.4-3.4c-7.8,0.1-19.8,1.1-26.5,2.3c-6.9,1.2-18.6,2.2-26.6,2.3
			c-12.7,0.1-14.9-0.3-19.8-2.9c-5.1-2.7-6-4-7-10.3c-0.2-1.3-1.1-2.6-2-2.9c-1.7-0.5-9.8,6.4-11,9.5c-0.6,1.5-1.1,1.4-2.8-0.6
			c-1.1-1.3-2.7-4.4-3.5-6.9c-2-6.1,0.5-10.7,7.7-14.2l5.6-2.7l-3.3-2c-6.8-4.2-18.4-1.3-22.6,5.6c-1.2,2-2.5,3.6-2.9,3.6
			s-2.6-1.9-5-4.2c-8.8-8.6-5.8-21.3,6-25.2c6.3-2.1,11.8-0.5,13,3.7c1.8,6.4,7.2-2,6.3-9.6c-0.7-5-0.6-5.2,2.9-5.2
			c4.8,0,15.2,6.4,18.4,11.3c3.7,5.8,3.4,14.8-0.6,21.6l-3.2,5.3l4.2-0.8c6.1-1.2,12.1-5,15.1-9.7c3.2-4.9,3.5-14.4,0.7-19.6
			c-2.7-5-2.4-5.8,1.6-4.1c6.9,2.9,10.6,6,13.3,11.4c2.5,4.9,2.6,6.1,1.3,11.2c-0.8,3.1-2.7,7.2-4.1,9.1c-2.2,3-2.3,3.5-0.5,3.5
			c3.3,0,10.2-3.1,12.7-5.7c1.2-1.3,3-4.6,4-7.2l1.8-4.8l2,3.7c2.9,5.2,8.4,9.9,15.2,12.8c7.3,3.1,10.3,3.3,6.5,0.4
			c-2.6-2-7.3-15.9-5.9-17.2c0.8-0.8,10.7,6.8,22.1,17c10.7,9.6,17.4,12.7,27.2,12.7c12.5,0,19.9-10.9,14.2-21.3
			c-3.3-6-10.6-6.9-14.9-1.7c-2,2.4-2.5,4.3-1.9,6.7c0.7,3,0.4,3.5-2.3,3.5c-3.6,0-10.8-4.7-23.6-15.3c-19.5-16.2-43.1-30-60.2-35.1
			c-11-3.2-34.4-4.5-45.5-2.4c-12.1,2.2-26.3,9.1-34.1,16.5c-13.8,13.1-14,30.5-0.6,46.4l3.8,4.5l-2.6,4c-3.8,5.9-3.5,13.8,0.8,19.6
			c1.9,2.6,3.8,4.7,4.2,4.7c0.4,0,0.9-1.7,1.1-3.7c0.4-5.1,2.6-8.5,6.3-9.9c3.4-1.2,5.6-0.6,21.1,5.5c16.3,6.5,43.1,6.9,71.6,1.2
			c14-2.8,30.4-2.7,37.7,0.4c13.3,5.6,16.4,20,6.6,31c-4.2,4.8-8.3,6.7-22,10.4c-10.4,2.9-12.9,3-36.5,2.8
			c-20.2-0.2-27.5,0.2-35.7,1.9c-9,1.9-14.5,2.1-40.8,1.4l-30.4-0.8l3.4,2.8c1.9,1.5,4.5,3.4,5.8,4.2c2.3,1.3,2.2,1.5-1.2,2.8
			c-2,0.7-6.5,1.4-9.9,1.4h-6.2l-0.8,5.3c-0.5,2.9-0.4,6.3,0.1,7.6c0.7,1.8,0.5,2.1-1.5,1.4c-1.3-0.5-5-1.4-8.1-2.1
			c-3.2-0.7-7.4-2-9.4-3c-3.4-1.7-3.8-1.6-5.1,0.6c-1.1,2-11.7,9.9-13.3,9.9c-0.3,0-0.6-1.5-0.7-3.4s-1.7-6.7-3.4-10.7
			c-1.7-4-3.5-8.5-4-9.8c-0.7-2-1-2.1-1.9-0.6c-0.6,1-1.4,3.8-1.9,6.1c-0.4,2.4-2,6.2-3.5,8.5l-2.7,4.2l-1.7-3.6
			c-1.9-3.9-5-7.9-6.1-7.9c-0.4,0-1,1.2-1.4,2.8c-0.9,3.2-8.2,12-10,12c-0.7,0-1.2-2.5-1.2-5.5s-0.6-5.5-1.3-5.5s-1.3,0.8-1.3,1.7
			c0,2.3-6.3,9.3-8.4,9.3c-0.9,0-2.4,0.8-3.3,1.8c-2.3,2.6-4.2,2.3-3.2-0.6c0.5-1.4,0.2-4.5-0.7-7.1c-0.8-2.5-1.7-5.2-1.9-6
			c-0.3-1-2.6-0.7-7.3,0.8c-7.7,2.5-10.3,2-6.3-1.1c1.4-1.1,3.6-5.1,4.9-8.7c1.2-3.7,3.1-6.9,4.1-7.2c1.4-0.4,1.3,0.1-0.3,2.3
			c-1.2,1.6-2.1,3.7-2.1,4.8c0,1-0.9,3.5-2,5.4c-1.1,2-1.8,3.7-1.5,4c0.2,0.2,3.2-0.9,6.5-2.5l6-2.9v2.6c0,1.4,0.7,5.2,1.6,8.4
			l1.6,5.8l4.1-1.9c4.2-1.9,8.2-8.8,8.2-14.2c0-2.6,1.5-2.2,2.1,0.6c0.2,0.8,1.1,3.9,2.1,6.9l1.8,5.4l2.8-3.4
			c1.5-1.9,3.5-5.5,4.3-8.1c1.4-4.5,3.7-6.5,3.7-3.2c0,2.4,6.5,10.9,7.7,10.1c0.6-0.4,1.8-3.5,2.7-7.1c1.8-7.4,4.7-12.4,6.5-11.3
			c0.7,0.4,1,1.2,0.6,1.7c-0.4,0.6,1.1,5.3,3.3,10.6c2.2,5.3,4.4,10.6,4.9,11.9c0.8,2,1.5,1.7,6.2-2.5c2.9-2.6,5.6-5.4,5.9-6.4
			c0.5-1.4,1.1-1.4,3.9,0.3c3.8,2.4,16.6,6.2,17.6,5.2c0.4-0.4,0.7-3.7,0.8-7.5l0.2-6.8l3.7,0.8c2,0.4,6.3,0.4,9.5-0.1l5.8-0.8
			l-5.1-3.5c-2.8-1.9-5.7-4.5-6.4-5.6c-0.7-1.2-3.2-2.2-6.1-2.5c-7.7-0.7-21.4-8.3-21.4-12c0-0.7,1.9,0.5,4.2,2.6
			c5.1,4.7,12.3,7.7,18.5,7.7h4.7l-2.9-3.8c-1.7-2.2-3.1-6.4-3.5-9.8c-0.6-5.5-1.1-6.4-6.9-10.3c-3.4-2.4-7.7-6-9.5-8l-3.2-3.6
			l-1.6,4.3c-0.9,2.4-2,4.3-2.4,4.3s-2.2-1.4-3.9-3.1c-1.7-1.7-3.4-3.1-3.8-3.1s-1.9,2.3-3.3,5l-2.5,5l-2-2.9
			c-1.1-1.6-3.6-4.4-5.7-6.3s-3.1-3.4-2.4-3.4s3.3,1.9,5.6,4.3l4.3,4.3l1.7-3.1c1-1.9,1.4-4.7,1-7.1c-0.7-3.4-0.6-3.6,0.7-1.5
			c0.8,1.3,3.3,3.9,5.6,5.7l4.1,3.3l2.8-5.1c2.8-5.1,2.8-5.1,4.1-2.1c1.7,4.1,14,14.1,24.4,20c1.6,0.9,0.9-2.2-2-9.4
			c-0.8-1.9-1.4-5.3-1.4-7.6c0-3.4-1-4.9-5.3-8.2c-6.3-4.8-8.3-8.2-9.5-15.8c-0.5-3.1-1.6-6.6-2.4-7.7c-1.3-1.7-1.5-0.7-1.1,5
			c0.2,3.9-0.3,8.7-1.1,10.8l-1.5,3.7l-1.2-3.1c-0.7-1.7-3.6-4.6-6.5-6.5s-4.9-3.8-4.5-4.2s3.4,1.3,6.6,3.8c4.9,3.8,6,4.2,6.7,2.5
			c0.8-2,0-10.6-1.5-16.6c-0.8-3-0.7-3,3,0.7c2.7,2.7,4.2,6,5.4,11.6c1.5,7.2,2.2,8.4,8.9,14.3c4,3.5,7.5,6.2,7.7,6
			c0.3-0.2,0.8-9.3,1.1-20.2c0.7-20.8-0.1-25.8-5.1-32.2l-2.6-3.3l4.1-4.4c5.3-5.7,7.7-10.3,8.8-16.5l0.9-5.1l-4.6,4.3
			c-3.7,3.5-5.5,4.3-9.9,4.3c-4.3,0-6-0.7-8.9-3.8c-3.5-3.7-9.6-7.3-15.5-9c-2.2-0.6-2.9-0.4-2.9,1.1c0,1.1-1.2,4.2-2.7,7l-2.7,5
			l-5.6-5.6c-3.4-3.4-7.5-6.1-10.6-6.9c-7.8-2-8.2-1.8-8.2,4c0,8.8-3.8,10.4-10.5,4.6c-5.2-4.5-9.4-5.4-19.2-4.4l-7.5,0.8l1.4,3.4
			c1.1,2.8,0.9,4-1.6,7.3c-3.9,5.2-9.1,7.5-16.9,7.5c-3.6,0-8.2,0.8-10.1,1.7c-1.9,0.9-6.7,2-10.6,2.4c-3.9,0.4-8.1,1-9.3,1.5
			c-1.9,0.7-2.1,0.1-1.5-4.1c0.9-6.5-3.6-11.2-10.6-11.2c-9.1,0-13.3,8.2-9.8,18.9c0.7,2.1,1.6,5.3,2,7.3s4.5,7.3,9.6,12.3
			c4.9,4.9,9.4,9.9,10.2,11.2s3.2,3.4,5.5,4.7l4.2,2.3l-0.5-4.5c-0.6-4.9,0.5-5.7,3.1-2.2c0.9,1.2,3.3,3.2,5.3,4.4
			c3.1,1.9,3.6,1.9,3.6,0.3c0-1,0.6-3.5,1.4-5.4l1.4-3.5l2.4,4.7c1.3,2.6,5.7,8.5,9.6,13c7.7,8.9,12.4,18.9,10,21.2
			c-1,0.9-3.6,0.9-9.1-0.2c-4.3-0.9-9.5-1.3-11.7-1c-4.5,0.6-4.8,0-2.1-3.4c2.9-3.6,2.4-4.2-3.3-4.2c-6.6,0-22.9-3.2-29.2-5.6
			c-6.1-2.4-7.5-1.8-9.3,4c-0.8,2.6-2.3,7.3-3.3,10.5l-1.8,5.7l6.6-0.6c3.6-0.3,8.3-1.1,10.4-1.8c2.1-0.6,4-1,4.2-0.7
			c0.2,0.2-0.7,2.5-2.1,5l-2.5,4.6l4.1-0.8c2.3-0.5,5.7-1.6,7.6-2.5c3.3-1.6,3.6-1.5,6.2,2.7c3.2,5.1,5.8,4.9,6.3-0.5
			c0.6-5.6,2.4-4.8,5.9,2.7c3.4,7.2,6.8,9.7,7.5,5.5c0.2-1.4,2-3.7,4-5.1c4-2.8,7-2,8.8,2.5c1.8,4.6-2.2,9.3-13.9,16.4
			c-23.3,14.1-36.9,33.5-40.8,58.1c-3.5,22.2,7.4,45.2,29.3,61.7c10.5,7.9,27.1,16.2,26,13.1c-4.5-13.5-4.3-39.3,0.3-43.6
			c0.7-0.7,0.5,2-0.5,6c-3.6,14.7-2.1,26.4,7.3,53.8c8.5,24.8,7.3,35.4-4.7,42.4c-3.8,2.2-6.3,2.6-16.6,2.5c-11.2-0.1-12.4,0.1-16,3
			c-3.5,2.8-8,11.9-8,16.2C239.6,428.8,242.1,428.5,247.2,425.6L247.2,425.6z"/>
		<path class="st1" d="M429.1,425.1l4.7-3l3.2,3c4.2,4,9.1,3.9,13.1-0.2c1.8-1.8,3.3-3,3.5-2.8c0.2,0.3,1,1.6,1.7,3
			c1,1.7,3,2.6,6.7,2.8c4.4,0.3,5.6-0.1,7.4-2.7l2.1-3l4.6,3c12.7,8.1,19.4-0.4,13.8-17.4c-2.9-8.6-1.3-13.5,8-24.5
			c3.9-4.6,7.1-9.6,7.1-11c0-2.3-0.7-2.6-5.9-2.5c-5,0.1-6.4-0.4-9.1-3.3c-4.3-4.7-4-10.1,0.8-16l3.8-4.8l-6.8-4.6
			c-3.7-2.5-10.4-8.5-14.9-13.3c-10.1-10.7-19.9-15.8-33-17l-8.7-0.8v6.6c0,8.5,4,16.7,14.9,30.6c12.4,15.8,13.3,18.2,13.8,38.8
			l0.4,17.4l-3.6,3.4c-3.2,3.1-4.7,3.5-15.2,4.1c-10,0.6-12.1,1.1-15,3.7c-3.9,3.4-5,5.3-6.2,10.1c-0.7,2.8-0.4,3.4,1.6,3.4
			C423.3,428.1,426.5,426.7,429.1,425.1L429.1,425.1z"/>
		<path class="st1" d="M162.4,380c1.1-1.5,2-3.9,2-5.4c0-2.2,1-2.8,5.8-3.5l5.8-0.8l-3.9-3.1c-4.6-3.7-5-6.6-1-6.6
			c4.1,0,10.9-4.2,12-7.3c0.5-1.4,0.2-3.4-0.7-4.4c-2.3-2.6-6.5-2.2-7.3,0.7c-0.9,3.1-2.3,3.1-5.5,0c-4.9-4.6-5-14.2-0.2-19.7
			c2.2-2.6,2.2-2.8-0.6-5.5c-3.1-2.9-5.3-8.7-3.8-10c0.5-0.4,2.9-0.1,5.4,0.8c3.6,1.2,5,1.2,6.4,0.1c4.4-3.5-0.4-8-7.5-7
			c-2.9,0.4-4.1,0-4.5-1.5c-0.3-1.1-2.8-2.6-5.7-3.3c-5.1-1.3-5.1-1.3-5.1,2.2c0,3.8-2.2,4.5-6.3,2.1c-3.4-2-6.6-0.4-6.6,3.1
			c0,3.3,3.4,5,9.4,4.6c4.6-0.3,4.8,3.1,0.4,8.1l-3.2,3.6l2.5,3.6c3.7,5.3,3.4,14.2-0.7,18.5l-3.2,3.4l-2.1-2.8
			c-2.9-3.8-6.8-3.6-7.9,0.5c-0.7,2.7-0.1,3.9,3.2,6.7c2.3,1.9,5.5,3.5,7.3,3.5c4.4,0,4.2,3.4-0.3,6.9l-3.6,2.7l5.5,0.9
			c3,0.5,5.5,1.4,5.5,2c0,2.3,3.8,9.6,5,9.6C159.9,382.7,161.3,381.5,162.4,380L162.4,380z"/>
		<path class="st1" d="M234.1,348.9c5-2,15.8-11.1,15.8-13.4c0-0.7-3-4-6.6-7.3c-7.7-7-16-18.7-18.2-25.5c-1.1-3.6-6.6-9.7-22-24.6
			l-20.4-19.8l-5.9,1.5c-3.2,0.8-7.2,1.5-8.8,1.5c-2.7,0-2.7,0.2,1,3l3.8,3l5.4-3c5.2-2.9,5.4-2.9,6.1-0.6c0.4,1.4-0.4,3.7-1.9,5.5
			c-1.4,1.7-2.2,3.6-1.8,4.3c0.4,0.7-0.9,2-3,3c-3.8,1.9-6.5,8.1-3.5,8.1c2.7,0,8.7-7.4,8-9.9c-0.4-1.3-0.2-2.6,0.4-2.9
			c2.3-1.4,2.2,4.5-0.2,7.3c-1.4,1.7-2.2,3.6-1.8,4.3c0.4,0.7-0.9,2-3,3c-3.8,1.9-6.5,8.1-3.5,8.1c2.9,0,8.9-7.1,8.1-9.7
			c-0.4-1.4-0.2-2.8,0.3-3.1c1.6-0.9,2.4,3.7,1.1,5.9c-0.7,1.2-0.7,2.9,0,4.2c1.3,2.4,0,6.9-2.4,8.3c-1,0.6-0.3,1.8,2.2,3.7
			c3.6,2.7,3.7,3,3.7,15.1c0,10.1,0.4,12.7,2.3,14.5c2.1,2,2.3,2,2.3,0.1c0-2.1,3.6-4.6,6.6-4.6c0.9,0,6.4,4.6,12.2,10.3
			c5.9,5.7,12,10.6,13.7,10.9s3.6,0.6,4.1,0.7C228.8,350.7,231.5,350,234.1,348.9L234.1,348.9z"/>
		<path class="st1" d="M171.6,300c0-3.3-6.7-6.7-14.8-7.6c-6.5-0.7-6.6-0.7-6.6,2.6c0,2.7,1,3.7,5.5,5.7
			C162.9,303.7,171.6,303.4,171.6,300L171.6,300z"/>
		<path class="st1" d="M179,299.7c3.3-3,4.8-6.5,2.9-6.5c-2.3,0-8.3,5.4-8.3,7.4C173.5,303.8,174.6,303.6,179,299.7L179,299.7z"/>
		<path class="st1" d="M172,290.1c0.3-1.8-0.9-3.1-4.3-4.6c-7.4-3.3-16.2-4.9-18.3-3.2c-3.9,3.1-1.3,7.2,5,7.9
			c2.5,0.3,6,1.1,7.6,1.7C166.9,293.8,171.5,292.9,172,290.1z"/>
		<path class="st1" d="M172,280.2c0.4-2.6-1.3-3.6-15-8.4c-10.2-3.6-14.8-1.9-11.5,4.3c1.1,2.2,3,3.2,7.3,3.8
			c3.2,0.5,7.5,1.4,9.7,2.1C168.2,283.8,171.5,283.1,172,280.2L172,280.2z"/>
		<path class="st1" d="M178.8,271c2.1-2.1,3.8-4.6,3.8-5.5c0-3-8.2,2.3-9.2,6C172.1,275.9,174.2,275.7,178.8,271L178.8,271z"/>
		<path class="st1" d="M172,270.4c0.5-3-4.5-5.7-14.3-7.8c-7.2-1.5-10.3-0.7-9.8,2.7c0.3,1.8,2.7,3.1,9.5,5.3
			C168.2,273.9,171.4,273.9,172,270.4L172,270.4z"/>
		<path class="st1" d="M181.5,256.5c12.5-5.6,13.6-19.6,1.8-23.3c-4.9-1.5-8-0.7-9.9,2.6c-1.4,2.5-0.5,7.2,1.5,7.2
			c0.7,0,1.2,0.9,1.2,1.9c0,4.9-19.1,7.1-27,3.1c-2.8-1.4-4-5-1.7-5c1.7,0,2.9-3.7,2-6.3c-1.2-3.6-4.8-4.8-10-3.4
			c-11.7,3.1-11.4,16.9,0.5,22.7C149.9,260.7,171.4,261,181.5,256.5L181.5,256.5z"/>
		<path class="st1" d="M173.7,245.6c0.7-0.7,0.4-1.7-0.8-2.7c-2.7-2.1-2.5-5.2,0.4-8.8c2.2-2.7,2.5-6.7,3.2-47.1
			c1.3-69.6,6.5-122,13.3-134.5c2.7-5,2.3-5-4.7-0.2c-9,6.2-15.9,14.2-22,25.6c-11.5,21.7-15.5,50.8-15.5,113
			c0,35.3,0.2,39.9,2.3,43.2c1.9,3.2,2,4.3,0.7,7.7c-0.9,2.2-1.3,4.3-0.9,4.6C152.2,248.9,171,248.3,173.7,245.6L173.7,245.6z"/>
		<path class="st1" d="M279,179.3c0.4-0.6-0.5-3.6-1.9-6.7c-2.3-4.8-3.2-5.7-6.4-5.7c-10.1,0-26.3-4.5-43.1-12
			c-9.7-4.3-13-5.3-14.2-4.2c-3,2.8,2,9.5,9.6,12.9c6.8,3.1,25.6,6.9,34.2,6.9c5,0,5.1,0.2,2.3,4.3l-2.1,3l5.7,0.1
			c3.1,0.1,7.4,0.6,9.5,1.1C278.1,180.5,278.2,180.5,279,179.3L279,179.3z"/>
		<path class="st2" d="M338,210.6c0-1.8-5.3-6.7-10.6-9.8c-4.2-2.5-4.9-2.5-4.9-0.5c0,3.1-2.7,10.7-3.8,10.7c-0.6,0-1.5-1.5-2-3.3
			s-2.5-5.4-4.5-8l-3.6-4.7l-2.8,4.4c-2.6,4.1-7.2,8-9.3,8c-0.5,0-0.6-2.1-0.2-4.7c0.4-2.8,0.1-5.1-0.8-5.6
			c-0.8-0.5-1.4-0.3-1.4,0.4c0,1.5-6.4,8.8-7.7,8.8c-0.6,0-1.3-2.1-1.7-4.6c-0.4-2.5-1.1-6.5-1.5-8.9s0.5-0.8,2,3.6l2.8,7.8l3.1-4.8
			c1.7-2.6,3.1-5.5,3.1-6.4s0.6-1.3,1.3-0.9c0.7,0.4,1.7,3.6,2.1,7l0.9,6.3l3.4-3.7c1.9-2,4-4.7,4.8-6c1.4-2.3,1.5-2.3,4.3,0.1
			c1.6,1.3,4,4.6,5.4,7.2c1.4,2.6,2.7,4.5,3,4.3c0.2-0.2,0.7-2.9,1.1-5.9s0.8-5.6,0.8-5.8c0.2-0.8,10.1,5.7,13.8,9
			c2.4,2.1,4.6,3.5,5,3.2c0.4-0.4,0.7-3.5,0.7-6.9c0-5.3-0.6-6.7-3.8-9.6c-3.7-3.3-3.8-3.4-5.2-0.9c-1.8,3.2-3.9,3.2-3.9,0.1
			c0-2.3-7.1-11.1-8.9-11.1c-0.5,0-2,1.9-3.3,4.3c-1.3,2.4-2.8,4.3-3.2,4.3c-1.8,0-11.8-11.1-11.8-13.1c0-1.6,0.7-1.2,2.4,1.5
			c1.3,2,4,5,5.9,6.7c3.9,3.4,5.3,2.6,6.8-4c0.4-1.9,1.2-3.4,1.6-3.4c1.7,0,10.3,9.2,11.5,12.3l1.2,3.1l0.9-3.4
			c1.1-4.1,2.4-4.3,4.2-0.5c0.8,1.6,4.5,4.8,8.3,7.3l6.9,4.4l1.4-4.4c0.8-2.4,1.8-3.8,2.3-3.1c0.7,1.1-1.1,8.4-2.5,10
			c-0.2,0.2-2.4-1.1-5-2.9l-4.6-3.3v6c0,3.3-0.4,7.2-0.8,8.7C340.2,212.4,338,213.3,338,210.6L338,210.6z"/>
		<path class="st2" d="M303.4,163c-8.2-6.9-9.5-8.4-9.3-11.7l0.2-3.5l0.5,3.3c0.3,2,2.5,4.9,5.3,7l4.7,3.7l2.9-3.4
			c1.6-1.8,2.9-4.1,3-4.9c0.1-2.2,0.5-2,6,2.8c5,4.3,5,4.3,5.8,1.5c0.4-1.6,0.3-4.5-0.3-6.5c-1.6-5.5-1.3-6.4,1.2-3
			c1.2,1.7,3.2,4,4.4,5.2c2.1,2.1,2.2,2.1,2.9-0.6c0.4-1.6,0.8-4.4,0.8-6.3v-3.5l4.5,5.1c4.2,4.7,4.6,4.9,5.8,2.6
			c0.7-1.3,1.4-4.5,1.4-7.1c0-3.3,0.4-4.2,1.2-2.9c1.4,2.1,0.4,7.9-2.2,12.8l-1.9,3.5l-2.5-3.8c-3.1-4.9-4.2-4.8-6.2,0.5
			c-1.9,5-3.1,5.4-5,1.5c-1.2-2.5-1.4-2.2-2.3,3l-0.9,5.8l-5.7-4.4l-5.7-4.4l-2.6,2.9c-1.4,1.6-2.6,3.6-2.6,4.4
			C306.9,164.7,305.5,164.8,303.4,163L303.4,163z"/>
		<path class="st2" d="M376.7,137.4c-3-2.7-5.1-5.3-4.6-5.7s1-0.6,1.2-0.3s2.6,2.9,5.4,5.7C385.2,143.7,383.9,143.9,376.7,137.4
			L376.7,137.4z"/>
		<path class="st2" d="M279.1,127.4c-2.7-3.7-2.5-6.1,0.8-10.1c2.4-2.9,3.5-3.3,7.7-2.7c2.7,0.3,8.5,2.7,12.8,5.3
			c5.1,3,10.3,4.9,14.3,5.4c3.5,0.4,6.4,0.6,6.4,0.4s-1.5-2.6-3.2-5.3c-4.2-6.3-4.1-7,0.7-3.2c4.9,3.9,10.8,5,23.8,4.6l6.4-0.2
			l-3.7-3.7c-5.2-5.1-3.6-5.6,2.1-0.6c5.4,4.7,5,5-6.3,6.1c-4.8,0.5-10,0.1-14.3-1c-6.4-1.6-6.7-1.6-5.5,0.5
			c0.7,1.2,1.8,2.3,2.5,2.3s1.2,0.6,1.2,1.4c0,2.4-13.9,0.3-20.5-3.1c-15.2-7.7-17.1-8.3-20.7-7.2c-2,0.6-4,2.5-4.7,4.3
			c-2.3,6.2,6.5,11,10.1,5.5c1-1.6,0.8-2.7-1-4.6c-2.5-2.6-2.3-3,1.1-1.8c2.4,0.9,2.7,6.7,0.5,8.8
			C287.2,131,281.4,130.4,279.1,127.4L279.1,127.4z"/>
		<path class="st2" d="M338.8,112.1c-1.9-1.8-0.4-2.2,8.1-2.4c10.5-0.2,16.9-1.9,24.4-6.7c6-3.8,7.7-3.1,1.9,0.9
			c-5.2,3.6-13.4,6.4-21.2,7.2c-3.8,0.4-8.2,1-9.6,1.3C340.9,112.6,339.3,112.5,338.8,112.1L338.8,112.1z"/>
	</g>
</g>
<g id="lion_2_">
	<path class="st3" d="M247.2,425.6l4.4-2.5l1.9,2.5c2.5,3.4,9.4,3.3,13.9-0.1l3.5-2.6l2.9,2.6c3.8,3.4,11,3.4,15.6,0
		c3.2-2.4,3.7-2.4,5.8-0.6c1.3,1.1,5,2.3,8.2,2.7c5.9,0.8,6,0.7,9.4-4.4c2.9-4.3,3.3-6.1,2.6-10.3c-0.5-2.8-0.9-7.3-1.1-9.9
		c-0.3-4.9-0.2-4.9,6.9-7.4c3.9-1.4,8.5-3.2,10.1-4.1c2.8-1.5,10.6-10.7,10.6-12.5c0-0.5-3.1-1.2-6.8-1.6
		c-14.8-1.7-17.3-9.6-7.7-24.4c15.7-24.1,25.2-47.6,25.3-62.6c0-6.7,0.4-8.9,1.3-7.5c3.5,5.9-2.8,30.9-12.3,48.8l-3.8,7.2l3.7-0.8
		c2-0.5,13.9-5.5,26.3-11.1c34.1-15.5,45.8-18.5,67.9-17.5c18.5,0.8,26.4,4.4,39.4,18.1c6.9,7.3,13.6,12.4,25.8,20.1
		c26,16.3,27.1,17.7,28.3,36.8c1.3,19.4,0.6,20.4-14,23.7c-12.5,2.8-20.4,8.6-22.5,16.7c-1.1,4.3,1.2,4.5,7.6,0.4l4.6-3l2.1,3
		c2.7,3.9,8.5,3.9,13.2,0l3.6-2.9l3.7,2.9c5.7,4.6,13.3,3.5,15.5-2.3c0.4-1.1,1.5-0.7,3.8,1.2c4.2,3.6,14.9,5.2,16.1,2.3
		c0.4-1.1-0.4-3.8-1.9-6c-6.2-9.4-8.2-13.8-8.3-18.9c-0.1-7.1,2-10.5,10.1-16.3c9.8-7,12.8-16,5.4-16c-4.6,0-9.2-4.1-12.2-10.7
		c-6-13.5-4.8-28.6,4.2-53.7c9.2-25.5,10.2-30.2,10.2-47.3c0-13.8-0.3-16.2-3.5-23.7c-1.9-4.6-5.8-11.5-8.6-15.3l-5.2-6.9l6.6-5.5
		c20.2-16.8,16.1-44.2-8.3-54.8c-7.5-3.2-9.3-3.5-22.4-3.4c-7.8,0.1-19.8,1.1-26.5,2.3c-6.9,1.2-18.6,2.2-26.6,2.3
		c-12.7,0.1-14.9-0.3-19.8-2.9c-5.1-2.7-6-4-7-10.3c-0.2-1.3-1.1-2.6-2-2.9c-1.7-0.5-9.8,6.4-11,9.5c-0.6,1.5-1.1,1.4-2.8-0.6
		c-1.1-1.3-2.7-4.4-3.5-6.9c-2-6.1,0.5-10.7,7.7-14.2l5.6-2.7l-3.3-2c-6.8-4.2-18.4-1.3-22.6,5.6c-1.2,2-2.5,3.6-2.9,3.6
		s-2.6-1.9-5-4.2c-8.8-8.6-5.8-21.3,6-25.2c6.3-2.1,11.8-0.5,13,3.7c1.8,6.4,7.2-2,6.3-9.6c-0.7-5-0.6-5.2,2.9-5.2
		c4.8,0,15.2,6.4,18.4,11.3c3.7,5.8,3.4,14.8-0.6,21.6l-3.2,5.3l4.2-0.8c6.1-1.2,12.1-5,15.1-9.7c3.2-4.9,3.5-14.4,0.7-19.6
		c-2.7-5-2.4-5.8,1.6-4.1c6.9,2.9,10.6,6,13.3,11.4c2.5,4.9,2.6,6.1,1.3,11.2c-0.8,3.1-2.7,7.2-4.1,9.1c-2.2,3-2.3,3.5-0.5,3.5
		c3.3,0,10.2-3.1,12.7-5.7c1.2-1.3,3-4.6,4-7.2l1.8-4.8l2,3.7c2.9,5.2,8.4,9.9,15.2,12.8c7.3,3.1,10.3,3.3,6.5,0.4
		c-2.6-2-7.3-15.9-5.9-17.2c0.8-0.8,10.7,6.8,22.1,17c10.7,9.6,17.4,12.7,27.2,12.7c12.5,0,19.9-10.9,14.2-21.3
		c-3.3-6-10.6-6.9-14.9-1.7c-2,2.4-2.5,4.3-1.9,6.7c0.7,3,0.4,3.5-2.3,3.5c-3.6,0-10.8-4.7-23.6-15.3c-19.5-16.2-43.1-30-60.2-35.1
		c-11-3.2-34.4-4.5-45.5-2.4c-12.1,2.2-26.3,9.1-34.1,16.5c-13.8,13.1-14,30.5-0.6,46.4l3.8,4.5l-2.6,4c-3.8,5.9-3.5,13.8,0.8,19.6
		c1.9,2.6,3.8,4.7,4.2,4.7c0.4,0,0.9-1.7,1.1-3.7c0.4-5.1,2.6-8.5,6.3-9.9c3.4-1.2,5.6-0.6,21.1,5.5c16.3,6.5,43.1,6.9,71.6,1.2
		c14-2.8,30.4-2.7,37.7,0.4c13.3,5.6,16.4,20,6.6,31c-4.2,4.8-8.3,6.7-22,10.4c-10.4,2.9-12.9,3-36.5,2.8
		c-20.2-0.2-27.5,0.2-35.7,1.9c-9,1.9-14.5,2.1-40.8,1.4l-30.4-0.8l3.4,2.8c1.9,1.5,4.5,3.4,5.8,4.2c2.3,1.3,2.2,1.5-1.2,2.8
		c-2,0.7-6.5,1.4-9.9,1.4h-6.2l-0.8,5.3c-0.5,2.9-0.4,6.3,0.1,7.6c0.7,1.8,0.5,2.1-1.5,1.4c-1.3-0.5-5-1.4-8.1-2.1
		c-3.2-0.7-7.4-2-9.4-3c-3.4-1.7-3.8-1.6-5.1,0.6c-1.1,2-11.7,9.9-13.3,9.9c-0.3,0-0.6-1.5-0.7-3.4s-1.7-6.7-3.4-10.7
		c-1.7-4-3.5-8.5-4-9.8c-0.7-2-1-2.1-1.9-0.6c-0.6,1-1.4,3.8-1.9,6.1c-0.4,2.4-2,6.2-3.5,8.5l-2.7,4.2l-1.7-3.6
		c-1.9-3.9-5-7.9-6.1-7.9c-0.4,0-1,1.2-1.4,2.8c-0.9,3.2-8.2,12-10,12c-0.7,0-1.2-2.5-1.2-5.5s-0.6-5.5-1.3-5.5s-1.3,0.8-1.3,1.7
		c0,2.3-6.3,9.3-8.4,9.3c-0.9,0-2.4,0.8-3.3,1.8c-2.3,2.6-4.2,2.3-3.2-0.6c0.5-1.4,0.2-4.5-0.7-7.1c-0.8-2.5-1.7-5.2-1.9-6
		c-0.3-1-2.6-0.7-7.3,0.8c-7.7,2.5-10.3,2-6.3-1.1c1.4-1.1,3.6-5.1,4.9-8.7c1.2-3.7,3.1-6.9,4.1-7.2c1.4-0.4,1.3,0.1-0.3,2.3
		c-1.2,1.6-2.1,3.7-2.1,4.8c0,1-0.9,3.5-2,5.4c-1.1,2-1.8,3.7-1.5,4c0.2,0.2,3.2-0.9,6.5-2.5l6-2.9v2.6c0,1.4,0.7,5.2,1.6,8.4
		l1.6,5.8l4.1-1.9c4.2-1.9,8.2-8.8,8.2-14.2c0-2.6,1.5-2.2,2.1,0.6c0.2,0.8,1.1,3.9,2.1,6.9l1.8,5.4l2.8-3.4
		c1.5-1.9,3.5-5.5,4.3-8.1c1.4-4.5,3.7-6.5,3.7-3.2c0,2.4,6.5,10.9,7.7,10.1c0.6-0.4,1.8-3.5,2.7-7.1c1.8-7.4,4.7-12.4,6.5-11.3
		c0.7,0.4,1,1.2,0.6,1.7c-0.4,0.6,1.1,5.3,3.3,10.6c2.2,5.3,4.4,10.6,4.9,11.9c0.8,2,1.5,1.7,6.2-2.5c2.9-2.6,5.6-5.4,5.9-6.4
		c0.5-1.4,1.1-1.4,3.9,0.3c3.8,2.4,16.6,6.2,17.6,5.2c0.4-0.4,0.7-3.7,0.8-7.5l0.2-6.8l3.7,0.8c2,0.4,6.3,0.4,9.5-0.1l5.8-0.8
		l-5.1-3.5c-2.8-1.9-5.7-4.5-6.4-5.6c-0.7-1.2-3.2-2.2-6.1-2.5c-7.7-0.7-21.4-8.3-21.4-12c0-0.7,1.9,0.5,4.2,2.6
		c5.1,4.7,12.3,7.7,18.5,7.7h4.7l-2.9-3.8c-1.7-2.2-3.1-6.4-3.5-9.8c-0.6-5.5-1.1-6.4-6.9-10.3c-3.4-2.4-7.7-6-9.5-8l-3.2-3.6
		l-1.6,4.3c-0.9,2.4-2,4.3-2.4,4.3s-2.2-1.4-3.9-3.1c-1.7-1.7-3.4-3.1-3.8-3.1s-1.9,2.3-3.3,5l-2.5,5l-2-2.9
		c-1.1-1.6-3.6-4.4-5.7-6.3s-3.1-3.4-2.4-3.4s3.3,1.9,5.6,4.3l4.3,4.3l1.7-3.1c1-1.9,1.4-4.7,1-7.1c-0.7-3.4-0.6-3.6,0.7-1.5
		c0.8,1.3,3.3,3.9,5.6,5.7l4.1,3.3l2.8-5.1c2.8-5.1,2.8-5.1,4.1-2.1c1.7,4.1,14,14.1,24.4,20c1.6,0.9,0.9-2.2-2-9.4
		c-0.8-1.9-1.4-5.3-1.4-7.6c0-3.4-1-4.9-5.3-8.2c-6.3-4.8-8.3-8.2-9.5-15.8c-0.5-3.1-1.6-6.6-2.4-7.7c-1.3-1.7-1.5-0.7-1.1,5
		c0.2,3.9-0.3,8.7-1.1,10.8l-1.5,3.7l-1.2-3.1c-0.7-1.7-3.6-4.6-6.5-6.5s-4.9-3.8-4.5-4.2s3.4,1.3,6.6,3.8c4.9,3.8,6,4.2,6.7,2.5
		c0.8-2,0-10.6-1.5-16.6c-0.8-3-0.7-3,3,0.7c2.7,2.7,4.2,6,5.4,11.6c1.5,7.2,2.2,8.4,8.9,14.3c4,3.5,7.5,6.2,7.7,6
		c0.3-0.2,0.8-9.3,1.1-20.2c0.7-20.8-0.1-25.8-5.1-32.2l-2.6-3.3l4.1-4.4c5.3-5.7,7.7-10.3,8.8-16.5l0.9-5.1l-4.6,4.3
		c-3.7,3.5-5.5,4.3-9.9,4.3c-4.3,0-6-0.7-8.9-3.8c-3.5-3.7-9.6-7.3-15.5-9c-2.2-0.6-2.9-0.4-2.9,1.1c0,1.1-1.2,4.2-2.7,7l-2.7,5
		l-5.6-5.6c-3.4-3.4-7.5-6.1-10.6-6.9c-7.8-2-8.2-1.8-8.2,4c0,8.8-3.8,10.4-10.5,4.6c-5.2-4.5-9.4-5.4-19.2-4.4l-7.5,0.8l1.4,3.4
		c1.1,2.8,0.9,4-1.6,7.3c-3.9,5.2-9.1,7.5-16.9,7.5c-3.6,0-8.2,0.8-10.1,1.7c-1.9,0.9-6.7,2-10.6,2.4c-3.9,0.4-8.1,1-9.3,1.5
		c-1.9,0.7-2.1,0.1-1.5-4.1c0.9-6.5-3.6-11.2-10.6-11.2c-9.1,0-13.3,8.2-9.8,18.9c0.7,2.1,1.6,5.3,2,7.3s4.5,7.3,9.6,12.3
		c4.9,4.9,9.4,9.9,10.2,11.2s3.2,3.4,5.5,4.7l4.2,2.3l-0.5-4.5c-0.6-4.9,0.5-5.7,3.1-2.2c0.9,1.2,3.3,3.2,5.3,4.4
		c3.1,1.9,3.6,1.9,3.6,0.3c0-1,0.6-3.5,1.4-5.4l1.4-3.5l2.4,4.7c1.3,2.6,5.7,8.5,9.6,13c7.7,8.9,12.4,18.9,10,21.2
		c-1,0.9-3.6,0.9-9.1-0.2c-4.3-0.9-9.5-1.3-11.7-1c-4.5,0.6-4.8,0-2.1-3.4c2.9-3.6,2.4-4.2-3.3-4.2c-6.6,0-22.9-3.2-29.2-5.6
		c-6.1-2.4-7.5-1.8-9.3,4c-0.8,2.6-2.3,7.3-3.3,10.5l-1.8,5.7l6.6-0.6c3.6-0.3,8.3-1.1,10.4-1.8c2.1-0.6,4-1,4.2-0.7
		c0.2,0.2-0.7,2.5-2.1,5l-2.5,4.6l4.1-0.8c2.3-0.5,5.7-1.6,7.6-2.5c3.3-1.6,3.6-1.5,6.2,2.7c3.2,5.1,5.8,4.9,6.3-0.5
		c0.6-5.6,2.4-4.8,5.9,2.7c3.4,7.2,6.8,9.7,7.5,5.5c0.2-1.4,2-3.7,4-5.1c4-2.8,7-2,8.8,2.5c1.8,4.6-2.2,9.3-13.9,16.4
		c-23.3,14.1-36.9,33.5-40.8,58.1c-3.5,22.2,7.4,45.2,29.3,61.7c10.5,7.9,27.1,16.2,26,13.1c-4.5-13.5-4.3-39.3,0.3-43.6
		c0.7-0.7,0.5,2-0.5,6c-3.6,14.7-2.1,26.4,7.3,53.8c8.5,24.8,7.3,35.4-4.7,42.4c-3.8,2.2-6.3,2.6-16.6,2.5c-11.2-0.1-12.4,0.1-16,3
		c-3.5,2.8-8,11.9-8,16.2C239.6,428.8,242.1,428.5,247.2,425.6L247.2,425.6z"/>
	<path class="st3" d="M429.1,425.1l4.7-3l3.2,3c4.2,4,9.1,3.9,13.1-0.2c1.8-1.8,3.3-3,3.5-2.8c0.2,0.3,1,1.6,1.7,3
		c1,1.7,3,2.6,6.7,2.8c4.4,0.3,5.6-0.1,7.4-2.7l2.1-3l4.6,3c12.7,8.1,19.4-0.4,13.8-17.4c-2.9-8.6-1.3-13.5,8-24.5
		c3.9-4.6,7.1-9.6,7.1-11c0-2.3-0.7-2.6-5.9-2.5c-5,0.1-6.4-0.4-9.1-3.3c-4.3-4.7-4-10.1,0.8-16l3.8-4.8l-6.8-4.6
		c-3.7-2.5-10.4-8.5-14.9-13.3c-10.1-10.7-19.9-15.8-33-17l-8.7-0.8v6.6c0,8.5,4,16.7,14.9,30.6c12.4,15.8,13.3,18.2,13.8,38.8
		l0.4,17.4l-3.6,3.4c-3.2,3.1-4.7,3.5-15.2,4.1c-10,0.6-12.1,1.1-15,3.7c-3.9,3.4-5,5.3-6.2,10.1c-0.7,2.8-0.4,3.4,1.6,3.4
		C423.3,428.1,426.5,426.7,429.1,425.1L429.1,425.1z"/>
	<path class="st3" d="M162.4,380c1.1-1.5,2-3.9,2-5.4c0-2.2,1-2.8,5.8-3.5l5.8-0.8l-3.9-3.1c-4.6-3.7-5-6.6-1-6.6
		c4.1,0,10.9-4.2,12-7.3c0.5-1.4,0.2-3.4-0.7-4.4c-2.3-2.6-6.5-2.2-7.3,0.7c-0.9,3.1-2.3,3.1-5.5,0c-4.9-4.6-5-14.2-0.2-19.7
		c2.2-2.6,2.2-2.8-0.6-5.5c-3.1-2.9-5.3-8.7-3.8-10c0.5-0.4,2.9-0.1,5.4,0.8c3.6,1.2,5,1.2,6.4,0.1c4.4-3.5-0.4-8-7.5-7
		c-2.9,0.4-4.1,0-4.5-1.5c-0.3-1.1-2.8-2.6-5.7-3.3c-5.1-1.3-5.1-1.3-5.1,2.2c0,3.8-2.2,4.5-6.3,2.1c-3.4-2-6.6-0.4-6.6,3.1
		c0,3.3,3.4,5,9.4,4.6c4.6-0.3,4.8,3.1,0.4,8.1l-3.2,3.6l2.5,3.6c3.7,5.3,3.4,14.2-0.7,18.5l-3.2,3.4l-2.1-2.8
		c-2.9-3.8-6.8-3.6-7.9,0.5c-0.7,2.7-0.1,3.9,3.2,6.7c2.3,1.9,5.5,3.5,7.3,3.5c4.4,0,4.2,3.4-0.3,6.9l-3.6,2.7l5.5,0.9
		c3,0.5,5.5,1.4,5.5,2c0,2.3,3.8,9.6,5,9.6C159.9,382.7,161.3,381.5,162.4,380L162.4,380z"/>
	<path class="st3" d="M234.1,348.9c5-2,15.8-11.1,15.8-13.4c0-0.7-3-4-6.6-7.3c-7.7-7-16-18.7-18.2-25.5c-1.1-3.6-6.6-9.7-22-24.6
		l-20.4-19.8l-5.9,1.5c-3.2,0.8-7.2,1.5-8.8,1.5c-2.7,0-2.7,0.2,1,3l3.8,3l5.4-3c5.2-2.9,5.4-2.9,6.1-0.6c0.4,1.4-0.4,3.7-1.9,5.5
		c-1.4,1.7-2.2,3.6-1.8,4.3c0.4,0.7-0.9,2-3,3c-3.8,1.9-6.5,8.1-3.5,8.1c2.7,0,8.7-7.4,8-9.9c-0.4-1.3-0.2-2.6,0.4-2.9
		c2.3-1.4,2.2,4.5-0.2,7.3c-1.4,1.7-2.2,3.6-1.8,4.3c0.4,0.7-0.9,2-3,3c-3.8,1.9-6.5,8.1-3.5,8.1c2.9,0,8.9-7.1,8.1-9.7
		c-0.4-1.4-0.2-2.8,0.3-3.1c1.6-0.9,2.4,3.7,1.1,5.9c-0.7,1.2-0.7,2.9,0,4.2c1.3,2.4,0,6.9-2.4,8.3c-1,0.6-0.3,1.8,2.2,3.7
		c3.6,2.7,3.7,3,3.7,15.1c0,10.1,0.4,12.7,2.3,14.5c2.1,2,2.3,2,2.3,0.1c0-2.1,3.6-4.6,6.6-4.6c0.9,0,6.4,4.6,12.2,10.3
		c5.9,5.7,12,10.6,13.7,10.9s3.6,0.6,4.1,0.7C228.8,350.7,231.5,350,234.1,348.9L234.1,348.9z"/>
	<path class="st3" d="M171.6,300c0-3.3-6.7-6.7-14.8-7.6c-6.5-0.7-6.6-0.7-6.6,2.6c0,2.7,1,3.7,5.5,5.7
		C162.9,303.7,171.6,303.4,171.6,300L171.6,300z"/>
	<path class="st3" d="M179,299.7c3.3-3,4.8-6.5,2.9-6.5c-2.3,0-8.3,5.4-8.3,7.4C173.5,303.8,174.6,303.6,179,299.7L179,299.7z"/>
	<path class="st3" d="M172,290.1c0.3-1.8-0.9-3.1-4.3-4.6c-7.4-3.3-16.2-4.9-18.3-3.2c-3.9,3.1-1.3,7.2,5,7.9c2.5,0.3,6,1.1,7.6,1.7
		C166.9,293.8,171.5,292.9,172,290.1z"/>
	<path class="st3" d="M172,280.2c0.4-2.6-1.3-3.6-15-8.4c-10.2-3.6-14.8-1.9-11.5,4.3c1.1,2.2,3,3.2,7.3,3.8
		c3.2,0.5,7.5,1.4,9.7,2.1C168.2,283.8,171.5,283.1,172,280.2L172,280.2z"/>
	<path class="st3" d="M178.8,271c2.1-2.1,3.8-4.6,3.8-5.5c0-3-8.2,2.3-9.2,6C172.1,275.9,174.2,275.7,178.8,271L178.8,271z"/>
	<path class="st3" d="M172,270.4c0.5-3-4.5-5.7-14.3-7.8c-7.2-1.5-10.3-0.7-9.8,2.7c0.3,1.8,2.7,3.1,9.5,5.3
		C168.2,273.9,171.4,273.9,172,270.4L172,270.4z"/>
	<path class="st3" d="M181.5,256.5c12.5-5.6,13.6-19.6,1.8-23.3c-4.9-1.5-8-0.7-9.9,2.6c-1.4,2.5-0.5,7.2,1.5,7.2
		c0.7,0,1.2,0.9,1.2,1.9c0,4.9-19.1,7.1-27,3.1c-2.8-1.4-4-5-1.7-5c1.7,0,2.9-3.7,2-6.3c-1.2-3.6-4.8-4.8-10-3.4
		c-11.7,3.1-11.4,16.9,0.5,22.7C149.9,260.7,171.4,261,181.5,256.5L181.5,256.5z"/>
	<path class="st3" d="M173.7,245.6c0.7-0.7,0.4-1.7-0.8-2.7c-2.7-2.1-2.5-5.2,0.4-8.8c2.2-2.7,2.5-6.7,3.2-47.1
		c1.3-69.6,6.5-122,13.3-134.5c2.7-5,2.3-5-4.7-0.2c-9,6.2-15.9,14.2-22,25.6c-11.5,21.7-15.5,50.8-15.5,113
		c0,35.3,0.2,39.9,2.3,43.2c1.9,3.2,2,4.3,0.7,7.7c-0.9,2.2-1.3,4.3-0.9,4.6C152.2,248.9,171,248.3,173.7,245.6L173.7,245.6z"/>
	<path class="st3" d="M279,179.3c0.4-0.6-0.5-3.6-1.9-6.7c-2.3-4.8-3.2-5.7-6.4-5.7c-10.1,0-26.3-4.5-43.1-12
		c-9.7-4.3-13-5.3-14.2-4.2c-3,2.8,2,9.5,9.6,12.9c6.8,3.1,25.6,6.9,34.2,6.9c5,0,5.1,0.2,2.3,4.3l-2.1,3l5.7,0.1
		c3.1,0.1,7.4,0.6,9.5,1.1C278.1,180.5,278.2,180.5,279,179.3L279,179.3z"/>
	<path d="M338,210.6c0-1.8-5.3-6.7-10.6-9.8c-4.2-2.5-4.9-2.5-4.9-0.5c0,3.1-2.7,10.7-3.8,10.7c-0.6,0-1.5-1.5-2-3.3s-2.5-5.4-4.5-8
		l-3.6-4.7l-2.8,4.4c-2.6,4.1-7.2,8-9.3,8c-0.5,0-0.6-2.1-0.2-4.7c0.4-2.8,0.1-5.1-0.8-5.6c-0.8-0.5-1.4-0.3-1.4,0.4
		c0,1.5-6.4,8.8-7.7,8.8c-0.6,0-1.3-2.1-1.7-4.6c-0.4-2.5-1.1-6.5-1.5-8.9s0.5-0.8,2,3.6l2.8,7.8l3.1-4.8c1.7-2.6,3.1-5.5,3.1-6.4
		s0.6-1.3,1.3-0.9c0.7,0.4,1.7,3.6,2.1,7l0.9,6.3l3.4-3.7c1.9-2,4-4.7,4.8-6c1.4-2.3,1.5-2.3,4.3,0.1c1.6,1.3,4,4.6,5.4,7.2
		c1.4,2.6,2.7,4.5,3,4.3c0.2-0.2,0.7-2.9,1.1-5.9s0.8-5.6,0.8-5.8c0.2-0.8,10.1,5.7,13.8,9c2.4,2.1,4.6,3.5,5,3.2
		c0.4-0.4,0.7-3.5,0.7-6.9c0-5.3-0.6-6.7-3.8-9.6c-3.7-3.3-3.8-3.4-5.2-0.9c-1.8,3.2-3.9,3.2-3.9,0.1c0-2.3-7.1-11.1-8.9-11.1
		c-0.5,0-2,1.9-3.3,4.3c-1.3,2.4-2.8,4.3-3.2,4.3c-1.8,0-11.8-11.1-11.8-13.1c0-1.6,0.7-1.2,2.4,1.5c1.3,2,4,5,5.9,6.7
		c3.9,3.4,5.3,2.6,6.8-4c0.4-1.9,1.2-3.4,1.6-3.4c1.7,0,10.3,9.2,11.5,12.3l1.2,3.1l0.9-3.4c1.1-4.1,2.4-4.3,4.2-0.5
		c0.8,1.6,4.5,4.8,8.3,7.3l6.9,4.4l1.4-4.4c0.8-2.4,1.8-3.8,2.3-3.1c0.7,1.1-1.1,8.4-2.5,10c-0.2,0.2-2.4-1.1-5-2.9l-4.6-3.3v6
		c0,3.3-0.4,7.2-0.8,8.7C340.2,212.4,338,213.3,338,210.6L338,210.6z"/>
	<path d="M303.4,163c-8.2-6.9-9.5-8.4-9.3-11.7l0.2-3.5l0.5,3.3c0.3,2,2.5,4.9,5.3,7l4.7,3.7l2.9-3.4c1.6-1.8,2.9-4.1,3-4.9
		c0.1-2.2,0.5-2,6,2.8c5,4.3,5,4.3,5.8,1.5c0.4-1.6,0.3-4.5-0.3-6.5c-1.6-5.5-1.3-6.4,1.2-3c1.2,1.7,3.2,4,4.4,5.2
		c2.1,2.1,2.2,2.1,2.9-0.6c0.4-1.6,0.8-4.4,0.8-6.3v-3.5l4.5,5.1c4.2,4.7,4.6,4.9,5.8,2.6c0.7-1.3,1.4-4.5,1.4-7.1
		c0-3.3,0.4-4.2,1.2-2.9c1.4,2.1,0.4,7.9-2.2,12.8l-1.9,3.5l-2.5-3.8c-3.1-4.9-4.2-4.8-6.2,0.5c-1.9,5-3.1,5.4-5,1.5
		c-1.2-2.5-1.4-2.2-2.3,3l-0.9,5.8l-5.7-4.4l-5.7-4.4l-2.6,2.9c-1.4,1.6-2.6,3.6-2.6,4.4C306.9,164.7,305.5,164.8,303.4,163
		L303.4,163z"/>
	<path d="M376.7,137.4c-3-2.7-5.1-5.3-4.6-5.7s1-0.6,1.2-0.3s2.6,2.9,5.4,5.7C385.2,143.7,383.9,143.9,376.7,137.4L376.7,137.4z"/>
	<path d="M279.1,127.4c-2.7-3.7-2.5-6.1,0.8-10.1c2.4-2.9,3.5-3.3,7.7-2.7c2.7,0.3,8.5,2.7,12.8,5.3c5.1,3,10.3,4.9,14.3,5.4
		c3.5,0.4,6.4,0.6,6.4,0.4s-1.5-2.6-3.2-5.3c-4.2-6.3-4.1-7,0.7-3.2c4.9,3.9,10.8,5,23.8,4.6l6.4-0.2l-3.7-3.7
		c-5.2-5.1-3.6-5.6,2.1-0.6c5.4,4.7,5,5-6.3,6.1c-4.8,0.5-10,0.1-14.3-1c-6.4-1.6-6.7-1.6-5.5,0.5c0.7,1.2,1.8,2.3,2.5,2.3
		s1.2,0.6,1.2,1.4c0,2.4-13.9,0.3-20.5-3.1c-15.2-7.7-17.1-8.3-20.7-7.2c-2,0.6-4,2.5-4.7,4.3c-2.3,6.2,6.5,11,10.1,5.5
		c1-1.6,0.8-2.7-1-4.6c-2.5-2.6-2.3-3,1.1-1.8c2.4,0.9,2.7,6.7,0.5,8.8C287.2,131,281.4,130.4,279.1,127.4L279.1,127.4z"/>
	<path d="M338.8,112.1c-1.9-1.8-0.4-2.2,8.1-2.4c10.5-0.2,16.9-1.9,24.4-6.7c6-3.8,7.7-3.1,1.9,0.9c-5.2,3.6-13.4,6.4-21.2,7.2
		c-3.8,0.4-8.2,1-9.6,1.3C340.9,112.6,339.3,112.5,338.8,112.1L338.8,112.1z"/>
</g>
</svg>
