<?xml version="1.0" encoding="utf-8"?>
<!-- Generator: Adobe Illustrator 22.1.0, SVG Export Plug-In . SVG Version: 6.00 Build 0)  -->
<svg version="1.1" id="Layer_1" xmlns="http://www.w3.org/2000/svg" xmlns:xlink="http://www.w3.org/1999/xlink" x="0px" y="0px"
	 viewBox="0 0 236.3 236.3" style="enable-background:new 0 0 236.3 236.3;" xml:space="preserve">
<path d="M74.3,67.2c-4.3,0.3-8.2,0.6-13,0.9c14.5,27.2,22.9,55,24.2,84.4c7.7-0.6,14.7-1.1,22.1-1.6c0-29,0-58.1,0-88.5
	c-4.9,0.5-9.9,1-15.2,1.5c8.7-17,17.5-34,26.7-52c9.2,17.9,18,34.9,26.8,52.1c-5.2-0.6-10.2-1.2-15.4-1.8c0,30.3,0,59.4,0,88.6
	c7.3,0.5,14.3,1.1,22.1,1.6c1.6-29.1,9.5-57,24.3-84.2c-4.9-0.4-8.8-0.7-13-1.1c13.5-16.8,31.6-24.1,54-24.8
	c-32.8,38.9-47.4,83.9-48.6,132.9c-13.1-2-25.6-3.9-38.9-6c0,18.7,0,36,0,53.6c-7.7,0-14.9,0-22.6,0c0-17.4,0-34.6,0-52.3
	c-13.6-0.7-26.1,2.2-39.1,5.6c-1.3-50-15.8-94.8-48.6-133.7C42.5,43.1,60.5,50.3,74.3,67.2z"/>
</svg>
