<svg width="92" height="92" viewBox="0 0 92 92" fill="none" xmlns="http://www.w3.org/2000/svg">
<circle cx="46" cy="46" r="2.75" stroke="black" stroke-width="0.5"/>
<circle cx="46" cy="46" r="3.75" stroke="black" stroke-width="0.5"/>
<circle cx="46" cy="46" r="4.75" stroke="black" stroke-width="0.5"/>
<circle cx="46" cy="46" r="5.75" stroke="black" stroke-width="0.5"/>
<circle cx="46" cy="46" r="6.75" stroke="black" stroke-width="0.5"/>
<circle cx="46" cy="46" r="7.75" stroke="black" stroke-width="0.5"/>
<circle cx="46" cy="46" r="8.75" stroke="black" stroke-width="0.5"/>
<circle cx="46" cy="46" r="9.75" stroke="black" stroke-width="0.5"/>
<circle cx="46" cy="46" r="10.75" stroke="black" stroke-width="0.5"/>
<circle cx="46" cy="46" r="11.75" stroke="black" stroke-width="0.5"/>
<circle cx="46" cy="46" r="12.75" stroke="black" stroke-width="0.5"/>
<circle cx="46" cy="46" r="13.75" stroke="black" stroke-width="0.5"/>
<circle cx="46" cy="46" r="14.75" stroke="black" stroke-width="0.5"/>
<circle cx="46" cy="46" r="15.75" stroke="black" stroke-width="0.5"/>
<circle cx="46" cy="46" r="16.75" stroke="black" stroke-width="0.5"/>
<circle cx="46" cy="46" r="17.75" stroke="black" stroke-width="0.5"/>
<circle cx="46" cy="46" r="18.75" stroke="black" stroke-width="0.5"/>
<circle cx="46" cy="46" r="19.75" stroke="black" stroke-width="0.5"/>
<circle cx="46" cy="46" r="20.75" stroke="black" stroke-width="0.5"/>
<circle cx="46" cy="46" r="21.75" stroke="black" stroke-width="0.5"/>
<circle cx="46" cy="46" r="22.75" stroke="black" stroke-width="0.5"/>
<circle cx="46" cy="46" r="23.75" stroke="black" stroke-width="0.5"/>
<circle cx="46" cy="46" r="24.75" stroke="black" stroke-width="0.5"/>
<circle cx="46" cy="46" r="25.75" stroke="black" stroke-width="0.5"/>
<circle cx="46" cy="46" r="26.75" stroke="black" stroke-width="0.5"/>
<circle cx="46" cy="46" r="27.75" stroke="black" stroke-width="0.5"/>
<circle cx="46" cy="46" r="28.75" stroke="black" stroke-width="0.5"/>
<circle cx="46" cy="46" r="29.75" stroke="black" stroke-width="0.5"/>
<circle cx="46" cy="46" r="30.75" stroke="black" stroke-width="0.5"/>
<circle cx="46" cy="46" r="31.75" stroke="black" stroke-width="0.5"/>
<circle cx="46" cy="46" r="32.75" stroke="black" stroke-width="0.5"/>
<circle cx="46" cy="46" r="33.75" stroke="black" stroke-width="0.5"/>
<circle cx="46" cy="46" r="34.75" stroke="black" stroke-width="0.5"/>
<circle cx="46" cy="46" r="35.75" stroke="black" stroke-width="0.5"/>
<circle cx="46" cy="46" r="36.75" stroke="black" stroke-width="0.5"/>
<circle cx="46" cy="46" r="37.75" stroke="black" stroke-width="0.5"/>
<circle cx="46" cy="46" r="38.75" stroke="black" stroke-width="0.5"/>
<circle cx="46" cy="46" r="39.75" stroke="black" stroke-width="0.5"/>
<circle cx="46" cy="46" r="40.75" stroke="black" stroke-width="0.5"/>
<circle cx="46" cy="46" r="41.75" stroke="black" stroke-width="0.5"/>
<circle cx="46" cy="46" r="42.75" stroke="black" stroke-width="0.5"/>
<circle cx="46" cy="46" r="43.75" stroke="black" stroke-width="0.5"/>
<circle cx="46" cy="46" r="44.75" stroke="black" stroke-width="0.5"/>
<circle cx="46" cy="46" r="45.75" stroke="black" stroke-width="0.5"/>
<circle cx="46" cy="46" r="45.75" stroke="black" stroke-width="0.5"/>
</svg>
