<svg width="74" height="74" viewBox="0 0 74 74" fill="none" xmlns="http://www.w3.org/2000/svg">
<circle cx="37" cy="37" r="2.75" stroke="black" stroke-width="0.5"/>
<circle cx="37" cy="37" r="3.75" stroke="black" stroke-width="0.5"/>
<circle cx="37" cy="37" r="4.75" stroke="black" stroke-width="0.5"/>
<circle cx="37" cy="37" r="5.75" stroke="black" stroke-width="0.5"/>
<circle cx="37" cy="37" r="6.75" stroke="black" stroke-width="0.5"/>
<circle cx="37" cy="37" r="7.75" stroke="black" stroke-width="0.5"/>
<circle cx="37" cy="37" r="8.75" stroke="black" stroke-width="0.5"/>
<circle cx="37" cy="37" r="9.75" stroke="black" stroke-width="0.5"/>
<circle cx="37" cy="37" r="10.75" stroke="black" stroke-width="0.5"/>
<circle cx="37" cy="37" r="11.75" stroke="black" stroke-width="0.5"/>
<circle cx="37" cy="37" r="12.75" stroke="black" stroke-width="0.5"/>
<circle cx="37" cy="37" r="13.75" stroke="black" stroke-width="0.5"/>
<circle cx="37" cy="37" r="14.75" stroke="black" stroke-width="0.5"/>
<circle cx="37" cy="37" r="15.75" stroke="black" stroke-width="0.5"/>
<circle cx="37" cy="37" r="16.75" stroke="black" stroke-width="0.5"/>
<circle cx="37" cy="37" r="17.75" stroke="black" stroke-width="0.5"/>
<circle cx="37" cy="37" r="18.75" stroke="black" stroke-width="0.5"/>
<circle cx="37" cy="37" r="19.75" stroke="black" stroke-width="0.5"/>
<circle cx="37" cy="37" r="20.75" stroke="black" stroke-width="0.5"/>
<circle cx="37" cy="37" r="21.75" stroke="black" stroke-width="0.5"/>
<circle cx="37" cy="37" r="22.75" stroke="black" stroke-width="0.5"/>
<circle cx="37" cy="37" r="23.75" stroke="black" stroke-width="0.5"/>
<circle cx="37" cy="37" r="24.75" stroke="black" stroke-width="0.5"/>
<circle cx="37" cy="37" r="25.75" stroke="black" stroke-width="0.5"/>
<circle cx="37" cy="37" r="26.75" stroke="black" stroke-width="0.5"/>
<circle cx="37" cy="37" r="27.75" stroke="black" stroke-width="0.5"/>
<circle cx="37" cy="37" r="28.75" stroke="black" stroke-width="0.5"/>
<circle cx="37" cy="37" r="29.75" stroke="black" stroke-width="0.5"/>
<circle cx="37" cy="37" r="30.75" stroke="black" stroke-width="0.5"/>
<circle cx="37" cy="37" r="31.75" stroke="black" stroke-width="0.5"/>
<circle cx="37" cy="37" r="32.75" stroke="black" stroke-width="0.5"/>
<circle cx="37" cy="37" r="33.75" stroke="black" stroke-width="0.5"/>
<circle cx="37" cy="37" r="34.75" stroke="black" stroke-width="0.5"/>
<circle cx="37" cy="37" r="35.75" stroke="black" stroke-width="0.5"/>
<circle cx="37" cy="37" r="36.75" stroke="black" stroke-width="0.5"/>
</svg>
