<svg width="116" height="116" viewBox="0 0 116 116" fill="none" xmlns="http://www.w3.org/2000/svg">
<circle cx="58" cy="58" r="2.75" stroke="black" stroke-width="0.5"/>
<circle cx="58" cy="58" r="3.75" stroke="black" stroke-width="0.5"/>
<circle cx="58" cy="58" r="4.75" stroke="black" stroke-width="0.5"/>
<circle cx="58" cy="58" r="5.75" stroke="black" stroke-width="0.5"/>
<circle cx="58" cy="58" r="6.75" stroke="black" stroke-width="0.5"/>
<circle cx="58" cy="58" r="7.75" stroke="black" stroke-width="0.5"/>
<circle cx="58" cy="58" r="8.75" stroke="black" stroke-width="0.5"/>
<circle cx="58" cy="58" r="9.75" stroke="black" stroke-width="0.5"/>
<circle cx="58" cy="58" r="10.75" stroke="black" stroke-width="0.5"/>
<circle cx="58" cy="58" r="11.75" stroke="black" stroke-width="0.5"/>
<circle cx="58" cy="58" r="12.75" stroke="black" stroke-width="0.5"/>
<circle cx="58" cy="58" r="13.75" stroke="black" stroke-width="0.5"/>
<circle cx="58" cy="58" r="14.75" stroke="black" stroke-width="0.5"/>
<circle cx="58" cy="58" r="15.75" stroke="black" stroke-width="0.5"/>
<circle cx="58" cy="58" r="16.75" stroke="black" stroke-width="0.5"/>
<circle cx="58" cy="58" r="17.75" stroke="black" stroke-width="0.5"/>
<circle cx="58" cy="58" r="18.75" stroke="black" stroke-width="0.5"/>
<circle cx="58" cy="58" r="19.75" stroke="black" stroke-width="0.5"/>
<circle cx="58" cy="58" r="20.75" stroke="black" stroke-width="0.5"/>
<circle cx="58" cy="58" r="21.75" stroke="black" stroke-width="0.5"/>
<circle cx="58" cy="58" r="22.75" stroke="black" stroke-width="0.5"/>
<circle cx="58" cy="58" r="23.75" stroke="black" stroke-width="0.5"/>
<circle cx="58" cy="58" r="24.75" stroke="black" stroke-width="0.5"/>
<circle cx="58" cy="58" r="25.75" stroke="black" stroke-width="0.5"/>
<circle cx="58" cy="58" r="26.75" stroke="black" stroke-width="0.5"/>
<circle cx="58" cy="58" r="27.75" stroke="black" stroke-width="0.5"/>
<circle cx="58" cy="58" r="28.75" stroke="black" stroke-width="0.5"/>
<circle cx="58" cy="58" r="29.75" stroke="black" stroke-width="0.5"/>
<circle cx="58" cy="58" r="30.75" stroke="black" stroke-width="0.5"/>
<circle cx="58" cy="58" r="31.75" stroke="black" stroke-width="0.5"/>
<circle cx="58" cy="58" r="32.75" stroke="black" stroke-width="0.5"/>
<circle cx="58" cy="58" r="33.75" stroke="black" stroke-width="0.5"/>
<circle cx="58" cy="58" r="34.75" stroke="black" stroke-width="0.5"/>
<circle cx="58" cy="58" r="35.75" stroke="black" stroke-width="0.5"/>
<circle cx="58" cy="58" r="36.75" stroke="black" stroke-width="0.5"/>
<circle cx="58" cy="58" r="37.75" stroke="black" stroke-width="0.5"/>
<circle cx="58" cy="58" r="38.75" stroke="black" stroke-width="0.5"/>
<circle cx="58" cy="58" r="39.75" stroke="black" stroke-width="0.5"/>
<circle cx="58" cy="58" r="40.75" stroke="black" stroke-width="0.5"/>
<circle cx="58" cy="58" r="41.75" stroke="black" stroke-width="0.5"/>
<circle cx="58" cy="58" r="42.75" stroke="black" stroke-width="0.5"/>
<circle cx="58" cy="58" r="43.75" stroke="black" stroke-width="0.5"/>
<circle cx="58" cy="58" r="44.75" stroke="black" stroke-width="0.5"/>
<circle cx="58" cy="58" r="45.75" stroke="black" stroke-width="0.5"/>
<circle cx="58" cy="58" r="45.75" stroke="black" stroke-width="0.5"/>
<circle cx="58" cy="58" r="46.75" stroke="black" stroke-width="0.5"/>
<circle cx="58" cy="58" r="47.75" stroke="black" stroke-width="0.5"/>
<circle cx="58" cy="58" r="48.75" stroke="black" stroke-width="0.5"/>
<circle cx="58" cy="58" r="49.75" stroke="black" stroke-width="0.5"/>
<circle cx="58" cy="58" r="50.75" stroke="black" stroke-width="0.5"/>
<circle cx="58" cy="58" r="51.75" stroke="black" stroke-width="0.5"/>
<circle cx="58" cy="58" r="52.75" stroke="black" stroke-width="0.5"/>
<circle cx="58" cy="58" r="53.75" stroke="black" stroke-width="0.5"/>
<circle cx="58" cy="58" r="54.75" stroke="black" stroke-width="0.5"/>
<circle cx="58" cy="58" r="55.75" stroke="black" stroke-width="0.5"/>
<circle cx="58" cy="58" r="56.75" stroke="black" stroke-width="0.5"/>
<circle cx="58" cy="58" r="57.75" stroke="black" stroke-width="0.5"/>
</svg>
