<?xml version="1.0" encoding="utf-8"?>
<!-- Generator: Adobe Illustrator 22.1.0, SVG Export Plug-In . SVG Version: 6.00 Build 0)  -->
<svg version="1.1" id="Layer_1" xmlns="http://www.w3.org/2000/svg" xmlns:xlink="http://www.w3.org/1999/xlink" x="0px" y="0px"
	 viewBox="0 0 40.2 40.2" style="enable-background:new 0 0 40.2 40.2;" xml:space="preserve">
<style type="text/css">
	.st0{fill:#FF49A4;}
</style>
<title>scrollbar</title>
<path class="st0" d="M16.1,17.2l2.6,2.6L14,24.5l-2.8,2.3l0,0.1l5.2-0.3H35v3.7H16.6L11.3,30l0,0.2l2.8,2.3l4.7,4.7l-2.6,2.6
	L4.8,28.5L16.1,17.2z M24.1,23.1l-2.6-2.6l4.7-4.7l2.8-2.3l0-0.1l-5.2,0.3H5.3V10h18.4l5.2,0.3l0-0.1l-2.8-2.3L21.5,3l2.6-2.6
	l11.4,11.4L24.1,23.1z"/>
</svg>
