<?xml version="1.0" encoding="utf-8"?>
<!-- Generator: Adobe Illustrator 22.1.0, SVG Export Plug-In . SVG Version: 6.00 Build 0)  -->
<svg version="1.1" id="Layer_1" xmlns="http://www.w3.org/2000/svg" xmlns:xlink="http://www.w3.org/1999/xlink" x="0px" y="0px"
	 viewBox="0 0 360 360" style="enable-background:new 0 0 360 360;" xml:space="preserve">
<style type="text/css">
	.st0{fill:#FFFFFF;}
</style>
<g>
	<polygon class="st0" points="172,286 172,193.5 79.5,193.5 79.5,166.5 172,166.5 172,74 199,74 199,166.5 291.5,166.5 291.5,193.5 
		199,193.5 199,286 	"/>
	<path d="M197,76v88.5v4h4h88.5v23H201h-4v4V284h-23v-88.5v-4h-4H81.5v-23H170h4v-4V76H197 M201,72h-31v92.5H77.5v31H170V288h31
		v-92.5h92.5v-31H201V72L201,72z"/>
</g>
</svg>
